<svg width="16" height="16" viewBox="0 0 16 16" fill="none" xmlns="http://www.w3.org/2000/svg">
<path d="M5.93998 13.7796C5.81332 13.7796 5.68665 13.733 5.58665 13.633C5.39332 13.4396 5.39332 13.1196 5.58665 12.9263L9.93332 8.57965C10.2533 8.25965 10.2533 7.73965 9.93332 7.41965L5.58665 3.07298C5.39332 2.87965 5.39332 2.55965 5.58665 2.36631C5.77998 2.17298 6.09998 2.17298 6.29332 2.36631L10.64 6.71298C10.98 7.05298 11.1733 7.51298 11.1733 7.99965C11.1733 8.48631 10.9867 8.94631 10.64 9.28631L6.29332 13.633C6.19332 13.7263 6.06665 13.7796 5.93998 13.7796Z" fill="#292D32"/>
</svg>
