<svg width="18" height="19" viewBox="0 0 18 19" fill="none" xmlns="http://www.w3.org/2000/svg">
<g filter="url(#filter0_d_520_1424)">
<path d="M9.00001 17.1247C8.55001 17.1247 8.10751 17.0197 7.74751 16.8172L4.20001 14.7697C2.73001 13.7797 2.63251 13.5997 2.63251 12.0472V8.32718C2.63251 6.77468 2.73001 6.59468 4.17001 5.62718L7.75501 3.55718C8.46751 3.14468 9.54001 3.14468 10.2525 3.55718L13.8 5.60468C15.27 6.59468 15.3675 6.77468 15.3675 8.32718V12.0472C15.3675 13.5997 15.27 13.7797 13.83 14.7472L10.245 16.8172C9.89251 17.0272 9.44251 17.1247 9.00001 17.1247ZM9.00001 4.37468C8.74501 4.37468 8.49001 4.42718 8.31001 4.53218L4.76251 6.57968C3.75751 7.26218 3.75751 7.26218 3.75751 8.32718V12.0472C3.75751 13.1122 3.75751 13.1122 4.80001 13.8172L8.31751 15.8422C8.67751 16.0522 9.33001 16.0522 9.69001 15.8422L13.2375 13.7947C14.2425 13.1122 14.2425 13.1122 14.2425 12.0472V8.32718C14.2425 7.26218 14.2425 7.26218 13.2 6.55718L9.68251 4.53218C9.51001 4.42718 9.25501 4.37468 9.00001 4.37468Z" fill="#FA541C"/>
<path d="M13.125 6.3475C12.8175 6.3475 12.5625 6.0925 12.5625 5.785V3.8125C12.5625 2.6275 12.06 2.125 10.875 2.125H7.125C5.94 2.125 5.4375 2.6275 5.4375 3.8125V5.7325C5.4375 6.04 5.1825 6.295 4.875 6.295C4.5675 6.295 4.3125 6.0475 4.3125 5.7325V3.8125C4.3125 1.9975 5.31 1 7.125 1H10.875C12.69 1 13.6875 1.9975 13.6875 3.8125V5.785C13.6875 6.0925 13.4325 6.3475 13.125 6.3475Z" fill="#FA541C"/>
<path d="M10.2225 13.2851C10.065 13.2851 9.89999 13.2551 9.73499 13.1876L8.99999 12.9026L8.265 13.1951C7.8675 13.3526 7.4625 13.3151 7.1625 13.0976C6.8625 12.8801 6.705 12.5051 6.7275 12.0776L6.77249 11.2901L6.26999 10.6826C5.99999 10.3451 5.90999 9.95509 6.02999 9.59509C6.14249 9.24259 6.44999 8.97259 6.86249 8.86759L7.6275 8.67259L8.05499 8.00509C8.51249 7.28509 9.495 7.28509 9.9525 8.00509L10.38 8.67259L11.145 8.86759C11.5575 8.97259 11.865 9.24259 11.9775 9.59509C12.09 9.94759 12 10.3451 11.73 10.6751L11.2275 11.2826L11.2725 12.0701C11.295 12.4976 11.1375 12.8651 10.8375 13.0901C10.6575 13.2176 10.4475 13.2851 10.2225 13.2851ZM7.14 9.96259L7.64249 10.5701C7.81499 10.7726 7.91249 11.0951 7.89749 11.3576L7.8525 12.1451L8.58749 11.8526C8.83499 11.7551 9.165 11.7551 9.4125 11.8526L10.1475 12.1451L10.1025 11.3576C10.0875 11.0951 10.185 10.7801 10.3575 10.5701L10.86 9.96259L10.095 9.76759C9.83999 9.70009 9.56999 9.50509 9.42749 9.28759L9.0075 8.62759L8.57999 9.28759C8.43749 9.51259 8.1675 9.70759 7.9125 9.77509L7.14 9.96259Z" fill="#FA541C"/>
</g>
<defs>
<filter id="filter0_d_520_1424" x="-1" y="-0.9375" width="20" height="20" filterUnits="userSpaceOnUse" color-interpolation-filters="sRGB">
<feFlood flood-opacity="0" result="BackgroundImageFix"/>
<feColorMatrix in="SourceAlpha" type="matrix" values="0 0 0 0 0 0 0 0 0 0 0 0 0 0 0 0 0 0 127 0" result="hardAlpha"/>
<feOffset/>
<feGaussianBlur stdDeviation="0.5"/>
<feComposite in2="hardAlpha" operator="out"/>
<feColorMatrix type="matrix" values="0 0 0 0 0.980392 0 0 0 0 0.329412 0 0 0 0 0.109804 0 0 0 1 0"/>
<feBlend mode="normal" in2="BackgroundImageFix" result="effect1_dropShadow_520_1424"/>
<feBlend mode="normal" in="SourceGraphic" in2="effect1_dropShadow_520_1424" result="shape"/>
</filter>
</defs>
</svg>
