<svg width="18" height="19" viewBox="0 0 18 19" fill="none" xmlns="http://www.w3.org/2000/svg">
<g filter="url(#filter0_d_520_1447)">
<path d="M7.49244 17.1284C7.34244 17.1284 7.22244 17.0984 7.13244 17.0609C6.83244 16.9484 6.32244 16.5809 6.32244 15.4184V10.5809H4.56744C3.56244 10.5809 3.20244 10.1084 3.07494 9.83089C2.94744 9.54589 2.83494 8.96839 3.49494 8.21089L9.17244 1.76089C9.93744 0.890892 10.5599 0.950892 10.8599 1.06339C11.1599 1.17589 11.6699 1.54339 11.6699 2.70589V7.54339H13.4249C14.4299 7.54339 14.7899 8.01589 14.9174 8.29339C15.0449 8.57839 15.1574 9.15589 14.4974 9.91339L8.81994 16.3634C8.28744 16.9709 7.82244 17.1284 7.49244 17.1284ZM10.4474 2.12089C10.4249 2.15089 10.2674 2.22589 10.0199 2.51089L4.34244 8.96089C4.13244 9.20089 4.10244 9.35089 4.10244 9.38089C4.11744 9.38839 4.25244 9.46339 4.56744 9.46339H6.88494C7.19244 9.46339 7.44744 9.71839 7.44744 10.0259V15.4259C7.44744 15.8009 7.51494 15.9659 7.54494 16.0109C7.56744 15.9809 7.72494 15.9059 7.97244 15.6209L13.6499 9.17089C13.8599 8.93089 13.8899 8.78089 13.8899 8.75089C13.8749 8.74339 13.7399 8.66839 13.4249 8.66839H11.1074C10.7999 8.66839 10.5449 8.41339 10.5449 8.10589V2.70589C10.5524 2.33089 10.4774 2.17339 10.4474 2.12089Z" fill="#FA541C"/>
</g>
<defs>
<filter id="filter0_d_520_1447" x="-1" y="-0.933838" width="20" height="20" filterUnits="userSpaceOnUse" color-interpolation-filters="sRGB">
<feFlood flood-opacity="0" result="BackgroundImageFix"/>
<feColorMatrix in="SourceAlpha" type="matrix" values="0 0 0 0 0 0 0 0 0 0 0 0 0 0 0 0 0 0 127 0" result="hardAlpha"/>
<feOffset/>
<feGaussianBlur stdDeviation="0.5"/>
<feComposite in2="hardAlpha" operator="out"/>
<feColorMatrix type="matrix" values="0 0 0 0 0.980392 0 0 0 0 0.329412 0 0 0 0 0.109804 0 0 0 1 0"/>
<feBlend mode="normal" in2="BackgroundImageFix" result="effect1_dropShadow_520_1447"/>
<feBlend mode="normal" in="SourceGraphic" in2="effect1_dropShadow_520_1447" result="shape"/>
</filter>
</defs>
</svg>
