<svg width="75" height="30" viewBox="0 0 75 30" fill="none" xmlns="http://www.w3.org/2000/svg">
<path d="M0 0H59C67.8366 0 75 7.16344 75 16V30H16C7.16344 30 0 22.8366 0 14V0Z" fill="#FA541C"/>
<path d="M25.7139 10.4873V9.96094C25.7139 9.58268 25.7959 9.23861 25.96 8.92871C26.124 8.61882 26.3587 8.37044 26.6641 8.18359C26.9694 7.99674 27.3317 7.90332 27.751 7.90332C28.1794 7.90332 28.5439 7.99674 28.8447 8.18359C29.1501 8.37044 29.3848 8.61882 29.5488 8.92871C29.7129 9.23861 29.7949 9.58268 29.7949 9.96094V10.4873C29.7949 10.8564 29.7129 11.196 29.5488 11.5059C29.3893 11.8158 29.1569 12.0641 28.8516 12.251C28.5508 12.4378 28.1885 12.5312 27.7646 12.5312C27.3408 12.5312 26.974 12.4378 26.6641 12.251C26.3587 12.0641 26.124 11.8158 25.96 11.5059C25.7959 11.196 25.7139 10.8564 25.7139 10.4873ZM26.6641 9.96094V10.4873C26.6641 10.6969 26.7028 10.8952 26.7803 11.082C26.8623 11.2689 26.9854 11.4215 27.1494 11.54C27.3135 11.654 27.5186 11.7109 27.7646 11.7109C28.0107 11.7109 28.2135 11.654 28.373 11.54C28.5326 11.4215 28.651 11.2689 28.7285 11.082C28.806 10.8952 28.8447 10.6969 28.8447 10.4873V9.96094C28.8447 9.74674 28.8037 9.54622 28.7217 9.35938C28.6442 9.16797 28.5234 9.0153 28.3594 8.90137C28.1999 8.78288 27.9971 8.72363 27.751 8.72363C27.5094 8.72363 27.3066 8.78288 27.1426 8.90137C26.9831 9.0153 26.8623 9.16797 26.7803 9.35938C26.7028 9.54622 26.6641 9.74674 26.6641 9.96094ZM30.5605 16.0928V15.5596C30.5605 15.1859 30.6426 14.8441 30.8066 14.5342C30.9707 14.2243 31.2054 13.9759 31.5107 13.7891C31.8161 13.6022 32.1784 13.5088 32.5977 13.5088C33.026 13.5088 33.3906 13.6022 33.6914 13.7891C33.9967 13.9759 34.2314 14.2243 34.3955 14.5342C34.5596 14.8441 34.6416 15.1859 34.6416 15.5596V16.0928C34.6416 16.4665 34.5596 16.8083 34.3955 17.1182C34.236 17.4281 34.0036 17.6764 33.6982 17.8633C33.3975 18.0501 33.0352 18.1436 32.6113 18.1436C32.1875 18.1436 31.8229 18.0501 31.5176 17.8633C31.2122 17.6764 30.9753 17.4281 30.8066 17.1182C30.6426 16.8083 30.5605 16.4665 30.5605 16.0928ZM31.5107 15.5596V16.0928C31.5107 16.3024 31.5495 16.5029 31.627 16.6943C31.709 16.8812 31.832 17.0339 31.9961 17.1523C32.1602 17.2663 32.3652 17.3232 32.6113 17.3232C32.8574 17.3232 33.0602 17.2663 33.2197 17.1523C33.3838 17.0339 33.5046 16.8812 33.582 16.6943C33.6595 16.5075 33.6982 16.307 33.6982 16.0928V15.5596C33.6982 15.236 33.6071 14.9512 33.4248 14.7051C33.2471 14.4544 32.9714 14.3291 32.5977 14.3291C32.2331 14.3291 31.9596 14.4544 31.7773 14.7051C31.5996 14.9512 31.5107 15.236 31.5107 15.5596ZM32.9121 9.46191L28.0518 17.2412L27.3408 16.79L32.2012 9.01074L32.9121 9.46191ZM42.5986 16.9609V18H36.084V17.0908L39.3447 13.4609C39.7458 13.0143 40.0557 12.6361 40.2744 12.3262C40.4977 12.0117 40.6527 11.7314 40.7393 11.4854C40.8304 11.2347 40.876 10.9795 40.876 10.7197C40.876 10.2321 40.7256 9.8151 40.4248 9.46875C40.124 9.1224 39.6956 8.94922 39.1396 8.94922C38.6976 8.94922 38.3285 9.03581 38.0322 9.20898C37.7406 9.3776 37.5218 9.61458 37.376 9.91992C37.2301 10.2253 37.1572 10.5762 37.1572 10.9727H35.8926C35.8926 10.4121 36.0156 9.89941 36.2617 9.43457C36.5078 8.96973 36.8724 8.60059 37.3555 8.32715C37.8385 8.04915 38.4333 7.91016 39.1396 7.91016C40.0785 7.91016 40.8122 8.15397 41.3408 8.6416C41.874 9.12923 42.1406 9.77181 42.1406 10.5693C42.1406 10.9613 42.0563 11.3555 41.8877 11.752C41.7191 12.1484 41.4935 12.5426 41.2109 12.9346C40.9284 13.3219 40.6162 13.7002 40.2744 14.0693L37.6084 16.9609H42.5986ZM50.2002 12.2305V13.748C50.2002 14.8327 50.0726 15.6963 49.8174 16.3389C49.5622 16.9814 49.1999 17.4417 48.7305 17.7197C48.2611 17.9977 47.7051 18.1367 47.0625 18.1367C46.429 18.1367 45.8753 17.9977 45.4014 17.7197C44.9274 17.4417 44.5605 16.9814 44.3008 16.3389C44.041 15.6963 43.9111 14.8327 43.9111 13.748V12.2305C43.9111 11.1458 44.0387 10.2891 44.2939 9.66016C44.5537 9.03125 44.9183 8.58236 45.3877 8.31348C45.8617 8.0446 46.4154 7.91016 47.0488 7.91016C47.6914 7.91016 48.2474 8.0446 48.7168 8.31348C49.1908 8.58236 49.5553 9.03125 49.8105 9.66016C50.0703 10.2891 50.2002 11.1458 50.2002 12.2305ZM48.9287 13.9531V12.0186C48.9287 11.2712 48.8581 10.6719 48.7168 10.2207C48.5755 9.76953 48.3636 9.44368 48.0811 9.24316C47.8031 9.04264 47.459 8.94238 47.0488 8.94238C46.6478 8.94238 46.3083 9.04264 46.0303 9.24316C45.7523 9.44368 45.5404 9.76953 45.3945 10.2207C45.2533 10.6719 45.1826 11.2712 45.1826 12.0186V13.9531C45.1826 14.696 45.2555 15.2998 45.4014 15.7646C45.5472 16.2249 45.7591 16.5622 46.0371 16.7764C46.3197 16.9906 46.6615 17.0977 47.0625 17.0977C47.4772 17.0977 47.8213 16.9906 48.0947 16.7764C48.3727 16.5622 48.5801 16.2249 48.7168 15.7646C48.8581 15.2998 48.9287 14.696 48.9287 13.9531Z" fill="white"/>
</svg>
