<svg width="252" height="34" viewBox="0 0 252 34" fill="none" xmlns="http://www.w3.org/2000/svg">
<path d="M28.5 8H237.5" stroke="#CBCBCB" stroke-width="4" stroke-linecap="round"/>
<path d="M28.5 8H161.5" stroke="#032340" stroke-width="4" stroke-linecap="round"/>
<circle cx="22.5" cy="8" r="7.5" fill="#032340" stroke="#032340"/>
<circle cx="22.5" cy="8" r="4" fill="white"/>
<circle cx="161.5" cy="8" r="7.5" fill="#032340" stroke="#032340"/>
<circle cx="161.5" cy="8" r="4" fill="white"/>
<path d="M1.43359 20.8906H2.34668L4.67578 26.6865L7 20.8906H7.91797L5.02734 28H4.31445L1.43359 20.8906ZM1.13574 20.8906H1.94141L2.07324 25.2266V28H1.13574V20.8906ZM7.40527 20.8906H8.21094V28H7.27344V25.2266L7.40527 20.8906ZM10.7109 22.7168V28H9.80273V22.7168H10.7109ZM9.73438 21.3154C9.73438 21.1689 9.77832 21.0452 9.86621 20.9443C9.95736 20.8434 10.0908 20.793 10.2666 20.793C10.4391 20.793 10.571 20.8434 10.6621 20.9443C10.7565 21.0452 10.8037 21.1689 10.8037 21.3154C10.8037 21.4554 10.7565 21.5758 10.6621 21.6768C10.571 21.7744 10.4391 21.8232 10.2666 21.8232C10.0908 21.8232 9.95736 21.7744 9.86621 21.6768C9.77832 21.5758 9.73438 21.4554 9.73438 21.3154ZM13.0645 23.8447V28H12.1611V22.7168H13.0156L13.0645 23.8447ZM12.8496 25.1582L12.4736 25.1436C12.4801 24.6585 12.5729 24.2272 12.752 23.8496C12.931 23.4688 13.18 23.1693 13.499 22.9512C13.8213 22.7298 14.1956 22.6191 14.6221 22.6191C14.9704 22.6191 15.2699 22.6826 15.5205 22.8096C15.7744 22.9365 15.9697 23.1416 16.1064 23.4248C16.2464 23.7048 16.3164 24.0758 16.3164 24.5381V28H15.4082V24.5283C15.4082 24.2516 15.3675 24.0303 15.2861 23.8643C15.2048 23.695 15.0859 23.5729 14.9297 23.498C14.7734 23.4199 14.5814 23.3809 14.3535 23.3809C14.1289 23.3809 13.9238 23.4281 13.7383 23.5225C13.556 23.6169 13.3981 23.7471 13.2646 23.9131C13.1344 24.0791 13.0319 24.2695 12.957 24.4844C12.8854 24.696 12.8496 24.9206 12.8496 25.1582Z" fill="#000306"/>
<path d="M233.992 20.8906H234.905L237.234 26.6865L239.559 20.8906H240.477L237.586 28H236.873L233.992 20.8906ZM233.694 20.8906H234.5L234.632 25.2266V28H233.694V20.8906ZM239.964 20.8906H240.77V28H239.832V25.2266L239.964 20.8906ZM245.403 27.0967V24.377C245.403 24.0645 245.309 23.8154 245.12 23.6299C244.935 23.4411 244.658 23.3467 244.29 23.3467C244.062 23.3467 243.862 23.3857 243.689 23.4639C243.52 23.542 243.387 23.6445 243.289 23.7715C243.195 23.8984 243.147 24.0352 243.147 24.1816H242.244C242.244 23.9277 242.33 23.682 242.503 23.4443C242.675 23.2035 242.918 23.0065 243.23 22.8535C243.546 22.6973 243.917 22.6191 244.344 22.6191C244.728 22.6191 245.066 22.6842 245.359 22.8145C245.656 22.9447 245.887 23.1416 246.053 23.4053C246.222 23.6657 246.307 23.9928 246.307 24.3867V26.8477C246.307 27.0234 246.321 27.2106 246.351 27.4092C246.383 27.6077 246.43 27.7786 246.492 27.9219V28H245.55C245.504 27.8958 245.468 27.7575 245.442 27.585C245.416 27.4092 245.403 27.2464 245.403 27.0967ZM245.56 24.7969L245.569 25.4316H244.656C244.139 25.4316 243.74 25.513 243.46 25.6758C243.18 25.8353 243.04 26.0794 243.04 26.4082C243.04 26.6589 243.125 26.8721 243.294 27.0479C243.463 27.2204 243.715 27.3066 244.051 27.3066C244.327 27.3066 244.572 27.248 244.783 27.1309C244.995 27.0137 245.162 26.8704 245.286 26.7012C245.413 26.5319 245.481 26.3675 245.491 26.208L245.877 26.6426C245.854 26.7793 245.792 26.9307 245.691 27.0967C245.59 27.2627 245.455 27.4222 245.286 27.5752C245.12 27.7249 244.922 27.8503 244.69 27.9512C244.463 28.0488 244.205 28.0977 243.919 28.0977C243.561 28.0977 243.247 28.0277 242.977 27.8877C242.71 27.7477 242.501 27.5605 242.352 27.3262C242.205 27.0885 242.132 26.8232 242.132 26.5303C242.132 25.9639 242.347 25.5342 242.776 25.2412C243.206 24.945 243.784 24.7969 244.51 24.7969H245.56ZM248.338 22.7168L249.495 24.6406L250.667 22.7168H251.727L249.998 25.3242L251.78 28H250.735L249.515 26.0176L248.294 28H247.244L249.021 25.3242L247.298 22.7168H248.338Z" fill="#000306"/>
</svg>
