<svg width="26" height="25" viewBox="0 0 26 25" fill="none" xmlns="http://www.w3.org/2000/svg">
<path d="M18.8023 0H6.27548C2.81469 0 0 2.81461 0 6.2753V17.7353C0 21.196 2.81469 24.0106 6.27548 24.0106H18.8023C22.263 24.0106 25.0777 21.196 25.0777 17.7353V6.2753C25.0777 2.81461 22.263 0 18.8023 0ZM2.21352 6.2753C2.21352 4.03535 4.03547 2.21346 6.27548 2.21346H18.8023C21.0423 2.21346 22.8642 4.03535 22.8642 6.2753V17.7353C22.8642 19.9752 21.0423 21.7971 18.8023 21.7971H6.27548C4.03547 21.7971 2.21352 19.9752 2.21352 17.7353V6.2753Z" fill="white"/>
<path d="M12.539 17.8436C15.758 17.8436 18.3769 15.2247 18.3769 12.0059C18.3769 8.78705 15.758 6.16821 12.539 6.16821C9.3201 6.16821 6.70117 8.78705 6.70117 12.0059C6.70117 15.2247 9.3201 17.8436 12.539 17.8436ZM12.539 8.38282C14.5372 8.38282 16.1622 10.0078 16.1622 12.0059C16.1622 14.004 14.5372 15.629 12.539 15.629C10.5409 15.629 8.91584 14.004 8.91584 12.0059C8.91584 10.0078 10.5409 8.38282 12.539 8.38282Z" fill="white"/>
<path d="M18.9174 7.11113C19.7846 7.11113 20.4906 6.40517 20.4906 5.53799C20.4906 4.6708 19.7846 3.96484 18.9174 3.96484C18.0502 3.96484 17.3442 4.6708 17.3442 5.53799C17.3442 6.40517 18.0502 7.11113 18.9174 7.11113Z" fill="white"/>
</svg>
