<svg width="161" height="16" viewBox="0 0 161 16" fill="none" xmlns="http://www.w3.org/2000/svg">
<path d="M21.3386 3.37848C21.6191 2.84672 22.3807 2.84672 22.6613 3.37848L23.866 5.66189C23.9742 5.86695 24.1714 6.01023 24.3999 6.04976L26.9438 6.48992C27.5362 6.59243 27.7716 7.31672 27.3525 7.74787L25.5532 9.59927C25.3916 9.76553 25.3162 9.99736 25.3492 10.2269L25.7167 12.7823C25.8023 13.3774 25.1862 13.825 24.6467 13.5598L22.3299 12.4206C22.1218 12.3183 21.878 12.3183 21.67 12.4206L19.3532 13.5598C18.8136 13.825 18.1975 13.3774 18.2831 12.7823L18.6506 10.2269C18.6836 9.99736 18.6083 9.76553 18.4467 9.59927L16.6473 7.74787C16.2283 7.31672 16.4636 6.59243 17.056 6.48992L19.6 6.04976C19.8284 6.01023 20.0256 5.86695 20.1338 5.66189L21.3386 3.37848Z" fill="#FF991F"/>
<path d="M39.3386 3.37848C39.6191 2.84672 40.3807 2.84672 40.6613 3.37848L41.866 5.66189C41.9742 5.86695 42.1714 6.01023 42.3999 6.04976L44.9438 6.48992C45.5362 6.59243 45.7716 7.31672 45.3525 7.74787L43.5532 9.59927C43.3916 9.76553 43.3162 9.99736 43.3492 10.2269L43.7167 12.7823C43.8023 13.3774 43.1862 13.825 42.6467 13.5598L40.3299 12.4206C40.1218 12.3183 39.878 12.3183 39.67 12.4206L37.3532 13.5598C36.8136 13.825 36.1975 13.3774 36.2831 12.7823L36.6506 10.2269C36.6836 9.99736 36.6083 9.76553 36.4467 9.59927L34.6473 7.74787C34.2283 7.31672 34.4636 6.59243 35.056 6.48992L37.6 6.04976C37.8284 6.01023 38.0256 5.86695 38.1338 5.66189L39.3386 3.37848Z" fill="#FF991F"/>
<path d="M57.3386 3.37848C57.6191 2.84672 58.3807 2.84672 58.6613 3.37848L59.866 5.66189C59.9742 5.86695 60.1714 6.01023 60.3999 6.04976L62.9438 6.48992C63.5362 6.59243 63.7716 7.31672 63.3525 7.74787L61.5532 9.59927C61.3916 9.76553 61.3162 9.99736 61.3492 10.2269L61.7167 12.7823C61.8023 13.3774 61.1862 13.825 60.6467 13.5598L58.3299 12.4206C58.1218 12.3183 57.878 12.3183 57.67 12.4206L55.3532 13.5598C54.8136 13.825 54.1975 13.3774 54.2831 12.7823L54.6506 10.2269C54.6836 9.99736 54.6083 9.76553 54.4467 9.59927L52.6473 7.74787C52.2283 7.31672 52.4636 6.59243 53.056 6.48992L55.6 6.04976C55.8284 6.01023 56.0256 5.86695 56.1338 5.66189L57.3386 3.37848Z" fill="#FF991F"/>
<path d="M75.3386 3.37848C75.6191 2.84672 76.3807 2.84672 76.6613 3.37848L77.866 5.66189C77.9742 5.86695 78.1714 6.01023 78.3999 6.04976L80.9438 6.48992C81.5362 6.59243 81.7716 7.31672 81.3525 7.74787L79.5532 9.59927C79.3916 9.76553 79.3162 9.99736 79.3492 10.2269L79.7167 12.7823C79.8023 13.3774 79.1862 13.825 78.6467 13.5598L76.3299 12.4206C76.1218 12.3183 75.878 12.3183 75.67 12.4206L73.3532 13.5598C72.8136 13.825 72.1975 13.3774 72.2831 12.7823L72.6506 10.2269C72.6836 9.99736 72.6083 9.76553 72.4467 9.59927L70.6473 7.74787C70.2283 7.31672 70.4636 6.59243 71.056 6.48992L73.6 6.04976C73.8284 6.01023 74.0256 5.86695 74.1338 5.66189L75.3386 3.37848Z" fill="#CBCBCB"/>
<path d="M93.3386 3.37848C93.6191 2.84672 94.3807 2.84672 94.6613 3.37848L95.866 5.66189C95.9742 5.86695 96.1714 6.01023 96.3999 6.04976L98.9438 6.48992C99.5362 6.59243 99.7716 7.31672 99.3525 7.74787L97.5532 9.59927C97.3916 9.76553 97.3162 9.99736 97.3492 10.2269L97.7167 12.7823C97.8023 13.3774 97.1862 13.825 96.6467 13.5598L94.3299 12.4206C94.1218 12.3183 93.878 12.3183 93.67 12.4206L91.3532 13.5598C90.8136 13.825 90.1975 13.3774 90.2831 12.7823L90.6506 10.2269C90.6836 9.99736 90.6083 9.76553 90.4467 9.59927L88.6473 7.74787C88.2283 7.31672 88.4636 6.59243 89.056 6.48992L91.6 6.04976C91.8284 6.01023 92.0256 5.86695 92.1338 5.66189L93.3386 3.37848Z" fill="#CBCBCB"/>
</svg>
