<svg width="25" height="21" viewBox="0 0 25 21" fill="none" xmlns="http://www.w3.org/2000/svg">
<path d="M0.643777 9.32171C0.70021 9.29292 0.756638 9.26643 0.81307 9.2411C1.77472 8.79541 2.74904 8.37852 3.7222 7.96163C3.77518 7.96163 3.86385 7.90174 3.91222 7.87986C3.98708 7.84762 4.06193 7.81536 4.13794 7.78311C4.2819 7.72093 4.42701 7.65989 4.57097 7.5977C4.86004 7.47448 5.14797 7.3501 5.43704 7.22688C6.01403 6.98043 6.59217 6.73281 7.16916 6.48521C8.32429 5.99116 9.47943 5.4971 10.6346 5.00305C11.7897 4.50899 12.9448 4.01494 14.0999 3.52088C15.2551 3.02683 16.4102 2.53278 17.5653 2.03872C18.7205 1.54467 19.8756 1.05061 21.0307 0.556558C21.2876 0.447152 21.5662 0.281322 21.8403 0.232953C22.0718 0.192646 22.2976 0.112025 22.529 0.0682622C22.9701 -0.0158077 23.4573 -0.0503502 23.88 0.132761C24.0262 0.196101 24.1598 0.285921 24.2738 0.39763C24.8094 0.928538 24.7345 1.79918 24.6217 2.54545C23.8316 7.74626 23.0415 12.9459 22.2503 18.1467C22.1421 18.8596 21.9958 19.6427 21.4315 20.093C20.9547 20.4742 20.2764 20.518 19.689 20.3556C19.1005 20.1932 18.5811 19.8512 18.0721 19.5137C15.9599 18.1157 13.8477 16.7164 11.7355 15.3183C11.2334 14.9855 10.6749 14.5525 10.6806 13.9502C10.6841 13.5874 10.9006 13.2638 11.1217 12.9759C12.9563 10.5828 15.6063 8.93707 17.5757 6.65336C17.8533 6.33205 18.0721 5.74931 17.6909 5.5639C17.464 5.45334 17.2026 5.60306 16.9964 5.74702C14.3925 7.55625 11.7885 9.36548 9.18459 11.1736C8.33466 11.7632 7.44441 12.3713 6.42057 12.5164C5.50499 12.6465 4.58251 12.392 3.69572 12.1306C2.95289 11.9118 2.2112 11.6883 1.47183 11.4569C1.0791 11.3348 0.673706 11.2035 0.369664 10.926C0.0656217 10.6496 -0.108288 10.1843 0.0748284 9.81577C0.188844 9.58429 0.412293 9.43804 0.646083 9.31942L0.643777 9.32171Z" fill="white"/>
</svg>
