<svg width="26" height="19" viewBox="0 0 26 19" fill="none" xmlns="http://www.w3.org/2000/svg">
<path d="M25.6411 4.9643C25.4833 3.38917 25.1412 1.64966 23.8836 0.734381C22.9081 0.0248621 21.6275 -0.00114893 20.432 3.35985e-05C17.9041 0.00239866 15.3762 0.00477065 12.8482 0.00713571C10.4171 0.00950078 7.98589 0.0118583 5.5547 0.0142234C4.53892 0.0142234 3.55193 -0.0661881 2.6087 0.384356C1.79792 0.772226 1.16449 1.50895 0.78444 2.32844C0.25467 3.46959 0.142972 4.76091 0.0796296 6.02267C-0.0378413 8.31915 -0.025165 10.6227 0.116491 12.9168C0.21899 14.5925 0.480405 16.4431 1.74149 17.511C2.85977 18.457 4.43756 18.5031 5.88637 18.5043C10.4885 18.5078 15.0906 18.5114 19.6927 18.5161C20.2823 18.5161 20.8985 18.5055 21.4996 18.4381C22.6836 18.3068 23.811 17.9591 24.5711 17.0592C25.3382 16.1522 25.5351 14.8881 25.6526 13.6926C25.9359 10.793 25.9324 7.86268 25.6411 4.9643ZM10.1867 13.3248V5.19135L17.0473 9.25807L10.1867 13.3248Z" fill="white"/>
</svg>
