<svg width="21" height="21" viewBox="0 0 21 21" fill="none" xmlns="http://www.w3.org/2000/svg">
<path d="M10.1933 18.0503C10.0319 18.0503 9.87049 17.9909 9.74308 17.8634L4.58709 12.7075C4.34076 12.4611 4.34076 12.0534 4.58709 11.8071C4.83343 11.5607 5.24115 11.5607 5.48748 11.8071L10.1933 16.5129L14.8991 11.8071C15.1454 11.5607 15.5531 11.5607 15.7995 11.8071C16.0458 12.0534 16.0458 12.4611 15.7995 12.7075L10.6435 17.8634C10.5161 17.9909 10.3547 18.0503 10.1933 18.0503Z" fill="#032340"/>
<path d="M10.1927 17.9058C9.84447 17.9058 9.55566 17.617 9.55566 17.2688V2.973C9.55566 2.62474 9.84447 2.33594 10.1927 2.33594C10.541 2.33594 10.8298 2.62474 10.8298 2.973V17.2688C10.8298 17.617 10.541 17.9058 10.1927 17.9058Z" fill="#032340"/>
</svg>
