<svg width="266" height="34" viewBox="0 0 266 34" fill="none" xmlns="http://www.w3.org/2000/svg">
<path d="M0 6.79537C0 3.04239 3.04239 0 6.79537 0H259.073C262.826 0 265.869 3.04239 265.869 6.79537V27.1815C265.869 30.9345 262.826 33.9769 259.073 33.9769H6.79538C3.0424 33.9769 0 30.9345 0 27.1815V6.79537Z" fill="#FA541C"/>
<path d="M76.2632 17.3749C76.2632 17.2743 76.24 17.1446 76.1935 16.9859C76.1509 16.8233 76.0987 16.6723 76.0367 16.533L75.009 14.2045L75.9148 13.7806L77.2329 16.8814C77.411 17.2994 77.5658 17.6207 77.6974 17.8453C77.8329 18.0698 77.9645 18.2246 78.0923 18.3098C78.2239 18.3911 78.3729 18.4317 78.5394 18.4317H78.7833V19.4885H78.5394C78.2336 19.4885 77.9839 19.4518 77.7903 19.3782C77.6007 19.3047 77.4361 19.1943 77.2968 19.0472C77.1574 18.9001 77.0161 18.7143 76.8729 18.4898C76.691 18.7182 76.4761 18.9059 76.2284 19.053C75.9845 19.2001 75.7 19.3085 75.3748 19.3782C75.0535 19.4479 74.6838 19.4827 74.2657 19.4827C73.9948 19.4827 73.7509 19.4711 73.5341 19.4479C73.3173 19.4208 73.1122 19.384 72.9186 19.3376V18.2866C73.1547 18.3408 73.3735 18.3814 73.5747 18.4085C73.7799 18.4317 73.9812 18.4433 74.1786 18.4433C74.647 18.4433 75.0341 18.4027 75.34 18.3214C75.6496 18.2401 75.88 18.1201 76.0309 17.9614C76.1858 17.8027 76.2632 17.6072 76.2632 17.3749ZM78.5452 18.4317H79.0097V19.4885H78.5452V18.4317ZM80.6414 20.4118L81.4543 21.2189L80.6414 22.0376L79.8343 21.2189L80.6414 20.4118ZM78.7136 20.4118L79.5265 21.2189L78.7136 22.0376L77.9065 21.2189L78.7136 20.4118ZM79.8168 19.4885H78.8704V18.4317H79.8052C80.1923 18.4317 80.4536 18.3195 80.5891 18.0949C80.7285 17.8704 80.7981 17.5859 80.7981 17.2414C80.7981 16.9898 80.7749 16.7207 80.7285 16.4343C80.682 16.1478 80.6317 15.8594 80.5775 15.5691L81.5878 15.3136C81.6537 15.6233 81.7059 15.9271 81.7446 16.2252C81.7833 16.5233 81.8027 16.8078 81.8027 17.0788C81.8027 17.5433 81.7388 17.9575 81.6111 18.3214C81.4833 18.6853 81.2743 18.9717 80.984 19.1808C80.6936 19.3859 80.3046 19.4885 79.8168 19.4885ZM86.9299 19.4885C86.6628 19.4885 86.4383 19.4537 86.2563 19.384C86.0783 19.3105 85.9389 19.233 85.8383 19.1517C85.7802 19.6589 85.6389 20.1485 85.4144 20.6208C85.1937 21.097 84.8608 21.5112 84.4157 21.8634C83.9705 22.2157 83.3821 22.4634 82.6504 22.6067L82.3079 21.6892C82.9388 21.5537 83.4421 21.3466 83.8176 21.0679C84.1931 20.7931 84.464 20.4621 84.6305 20.075C84.8008 19.6879 84.886 19.2601 84.886 18.7917C84.886 18.4627 84.8492 18.1182 84.7757 17.7582C84.706 17.3943 84.6073 17.0246 84.4795 16.6491L85.4434 16.3239L85.757 17.5375C85.8421 17.8627 85.9776 18.093 86.1634 18.2285C86.3492 18.364 86.5834 18.4317 86.866 18.4317H87.0867V19.4885H86.9299ZM90.4777 12.1142L91.3197 12.9561L90.4777 13.7981L89.6358 12.9561L90.4777 12.1142ZM86.8602 18.4317H87.8473C88.3003 18.4317 88.7164 18.3911 89.0958 18.3098C89.4751 18.2285 89.8448 18.1162 90.2048 17.973C90.5687 17.8298 90.9481 17.6614 91.3429 17.4678C91.7416 17.2704 92.1868 17.0594 92.6784 16.8349C92.4036 16.7343 92.1191 16.6259 91.8249 16.5097C91.5307 16.3897 91.25 16.2775 90.9829 16.173C90.7197 16.0684 90.4893 15.9833 90.2919 15.9175C90.0945 15.8478 89.9551 15.813 89.8738 15.813C89.6377 15.813 89.4287 15.8826 89.2467 16.022C89.0687 16.1575 88.9041 16.322 88.7532 16.5156L88.5964 16.713L87.708 16.2775L87.7951 16.1381C88.0506 15.7239 88.3467 15.3929 88.6835 15.1452C89.0242 14.8936 89.4229 14.7678 89.8797 14.7678C90.0732 14.7678 90.3035 14.8162 90.5706 14.9129C90.8377 15.0097 91.13 15.1316 91.4474 15.2787C91.7649 15.422 92.0939 15.5691 92.4346 15.72C92.7752 15.8671 93.1159 15.993 93.4565 16.0975C93.7972 16.1981 94.1223 16.2543 94.432 16.2659V17.2704C94.2694 17.2898 94.0759 17.3362 93.8514 17.4098C93.6268 17.4794 93.3617 17.584 93.0559 17.7233C92.75 17.8627 92.392 18.0407 91.9816 18.2575C91.4861 18.5208 91.0255 18.7453 90.5997 18.9311C90.1777 19.113 89.7461 19.2524 89.3048 19.3492C88.8674 19.4421 88.3757 19.4885 87.8299 19.4885H86.8602V18.4317ZM102.056 17.3749C102.056 17.2743 102.033 17.1446 101.986 16.9859C101.944 16.8233 101.892 16.6723 101.83 16.533L100.802 14.2045L101.708 13.7806L103.026 16.8814C103.204 17.2994 103.359 17.6207 103.49 17.8453C103.626 18.0698 103.757 18.2246 103.885 18.3098C104.017 18.3911 104.166 18.4317 104.332 18.4317H104.576V19.4885H104.332C104.026 19.4885 103.777 19.4518 103.583 19.3782C103.394 19.3047 103.229 19.1943 103.09 19.0472C102.95 18.9001 102.809 18.7143 102.666 18.4898C102.484 18.7182 102.269 18.9059 102.021 19.053C101.777 19.2001 101.493 19.3085 101.168 19.3782C100.846 19.4479 100.477 19.4827 100.059 19.4827C99.7876 19.4827 99.5438 19.4711 99.327 19.4479C99.1102 19.4208 98.905 19.384 98.7115 19.3376V18.2866C98.9476 18.3408 99.1663 18.3814 99.3676 18.4085C99.5728 18.4317 99.7741 18.4433 99.9715 18.4433C100.44 18.4433 100.827 18.4027 101.133 18.3214C101.443 18.2401 101.673 18.1201 101.824 17.9614C101.979 17.8027 102.056 17.6072 102.056 17.3749ZM104.344 18.4317H104.623V19.4885H104.344V18.4317ZM105.54 20.3769L106.382 21.2189L105.54 22.0608L104.698 21.2189L105.54 20.3769ZM106.341 16.0568L107.311 15.9407L107.404 17.2994C107.419 17.5472 107.474 17.7562 107.567 17.9266C107.659 18.093 107.789 18.2188 107.956 18.304C108.126 18.3891 108.335 18.4317 108.583 18.4317H108.705V19.4885H108.571C108.285 19.4885 108.037 19.4537 107.828 19.384C107.619 19.3143 107.441 19.2137 107.294 19.0821C107.147 18.9504 107.021 18.7898 106.916 18.6001C106.707 18.9059 106.432 19.1305 106.092 19.2737C105.751 19.4169 105.395 19.4885 105.023 19.4885H104.466V18.4317H105.023C105.515 18.4317 105.865 18.3214 106.074 18.1008C106.287 17.8801 106.394 17.5414 106.394 17.0846C106.394 16.8988 106.388 16.7227 106.376 16.5562C106.368 16.3897 106.357 16.2233 106.341 16.0568ZM112.52 19.4885C112.074 19.4885 111.73 19.413 111.486 19.2621C111.246 19.1072 111.054 18.8866 110.911 18.6001C110.729 18.8866 110.497 19.1072 110.214 19.2621C109.932 19.413 109.529 19.4885 109.007 19.4885H108.472V18.4317H109.018C109.351 18.4317 109.622 18.393 109.831 18.3156C110.04 18.2343 110.195 18.1008 110.296 17.9149C110.396 17.7291 110.447 17.4736 110.447 17.1485C110.447 17.0788 110.445 17.0033 110.441 16.922C110.437 16.8407 110.431 16.7439 110.423 16.6317C110.416 16.5156 110.404 16.3762 110.389 16.2136L111.358 16.0917L111.451 17.3052C111.474 17.6304 111.573 17.8995 111.747 18.1124C111.925 18.3253 112.187 18.4317 112.531 18.4317C112.941 18.4317 113.22 18.3214 113.367 18.1008C113.514 17.8801 113.588 17.5627 113.588 17.1485C113.588 17.0788 113.586 17.0033 113.582 16.922C113.578 16.8407 113.572 16.7439 113.565 16.6317C113.557 16.5156 113.545 16.3762 113.53 16.2136L114.5 16.0917L114.593 17.3052C114.612 17.6188 114.695 17.8859 114.842 18.1066C114.989 18.3233 115.227 18.4317 115.556 18.4317C115.769 18.4317 115.936 18.3775 116.056 18.2691C116.18 18.1569 116.267 18.0098 116.317 17.8278C116.371 17.642 116.398 17.4427 116.398 17.2298C116.398 17.0362 116.385 16.8407 116.358 16.6433C116.331 16.4459 116.3 16.2601 116.265 16.0859C116.23 15.9078 116.197 15.7588 116.166 15.6388L117.159 15.3717C117.229 15.631 117.285 15.9078 117.327 16.202C117.37 16.4923 117.391 16.7827 117.391 17.073C117.391 17.4911 117.333 17.884 117.217 18.2517C117.101 18.6195 116.909 18.9175 116.642 19.1459C116.379 19.3705 116.019 19.4847 115.562 19.4885C115.191 19.4885 114.891 19.4111 114.662 19.2563C114.434 19.1014 114.248 18.8827 114.105 18.6001C113.888 18.9137 113.646 19.1401 113.379 19.2795C113.116 19.4188 112.829 19.4885 112.52 19.4885ZM127.245 19.4885C126.866 19.4885 126.542 19.4285 126.275 19.3085C126.012 19.1885 125.799 19.0163 125.637 18.7917C125.478 18.5633 125.368 18.2943 125.306 17.9846C125.081 18.2091 124.837 18.3814 124.574 18.5014C124.315 18.6214 124.022 18.6814 123.697 18.6814C123.144 18.6814 122.679 18.5324 122.304 18.2343C121.928 17.9362 121.74 17.524 121.74 16.9975C121.74 16.6994 121.8 16.4226 121.92 16.1672C122.04 15.9117 122.224 15.6736 122.472 15.4529C122.72 15.2323 123.033 15.0291 123.413 14.8433C123.796 14.6536 124.249 14.4774 124.771 14.3149L124.731 14.0361L125.66 13.8503L126.165 17.4156C126.211 17.7562 126.322 18.0117 126.496 18.182C126.674 18.3485 126.932 18.4317 127.268 18.4317H127.448V19.4885H127.245ZM125.073 16.5678C125.073 16.5097 125.071 16.4536 125.068 16.3994C125.064 16.3452 125.058 16.2872 125.05 16.2252L124.905 15.2555C124.53 15.391 124.204 15.5265 123.93 15.662C123.659 15.7936 123.436 15.9271 123.262 16.0626C123.088 16.1943 122.958 16.3317 122.873 16.4749C122.791 16.6143 122.751 16.7633 122.751 16.922C122.751 17.1775 122.838 17.3711 123.012 17.5027C123.186 17.6343 123.422 17.7001 123.72 17.7001C123.949 17.7001 124.166 17.6556 124.371 17.5665C124.58 17.4775 124.748 17.3478 124.876 17.1775C125.008 17.0072 125.073 16.8039 125.073 16.5678ZM127.21 18.4317H127.489V19.4885H127.21V18.4317ZM128.406 20.3769L129.248 21.2189L128.406 22.0608L127.564 21.2189L128.406 20.3769ZM128.279 19.4885H127.332V18.4317H128.267C128.654 18.4317 128.915 18.3195 129.051 18.0949C129.19 17.8704 129.26 17.5859 129.26 17.2414C129.26 16.9898 129.237 16.7207 129.19 16.4343C129.144 16.1478 129.093 15.8594 129.039 15.5691L130.05 15.3136C130.115 15.6233 130.168 15.9271 130.206 16.2252C130.245 16.5233 130.264 16.8078 130.264 17.0788C130.264 17.5433 130.201 17.9575 130.073 18.3214C129.945 18.6853 129.736 18.9717 129.446 19.1808C129.155 19.3859 128.766 19.4885 128.279 19.4885ZM137.964 14.5587L138.806 15.4007L137.964 16.2426L137.122 15.4007L137.964 14.5587ZM138.034 21.0099C138.68 21.0099 139.18 20.9034 139.532 20.6905C139.888 20.4815 140.136 20.2047 140.275 19.8601C140.418 19.5195 140.49 19.1537 140.49 18.7627C140.49 18.302 140.428 17.8472 140.304 17.3982C140.18 16.9491 140.064 16.5814 139.956 16.2949L140.949 15.8942C141.131 16.3936 141.268 16.8794 141.361 17.3517C141.458 17.8201 141.506 18.2672 141.506 18.693C141.506 19.3472 141.384 19.9279 141.14 20.435C140.9 20.9421 140.525 21.3389 140.014 21.6254C139.503 21.9118 138.843 22.055 138.034 22.055C137.198 22.055 136.528 21.9021 136.025 21.5963C135.525 21.2905 135.163 20.8821 134.939 20.3711C134.718 19.864 134.608 19.3066 134.608 18.6988C134.608 18.2885 134.65 17.8685 134.736 17.4388C134.821 17.0052 134.937 16.5833 135.084 16.173L136.007 16.5446C135.895 16.9007 135.8 17.2665 135.723 17.642C135.645 18.0175 135.607 18.3814 135.607 18.7337C135.607 19.1517 135.68 19.533 135.827 19.8776C135.978 20.2221 136.23 20.4969 136.582 20.7021C136.934 20.9073 137.418 21.0099 138.034 21.0099ZM143.974 18.4433C144.477 18.4433 144.893 18.4008 145.222 18.3156C145.551 18.2266 145.797 18.0969 145.96 17.9266C146.122 17.7562 146.204 17.5433 146.204 17.2878C146.204 17.044 146.122 16.7923 145.96 16.533C145.797 16.2736 145.54 16.0026 145.187 15.72C144.835 15.4336 144.373 15.1336 143.8 14.82L144.258 13.9026C144.754 14.1581 145.186 14.4194 145.553 14.6865C145.925 14.9536 146.231 15.2284 146.471 15.511C146.715 15.7936 146.897 16.082 147.017 16.3762C147.137 16.6665 147.197 16.9646 147.197 17.2704C147.197 17.7543 147.086 18.1608 146.866 18.4898C146.645 18.8188 146.304 19.0666 145.844 19.233C145.383 19.3956 144.789 19.4769 144.061 19.4769C143.809 19.4769 143.564 19.4653 143.324 19.4421C143.087 19.4188 142.865 19.384 142.656 19.3376V18.2866C142.907 18.3369 143.142 18.3756 143.358 18.4027C143.579 18.4298 143.784 18.4433 143.974 18.4433ZM152.481 18.4956C152.481 19.2466 152.341 19.8989 152.062 20.4524C151.788 21.0099 151.373 21.4666 150.82 21.8228C150.27 22.1828 149.583 22.4421 148.758 22.6009L148.416 21.6776C149.012 21.5615 149.527 21.397 149.96 21.184C150.398 20.9711 150.746 20.7079 151.006 20.3944C151.265 20.0847 151.426 19.7305 151.488 19.3317C151.34 19.3782 151.17 19.4188 150.977 19.4537C150.783 19.4885 150.613 19.5059 150.466 19.5059C149.769 19.5059 149.24 19.3569 148.88 19.0588C148.524 18.7608 148.346 18.3098 148.346 17.7059C148.346 17.4194 148.389 17.133 148.474 16.8465C148.563 16.5562 148.691 16.291 148.857 16.051C149.028 15.8071 149.235 15.6117 149.479 15.4646C149.722 15.3175 149.999 15.2439 150.309 15.2439C150.677 15.2439 150.996 15.3349 151.267 15.5168C151.542 15.6988 151.768 15.9446 151.946 16.2543C152.124 16.5639 152.258 16.9123 152.347 17.2994C152.436 17.6865 152.481 18.0853 152.481 18.4956ZM150.495 18.455C150.657 18.455 150.826 18.4433 151 18.4201C151.174 18.393 151.344 18.3543 151.511 18.304C151.491 17.9788 151.451 17.6924 151.389 17.4446C151.331 17.193 151.251 16.982 151.151 16.8117C151.05 16.6375 150.928 16.5078 150.785 16.4226C150.646 16.3336 150.483 16.2891 150.297 16.2891C150.042 16.2891 149.842 16.3685 149.699 16.5272C149.56 16.6859 149.461 16.8736 149.403 17.0904C149.349 17.3033 149.322 17.4969 149.322 17.6711C149.322 17.9536 149.418 18.1549 149.612 18.2749C149.806 18.395 150.1 18.455 150.495 18.455ZM155.279 13.5135L156.121 14.3555L155.279 15.1975L154.437 14.3555L155.279 13.5135ZM157.434 19.4885C157.166 19.4885 156.942 19.4537 156.76 19.384C156.582 19.3105 156.443 19.233 156.342 19.1517C156.284 19.6589 156.143 20.1485 155.918 20.6208C155.697 21.097 155.364 21.5112 154.919 21.8634C154.474 22.2157 153.886 22.4634 153.154 22.6067L152.811 21.6892C153.442 21.5537 153.946 21.3466 154.321 21.0679C154.697 20.7931 154.968 20.4621 155.134 20.075C155.304 19.6879 155.39 19.2601 155.39 18.7917C155.39 18.4627 155.353 18.1182 155.279 17.7582C155.21 17.3943 155.111 17.0246 154.983 16.6491L155.947 16.3239L156.261 17.5375C156.346 17.8627 156.481 18.093 156.667 18.2285C156.853 18.364 157.087 18.4317 157.37 18.4317H157.59V19.4885H157.434ZM160.012 10.7612L160.854 11.6032L160.012 12.4451L159.17 11.6032L160.012 10.7612ZM160.285 16.3994C160.463 16.3994 160.639 16.3839 160.813 16.353C160.991 16.3181 161.169 16.2755 161.347 16.2252C161.324 16.0201 161.285 15.811 161.231 15.5981C161.181 15.3813 161.109 15.182 161.016 15C160.927 14.8181 160.813 14.671 160.674 14.5587C160.534 14.4465 160.362 14.3903 160.157 14.3903C159.917 14.3903 159.723 14.4658 159.576 14.6168C159.433 14.7678 159.328 14.9478 159.263 15.1568C159.201 15.3658 159.17 15.5594 159.17 15.7375C159.17 16.0046 159.265 16.1826 159.454 16.2717C159.648 16.3568 159.925 16.3994 160.285 16.3994ZM159.57 18.4317C160.008 18.4317 160.36 18.4066 160.627 18.3562C160.898 18.3059 161.096 18.1956 161.219 18.0253C161.347 17.8511 161.411 17.582 161.411 17.2181C161.221 17.2762 161.028 17.3207 160.83 17.3517C160.637 17.3827 160.428 17.3982 160.203 17.3982C159.549 17.3982 159.056 17.2627 158.723 16.9917C158.394 16.7207 158.229 16.3162 158.229 15.7781C158.229 15.4065 158.303 15.0349 158.45 14.6632C158.601 14.2916 158.821 13.9819 159.112 13.7342C159.402 13.4826 159.754 13.3568 160.168 13.3568C160.548 13.3568 160.873 13.4535 161.144 13.6471C161.419 13.8406 161.643 14.1019 161.818 14.431C161.996 14.7562 162.127 15.1258 162.212 15.54C162.298 15.9504 162.34 16.3743 162.34 16.8117C162.34 17.3885 162.288 17.8549 162.183 18.2111C162.083 18.5633 161.92 18.8324 161.696 19.0182C161.471 19.2001 161.179 19.324 160.819 19.3898C160.459 19.4556 160.019 19.4885 159.501 19.4885H157.364V18.4317H159.57ZM164.785 11.4928V19.4827H163.803V11.4928H164.785Z" fill="white"/>
<path d="M189.278 9.34375H175.687C174.744 9.34375 173.997 10.0997 173.997 11.0426L173.988 21.2356C173.988 22.1785 174.744 22.9345 175.687 22.9345H184.181V21.2356H175.687V16.1391H190.977V11.0426C190.977 10.0997 190.221 9.34375 189.278 9.34375ZM189.278 12.7414H175.687V11.0426H189.278V12.7414ZM192.676 20.3862V22.0851H190.127V24.6333H188.428V22.0851H185.88V20.3862H188.428V17.838H190.127V20.3862H192.676Z" fill="white"/>
</svg>
