<svg width="57" height="40" viewBox="0 0 57 40" fill="none" xmlns="http://www.w3.org/2000/svg">
<path d="M0 6.79536C0 3.04238 3.04239 0 6.79537 0H49.3861C53.1391 0 56.1815 3.04239 56.1815 6.79537V33.1274C56.1815 36.8804 53.1391 39.9228 49.3861 39.9228H6.79537C3.04239 39.9228 0 36.8804 0 33.1274V6.79536Z" fill="#FA541C"/>
<path d="M16.2411 18.7878L15.1362 18.5041L15.6812 13.0915H21.258V14.3681H16.8533L16.5248 17.3245C16.7239 17.21 16.9752 17.103 17.2788 17.0035C17.5874 16.9039 17.9408 16.8542 18.339 16.8542C19.0059 16.8542 19.5807 17.0035 20.0635 17.3021C20.5513 17.6007 20.9245 18.0238 21.1834 18.5713C21.4471 19.1138 21.579 19.7558 21.579 20.4974C21.579 21.1892 21.4521 21.8088 21.1983 22.3563C20.9494 22.8988 20.5712 23.3268 20.0635 23.6404C19.5558 23.954 18.9138 24.1107 18.1374 24.1107C17.6994 24.1107 17.2838 24.051 16.8906 23.9316C16.5024 23.8071 16.154 23.6205 15.8454 23.3716C15.5418 23.1178 15.293 22.8043 15.0989 22.431C14.9097 22.0527 14.7903 21.6098 14.7405 21.1021H16.0545C16.1391 21.7193 16.3606 22.1871 16.7189 22.5056C17.0773 22.8192 17.5501 22.976 18.1374 22.976C18.5754 22.976 18.9462 22.8764 19.2498 22.6773C19.5534 22.4783 19.7848 22.1946 19.9441 21.8263C20.1083 21.453 20.1904 21.015 20.1904 20.5123C20.1904 20.0544 20.1058 19.6438 19.9366 19.2805C19.7674 18.9172 19.521 18.6285 19.1975 18.4145C18.879 18.2005 18.4858 18.0935 18.0179 18.0935C17.5551 18.0935 17.2042 18.1557 16.9653 18.2801C16.7314 18.4045 16.49 18.5737 16.2411 18.7878ZM29.9181 17.6604V19.3178C29.9181 20.5024 29.7788 21.4455 29.5001 22.1473C29.2213 22.849 28.8257 23.3517 28.313 23.6553C27.8004 23.9589 27.1932 24.1107 26.4914 24.1107C25.7996 24.1107 25.1949 23.9589 24.6773 23.6553C24.1596 23.3517 23.759 22.849 23.4753 22.1473C23.1916 21.4455 23.0498 20.5024 23.0498 19.3178V17.6604C23.0498 16.4759 23.1891 15.5402 23.4678 14.8534C23.7515 14.1665 24.1497 13.6763 24.6623 13.3826C25.1799 13.089 25.7847 12.9422 26.4765 12.9422C27.1782 12.9422 27.7854 13.089 28.2981 13.3826C28.8157 13.6763 29.2139 14.1665 29.4926 14.8534C29.7763 15.5402 29.9181 16.4759 29.9181 17.6604ZM28.5295 19.5418V17.429C28.5295 16.6128 28.4524 15.9583 28.2981 15.4656C28.1438 14.9728 27.9124 14.617 27.6038 14.398C27.3002 14.179 26.9244 14.0695 26.4765 14.0695C26.0385 14.0695 25.6677 14.179 25.3641 14.398C25.0605 14.617 24.8291 14.9728 24.6698 15.4656C24.5155 15.9583 24.4384 16.6128 24.4384 17.429V19.5418C24.4384 20.353 24.518 21.0125 24.6773 21.5202C24.8365 22.0229 25.068 22.3912 25.3716 22.6251C25.6801 22.859 26.0534 22.976 26.4914 22.976C26.9443 22.976 27.3201 22.859 27.6187 22.6251C27.9223 22.3912 28.1488 22.0229 28.2981 21.5202C28.4524 21.0125 28.5295 20.353 28.5295 19.5418ZM31.5755 15.7567V15.1819C31.5755 14.7688 31.6651 14.393 31.8443 14.0546C32.0234 13.7161 32.2797 13.4449 32.6132 13.2408C32.9467 13.0367 33.3424 12.9347 33.8002 12.9347C34.2681 12.9347 34.6663 13.0367 34.9947 13.2408C35.3282 13.4449 35.5845 13.7161 35.7637 14.0546C35.9429 14.393 36.0325 14.7688 36.0325 15.1819V15.7567C36.0325 16.1599 35.9429 16.5306 35.7637 16.8691C35.5895 17.2075 35.3357 17.4788 35.0022 17.6828C34.6737 17.8869 34.278 17.9889 33.8152 17.9889C33.3523 17.9889 32.9517 17.8869 32.6132 17.6828C32.2797 17.4788 32.0234 17.2075 31.8443 16.8691C31.6651 16.5306 31.5755 16.1599 31.5755 15.7567ZM32.6132 15.1819V15.7567C32.6132 15.9857 32.6555 16.2022 32.7401 16.4062C32.8297 16.6103 32.9641 16.777 33.1433 16.9064C33.3224 17.0308 33.5464 17.0931 33.8152 17.0931C34.0839 17.0931 34.3054 17.0308 34.4796 16.9064C34.6538 16.777 34.7832 16.6103 34.8678 16.4062C34.9524 16.2022 34.9947 15.9857 34.9947 15.7567V15.1819C34.9947 14.9479 34.95 14.7289 34.8604 14.5249C34.7758 14.3158 34.6439 14.1491 34.4647 14.0247C34.2905 13.8953 34.069 13.8306 33.8002 13.8306C33.5365 13.8306 33.315 13.8953 33.1358 14.0247C32.9616 14.1491 32.8297 14.3158 32.7401 14.5249C32.6555 14.7289 32.6132 14.9479 32.6132 15.1819ZM36.8686 21.8785V21.2962C36.8686 20.8881 36.9582 20.5148 37.1374 20.1764C37.3166 19.8379 37.5729 19.5667 37.9063 19.3626C38.2398 19.1585 38.6355 19.0565 39.0934 19.0565C39.5612 19.0565 39.9594 19.1585 40.2879 19.3626C40.6213 19.5667 40.8777 19.8379 41.0568 20.1764C41.236 20.5148 41.3256 20.8881 41.3256 21.2962V21.8785C41.3256 22.2866 41.236 22.6599 41.0568 22.9984C40.8826 23.3368 40.6288 23.6081 40.2953 23.8121C39.9668 24.0162 39.5712 24.1182 39.1083 24.1182C38.6454 24.1182 38.2473 24.0162 37.9138 23.8121C37.5803 23.6081 37.3215 23.3368 37.1374 22.9984C36.9582 22.6599 36.8686 22.2866 36.8686 21.8785ZM37.9063 21.2962V21.8785C37.9063 22.1075 37.9486 22.3265 38.0333 22.5355C38.1228 22.7396 38.2572 22.9063 38.4364 23.0357C38.6156 23.1601 38.8395 23.2223 39.1083 23.2223C39.3771 23.2223 39.5985 23.1601 39.7727 23.0357C39.9519 22.9063 40.0838 22.7396 40.1684 22.5355C40.253 22.3314 40.2953 22.1124 40.2953 21.8785V21.2962C40.2953 20.9428 40.1958 20.6318 39.9967 20.363C39.8026 20.0893 39.5015 19.9524 39.0934 19.9524C38.6952 19.9524 38.3966 20.0893 38.1975 20.363C38.0034 20.6318 37.9063 20.9428 37.9063 21.2962ZM39.4368 14.6369L34.1287 23.1327L33.3523 22.64L38.6604 14.1441L39.4368 14.6369Z" fill="white"/>
</svg>
