<svg width="128" height="34" viewBox="0 0 128 34" fill="none" xmlns="http://www.w3.org/2000/svg">
<path d="M6.79492 0.849609H120.618C123.902 0.849795 126.563 3.51139 126.563 6.79492V27.1816C126.563 30.4653 123.902 33.1268 120.618 33.127H6.79492C3.51133 33.1267 0.849695 30.4653 0.849609 27.1816V6.79492C0.849852 3.51142 3.51142 0.849852 6.79492 0.849609Z" stroke="#FA541C" stroke-width="1.69884"/>
<path d="M37.6221 16.1392H47.8151V17.838H37.6221V16.1392Z" fill="#FA541C"/>
<path d="M64.5448 10.7733V20.4885H63.3171V12.3062L60.8418 13.2087V12.1005L64.3523 10.7733H64.5448Z" fill="#FA541C"/>
<path d="M90.6409 17.8379H85.5444V22.9344H83.8456V17.8379H78.749V16.139H83.8456V11.0425H85.5444V16.139H90.6409V17.8379Z" fill="#FA541C"/>
</svg>
