<svg width="14" height="14" viewBox="0 0 14 14" fill="none" xmlns="http://www.w3.org/2000/svg">
<path d="M7.58335 13.2709H2.91669C1.50502 13.2709 0.729187 12.4951 0.729187 11.0834V6.41675C0.729187 5.00508 1.50502 4.22925 2.91669 4.22925H5.83335C6.07252 4.22925 6.27085 4.42758 6.27085 4.66675V11.0834C6.27085 12.0051 6.66169 12.3959 7.58335 12.3959C7.82252 12.3959 8.02085 12.5942 8.02085 12.8334C8.02085 13.0726 7.82252 13.2709 7.58335 13.2709ZM2.91669 5.10425C1.99502 5.10425 1.60419 5.49508 1.60419 6.41675V11.0834C1.60419 12.0051 1.99502 12.3959 2.91669 12.3959H5.71668C5.50668 12.0517 5.39585 11.6142 5.39585 11.0834V5.10425H2.91669Z" fill="#ADADAD"/>
<path d="M5.83335 5.10409H2.91669C2.67752 5.10409 2.47919 4.90575 2.47919 4.66659V3.49992C2.47919 2.61325 3.19669 1.89575 4.08335 1.89575H5.89751C6.03168 1.89575 6.16003 1.95991 6.24169 2.06491C6.32336 2.17574 6.35251 2.31575 6.31751 2.44409C6.28251 2.57242 6.27085 2.71825 6.27085 2.91659V4.66659C6.27085 4.90575 6.07252 5.10409 5.83335 5.10409ZM3.35419 4.22909H5.39585V2.91659C5.39585 2.86409 5.39585 2.81742 5.39585 2.77075H4.08335C3.68085 2.77075 3.35419 3.09742 3.35419 3.49992V4.22909Z" fill="#ADADAD"/>
<path d="M8.16669 8.02092C7.92752 8.02092 7.72919 7.82258 7.72919 7.58342V4.66675C7.72919 4.42758 7.92752 4.22925 8.16669 4.22925C8.40585 4.22925 8.60419 4.42758 8.60419 4.66675V7.58342C8.60419 7.82258 8.40585 8.02092 8.16669 8.02092Z" fill="#ADADAD"/>
<path d="M10.5 8.02092C10.2608 8.02092 10.0625 7.82258 10.0625 7.58342V4.66675C10.0625 4.42758 10.2608 4.22925 10.5 4.22925C10.7392 4.22925 10.9375 4.42758 10.9375 4.66675V7.58342C10.9375 7.82258 10.7392 8.02092 10.5 8.02092Z" fill="#ADADAD"/>
<path d="M10.5 13.2709H8.16669C7.92752 13.2709 7.72919 13.0726 7.72919 12.8334V10.5001C7.72919 9.94008 8.19002 9.47925 8.75002 9.47925H9.91669C10.4767 9.47925 10.9375 9.94008 10.9375 10.5001V12.8334C10.9375 13.0726 10.7392 13.2709 10.5 13.2709ZM8.60419 12.3959H10.0625V10.5001C10.0625 10.4184 9.99835 10.3542 9.91669 10.3542H8.75002C8.66835 10.3542 8.60419 10.4184 8.60419 10.5001V12.3959Z" fill="#ADADAD"/>
<path d="M3.5 10.3541C3.26083 10.3541 3.0625 10.1558 3.0625 9.91659V7.58325C3.0625 7.34409 3.26083 7.14575 3.5 7.14575C3.73917 7.14575 3.9375 7.34409 3.9375 7.58325V9.91659C3.9375 10.1558 3.73917 10.3541 3.5 10.3541Z" fill="#ADADAD"/>
<path d="M11.0833 13.2709H7.58331C6.17165 13.2709 5.39581 12.4951 5.39581 11.0834V2.91675C5.39581 1.50508 6.17165 0.729248 7.58331 0.729248H11.0833C12.495 0.729248 13.2708 1.50508 13.2708 2.91675V11.0834C13.2708 12.4951 12.495 13.2709 11.0833 13.2709ZM7.58331 1.60425C6.66165 1.60425 6.27081 1.99508 6.27081 2.91675V11.0834C6.27081 12.0051 6.66165 12.3959 7.58331 12.3959H11.0833C12.005 12.3959 12.3958 12.0051 12.3958 11.0834V2.91675C12.3958 1.99508 12.005 1.60425 11.0833 1.60425H7.58331Z" fill="#ADADAD"/>
</svg>
