<svg width="58" height="58" viewBox="0 0 58 58" fill="none" xmlns="http://www.w3.org/2000/svg">
<path d="M43.9323 22.7133L32.1593 13.3017C30.3416 11.8407 27.4026 11.8407 25.6018 13.2848L13.8288 22.7133C12.5037 23.7666 11.6543 25.9921 11.9431 27.657L14.2026 41.1798C14.6103 43.5921 16.9207 45.5458 19.3671 45.5458H38.3941C40.8234 45.5458 43.1508 43.5751 43.5586 41.1798L45.818 27.657C46.0898 25.9921 45.2404 23.7666 43.9323 22.7133ZM28.8806 34.8261C26.5362 34.8261 24.6335 32.9234 24.6335 30.579C24.6335 28.2346 26.5362 26.3319 28.8806 26.3319C31.225 26.3319 33.1277 28.2346 33.1277 30.579C33.1277 32.9234 31.225 34.8261 28.8806 34.8261Z" fill="#2F5F8A"/>
</svg>
