<svg width="58" height="58" viewBox="0 0 58 58" fill="none" xmlns="http://www.w3.org/2000/svg">
<path d="M45.019 34.8264C45.4947 34.8264 45.8685 35.2001 45.8685 35.6758V37.3746C45.8685 40.1947 43.592 42.4712 40.7719 42.4712C40.7719 39.6681 38.4785 37.3746 35.6754 37.3746C32.8723 37.3746 30.5789 39.6681 30.5789 42.4712H27.1812C27.1812 39.6681 24.8877 37.3746 22.0847 37.3746C19.2816 37.3746 16.9881 39.6681 16.9881 42.4712C14.1681 42.4712 11.8916 40.1947 11.8916 37.3746V33.977C11.8916 33.0426 12.6561 32.2781 13.5904 32.2781H29.7295C32.0739 32.2781 33.9766 30.3754 33.9766 28.031V18.6874C33.9766 17.753 34.741 16.9885 35.6754 16.9885H37.1024C38.3256 16.9885 39.4468 17.6511 40.0584 18.7044L41.1457 20.6071C41.2986 20.8789 41.0947 21.2356 40.7719 21.2356C38.4275 21.2356 36.5248 23.1383 36.5248 25.4827V30.5793C36.5248 32.9237 38.4275 34.8264 40.7719 34.8264H45.019Z" fill="#2F5F8A"/>
<path d="M22.0852 45.8689C23.9617 45.8689 25.4829 44.3477 25.4829 42.4712C25.4829 40.5947 23.9617 39.0735 22.0852 39.0735C20.2087 39.0735 18.6875 40.5947 18.6875 42.4712C18.6875 44.3477 20.2087 45.8689 22.0852 45.8689Z" fill="#2F5F8A"/>
<path d="M35.676 45.8689C37.5525 45.8689 39.0737 44.3477 39.0737 42.4712C39.0737 40.5947 37.5525 39.0735 35.676 39.0735C33.7995 39.0735 32.2783 40.5947 32.2783 42.4712C32.2783 44.3477 33.7995 45.8689 35.676 45.8689Z" fill="#2F5F8A"/>
<path d="M45.8686 29.7807V32.278H40.7721C39.8377 32.278 39.0732 31.5135 39.0732 30.5792V25.4827C39.0732 24.5483 39.8377 23.7838 40.7721 23.7838H42.9636L45.4269 28.0989C45.7157 28.6085 45.8686 29.1861 45.8686 29.7807Z" fill="#2F5F8A"/>
<path d="M30.7148 11.892H18.1603C14.6947 11.892 11.8916 14.6951 11.8916 18.1607V28.9993C11.8916 29.9337 12.6561 30.6982 13.5904 30.6982H29.1349C30.8677 30.6982 32.2777 29.2881 32.2777 27.5553V13.4549C32.2777 12.5885 31.5812 11.892 30.7148 11.892ZM25.6013 20.5051L22.0507 23.9368C21.7959 24.1746 21.4731 24.2935 21.1673 24.2935C20.8445 24.2935 20.5217 24.1746 20.2839 23.9368L18.5681 22.3059C18.0584 21.8132 18.0414 20.9978 18.5341 20.4881C19.0098 19.9785 19.8252 19.9785 20.3348 20.4541L21.1673 21.2526L23.8345 18.6703C24.3441 18.1777 25.1426 18.1947 25.6352 18.7043C26.1279 19.214 26.1109 20.0124 25.6013 20.5051Z" fill="#2F5F8A"/>
</svg>
