<svg width="87" height="48" viewBox="0 0 87 48" fill="none" xmlns="http://www.w3.org/2000/svg">
<path d="M6.79492 0.849609H79.4209C82.7046 0.849613 85.3669 3.51127 85.3672 6.79492V40.7725C85.3671 44.0562 82.7047 46.7178 79.4209 46.7178H6.79492C3.51135 46.7175 0.849739 44.0561 0.849609 40.7725V6.79492C0.84985 3.51142 3.51142 0.849852 6.79492 0.849609Z" stroke="#FA541C" stroke-width="1.69884"/>
<path d="M17.0234 22.9346H27.2165V24.6334H17.0234V22.9346Z" fill="#FA541C"/>
<path d="M43.9461 17.5684V27.2837H42.7184V19.1014L40.2432 20.0039V18.8957L43.7537 17.5684H43.9461Z" fill="#FA541C"/>
<path d="M70.0423 24.6333H64.9458V29.7298H63.2469V24.6333H58.1504V22.9344H63.2469V17.8379H64.9458V22.9344H70.0423V24.6333Z" fill="#FA541C"/>
</svg>
