<svg width="66" height="68" viewBox="0 0 66 68" fill="none" xmlns="http://www.w3.org/2000/svg">
<rect x="4.79795" y="0.195407" width="55.671" height="67.5629" rx="6.59996" fill="#EDEDED"/>
<rect x="4.79795" y="0.195407" width="55.671" height="67.5629" rx="6.59996" stroke="#CBCBCB" stroke-width="0.390815"/>
<path d="M25.2707 28.4849L25.2551 28.5005C25.044 28.0394 24.9112 27.5157 24.8564 26.9373C24.9112 27.5078 25.0597 28.0237 25.2707 28.4849Z" fill="#021526"/>
<path d="M30.289 21.7394C31.3164 21.7394 32.1493 20.9065 32.1493 19.8791C32.1493 18.8517 31.3164 18.0188 30.289 18.0188C29.2616 18.0188 28.4287 18.8517 28.4287 19.8791C28.4287 20.9065 29.2616 21.7394 30.289 21.7394Z" fill="#021526"/>
<path d="M35.9087 15.1892H29.3587C26.5135 15.1892 24.8174 16.8853 24.8174 19.7305V26.2805C24.8174 27.1325 24.9659 27.8751 25.2551 28.5004C25.9273 29.9855 27.3655 30.8218 29.3587 30.8218H35.9087C38.7538 30.8218 40.45 29.1257 40.45 26.2805V24.4906V19.7305C40.45 16.8853 38.7538 15.1892 35.9087 15.1892ZM39.1759 23.3963C38.5663 22.8726 37.5814 22.8726 36.9717 23.3963L33.7201 26.1867C33.1105 26.7104 32.1256 26.7104 31.5159 26.1867L31.2502 25.9679C30.6952 25.4833 29.812 25.4364 29.1867 25.8585L26.2634 27.8203C26.0914 27.3826 25.9898 26.8746 25.9898 26.2805V19.7305C25.9898 17.5263 27.1545 16.3617 29.3587 16.3617H35.9087C38.1129 16.3617 39.2775 17.5263 39.2775 19.7305V23.4823L39.1759 23.3963Z" fill="#021526"/>
<path d="M17.31 50.3279C17.152 50.3279 17.0191 50.3073 16.9115 50.2661C16.8062 50.2225 16.7237 50.1767 16.6642 50.1287C16.6299 50.4286 16.5463 50.7183 16.4135 50.9977C16.2829 51.2793 16.086 51.5244 15.8227 51.7328C15.5593 51.9411 15.2112 52.0877 14.7785 52.1724L14.5758 51.6297C14.9491 51.5496 15.2467 51.427 15.4689 51.2622C15.691 51.0996 15.8513 50.9038 15.9497 50.6748C16.0505 50.4458 16.1009 50.1928 16.1009 49.9157C16.1009 49.721 16.0791 49.5172 16.0356 49.3043C15.9944 49.089 15.936 48.8703 15.8604 48.6482L16.4306 48.4559L16.6161 49.1738C16.6665 49.3661 16.7466 49.5024 16.8566 49.5825C16.9665 49.6627 17.105 49.7027 17.2722 49.7027H17.4027V50.3279H17.31ZM17.2688 49.7027H17.5126V50.3279H17.2688V49.7027ZM18.7801 46.6113L19.261 47.0888L18.7801 47.5731L18.3027 47.0888L18.7801 46.6113ZM17.6397 46.6113L18.1206 47.0888L17.6397 47.5731L17.1623 47.0888L17.6397 46.6113ZM18.5294 48.2979L19.103 48.2292L19.1579 49.0329C19.1671 49.1795 19.1992 49.3031 19.2541 49.4039C19.3091 49.5024 19.3858 49.5768 19.4843 49.6272C19.585 49.6775 19.7087 49.7027 19.8552 49.7027H19.9274V50.3279H19.8484C19.6789 50.3279 19.5323 50.3073 19.4087 50.2661C19.285 50.2248 19.1797 50.1653 19.0927 50.0874C19.0057 50.0096 18.9312 49.9145 18.8694 49.8023C18.7458 49.9832 18.5832 50.1161 18.3817 50.2008C18.1801 50.2855 17.9695 50.3279 17.7496 50.3279H17.4199V49.7027H17.7496C18.0405 49.7027 18.2477 49.6375 18.3714 49.5069C18.4973 49.3764 18.5603 49.176 18.5603 48.9058C18.5603 48.7959 18.5568 48.6917 18.55 48.5933C18.5454 48.4948 18.5385 48.3963 18.5294 48.2979ZM22.9192 45.811L23.3829 46.2747L22.9192 46.7384L22.4554 46.2747L22.9192 45.811ZM23.5065 46.68L23.9702 47.1437L23.5065 47.6074L23.0428 47.1437L23.5065 46.68ZM22.3318 46.68L22.7955 47.1437L22.3318 47.6074L21.8681 47.1437L22.3318 46.68ZM23.984 50.3279C23.7641 50.3279 23.5867 50.2821 23.4516 50.1905C23.3165 50.0989 23.2065 49.9695 23.1218 49.8023C22.9936 49.9878 22.8505 50.1218 22.6925 50.2042C22.5367 50.2867 22.3673 50.3279 22.1841 50.3279C21.9207 50.3279 21.7169 50.2832 21.5727 50.1939C21.4307 50.1023 21.3173 49.9718 21.2326 49.8023C21.125 49.9718 20.9876 50.1023 20.8204 50.1939C20.6533 50.2832 20.4151 50.3279 20.106 50.3279H19.79V49.7027H20.1128C20.3098 49.7027 20.4701 49.6798 20.5937 49.634C20.7174 49.5859 20.809 49.5069 20.8685 49.397C20.9281 49.2871 20.9578 49.136 20.9578 48.9436C20.9578 48.9024 20.9567 48.8577 20.9544 48.8097C20.9521 48.7616 20.9487 48.7043 20.9441 48.6379C20.9395 48.5692 20.9326 48.4868 20.9235 48.3906L21.4971 48.3185L21.5521 49.0364C21.5658 49.2287 21.6242 49.3879 21.7272 49.5138C21.8326 49.6398 21.9872 49.7027 22.191 49.7027C22.4337 49.7027 22.5986 49.6375 22.6856 49.5069C22.7726 49.3764 22.8161 49.1886 22.8161 48.9436C22.8161 48.9024 22.815 48.8577 22.8127 48.8097C22.8104 48.7616 22.8069 48.7043 22.8024 48.6379C22.7978 48.5692 22.7909 48.4868 22.7818 48.3906L23.3554 48.3185L23.4103 49.0364C23.4218 49.2218 23.471 49.3798 23.558 49.5104C23.6451 49.6386 23.7859 49.7027 23.9805 49.7027C24.095 49.7027 24.1889 49.6741 24.2622 49.6169C24.3378 49.5573 24.3939 49.4714 24.4305 49.3592C24.4694 49.247 24.4889 49.1085 24.4889 48.9436C24.4889 48.8612 24.4855 48.7753 24.4786 48.686C24.474 48.5967 24.466 48.4788 24.4546 48.3322L25.0282 48.2635L25.0831 49.0364C25.0969 49.2562 25.161 49.4222 25.2755 49.5344C25.3923 49.6466 25.5549 49.7027 25.7632 49.7027H25.8663V50.3279H25.7701C25.5297 50.3279 25.3293 50.2844 25.169 50.1974C25.0087 50.108 24.8988 49.9752 24.8393 49.7989C24.7431 49.9684 24.632 50.0989 24.5061 50.1905C24.3824 50.2821 24.2084 50.3279 23.984 50.3279ZM25.7255 49.7027H26.0003V50.3279H25.7255V49.7027ZM26.9655 50.874L27.4463 51.3515L26.9655 51.8358L26.488 51.3515L26.9655 50.874ZM25.8251 50.874L26.306 51.3515L25.8251 51.8358L25.3476 51.3515L25.8251 50.874ZM27.0239 48.2979L27.5975 48.2292L27.6524 49.0329C27.6616 49.1795 27.6937 49.3031 27.7486 49.4039C27.8036 49.5024 27.8803 49.5768 27.9788 49.6272C28.0795 49.6775 28.2032 49.7027 28.3497 49.7027H28.4219V50.3279H28.3429C28.1734 50.3279 28.0268 50.3073 27.9032 50.2661C27.7795 50.2248 27.6742 50.1653 27.5872 50.0874C27.5002 50.0096 27.4257 49.9145 27.3639 49.8023C27.2403 49.9832 27.0777 50.1161 26.8762 50.2008C26.6746 50.2855 26.464 50.3279 26.2441 50.3279H25.9144V49.7027H26.2441C26.535 49.7027 26.7422 49.6375 26.8659 49.5069C26.9918 49.3764 27.0548 49.176 27.0548 48.9058C27.0548 48.7959 27.0513 48.6917 27.0445 48.5933C27.0399 48.4948 27.033 48.3963 27.0239 48.2979ZM28.2845 49.7027H28.4493V50.3279H28.2845V49.7027ZM28.9921 50.8534L29.4901 51.3515L28.9921 51.8495L28.494 51.3515L28.9921 50.8534ZM28.9165 50.3279H28.3566V49.7027H28.9096C29.1386 49.7027 29.2932 49.6363 29.3733 49.5035C29.4558 49.3707 29.497 49.2024 29.497 48.9986C29.497 48.8497 29.4832 48.6906 29.4558 48.5211C29.4283 48.3517 29.3985 48.1811 29.3665 48.0093L29.9641 47.8582C30.0031 48.0414 30.034 48.2211 30.0569 48.3975C30.0798 48.5738 30.0912 48.7421 30.0912 48.9024C30.0912 49.1772 30.0534 49.4222 29.9779 49.6375C29.9023 49.8527 29.7786 50.0222 29.6069 50.1458C29.4352 50.2672 29.205 50.3279 28.9165 50.3279ZM35.0134 50.3279C34.8554 50.3279 34.7226 50.3073 34.615 50.2661C34.5096 50.2225 34.4272 50.1767 34.3677 50.1287C34.3333 50.4286 34.2497 50.7183 34.1169 50.9977C33.9864 51.2793 33.7895 51.5244 33.5261 51.7328C33.2628 51.9411 32.9147 52.0877 32.4819 52.1724L32.2792 51.6297C32.6525 51.5496 32.9502 51.427 33.1723 51.2622C33.3944 51.0996 33.5547 50.9038 33.6532 50.6748C33.754 50.4458 33.8043 50.1928 33.8043 49.9157C33.8043 49.721 33.7826 49.5172 33.7391 49.3043C33.6979 49.089 33.6395 48.8703 33.5639 48.6482L34.1341 48.4559L34.3196 49.1738C34.37 49.3661 34.4501 49.5024 34.56 49.5825C34.6699 49.6627 34.8085 49.7027 34.9756 49.7027H35.1062V50.3279H35.0134ZM34.9722 49.7027H35.4909V50.3279H34.9722V49.7027ZM35.958 50.3279H35.3981V49.7027H35.9512C36.1801 49.7027 36.3347 49.6363 36.4149 49.5035C36.4973 49.3707 36.5385 49.2024 36.5385 48.9986C36.5385 48.8497 36.5248 48.6906 36.4973 48.5211C36.4698 48.3517 36.4401 48.1811 36.408 48.0093L37.0057 47.8582C37.0446 48.0414 37.0755 48.2211 37.0984 48.3975C37.1213 48.5738 37.1328 48.7421 37.1328 48.9024C37.1328 49.1772 37.095 49.4222 37.0194 49.6375C36.9438 49.8527 36.8202 50.0222 36.6484 50.1458C36.4767 50.2672 36.2466 50.3279 35.958 50.3279ZM36.4458 50.874L36.9267 51.3515L36.4458 51.8358L35.9683 51.3515L36.4458 50.874ZM35.3054 50.874L35.7863 51.3515L35.3054 51.8358L34.8279 51.3515L35.3054 50.874ZM40.2585 49.7405C40.2585 50.1848 40.1761 50.5706 40.0112 50.8981C39.8486 51.2278 39.6036 51.498 39.2761 51.7087C38.951 51.9217 38.5445 52.0751 38.0567 52.169L37.8541 51.6228C38.2067 51.5541 38.5113 51.4568 38.7678 51.3309C39.0265 51.2049 39.2326 51.0492 39.386 50.8637C39.5395 50.6805 39.6345 50.471 39.6711 50.2351C39.5841 50.2626 39.4834 50.2867 39.3689 50.3073C39.2544 50.3279 39.1536 50.3382 39.0666 50.3382C38.6544 50.3382 38.3418 50.25 38.1289 50.0737C37.9182 49.8974 37.8129 49.6306 37.8129 49.2734C37.8129 49.1039 37.8381 48.9345 37.8884 48.765C37.9411 48.5933 38.0167 48.4364 38.1151 48.2944C38.2159 48.1502 38.3384 48.0345 38.4827 47.9475C38.6269 47.8605 38.7907 47.817 38.9739 47.817C39.1914 47.817 39.3803 47.8708 39.5406 47.9784C39.7032 48.086 39.8372 48.2314 39.9425 48.4146C40.0478 48.5978 40.1268 48.8039 40.1795 49.0329C40.2322 49.2619 40.2585 49.4978 40.2585 49.7405ZM39.0838 49.7165C39.18 49.7165 39.2796 49.7096 39.3826 49.6959C39.4857 49.6798 39.5864 49.6569 39.6849 49.6272C39.6734 49.4348 39.6494 49.2654 39.6127 49.1188C39.5784 48.97 39.5315 48.8452 39.4719 48.7444C39.4124 48.6413 39.3402 48.5646 39.2555 48.5143C39.1731 48.4616 39.0769 48.4353 38.967 48.4353C38.8159 48.4353 38.6979 48.4822 38.6132 48.5761C38.5308 48.67 38.4724 48.781 38.438 48.9093C38.406 49.0352 38.3899 49.1497 38.3899 49.2528C38.3899 49.4199 38.4472 49.539 38.5617 49.61C38.6762 49.681 38.8502 49.7165 39.0838 49.7165ZM41.1241 45.598H41.7046V48.8818C41.7046 49.2047 41.7641 49.4222 41.8832 49.5344C42.0023 49.6466 42.1821 49.7027 42.4225 49.7027H42.5084V50.3279H42.4225C41.9851 50.3279 41.6588 50.2122 41.4435 49.981C41.2306 49.7474 41.1241 49.3798 41.1241 48.8784V45.598ZM46.6715 48.1845C46.5364 48.1845 46.3967 48.2166 46.2524 48.2807C46.1104 48.3425 45.9639 48.4375 45.8127 48.5658C45.6639 48.6917 45.5116 48.8497 45.3559 49.0398C45.2002 49.2299 45.0422 49.4508 44.8819 49.7027H45.4383C45.7658 49.7027 46.0509 49.6867 46.2936 49.6546C46.5364 49.6226 46.7379 49.5733 46.8982 49.5069C47.0585 49.4405 47.1787 49.3558 47.2588 49.2528C47.339 49.1497 47.3791 49.0272 47.3791 48.8852C47.3791 48.6837 47.3138 48.5165 47.1833 48.3837C47.055 48.2509 46.8844 48.1845 46.6715 48.1845ZM45.4521 50.3279H45.27C44.9471 50.3279 44.6758 50.3073 44.456 50.2661C44.2361 50.2248 44.0598 50.1653 43.927 50.0874C43.7942 50.0096 43.6923 49.9157 43.6213 49.8058C43.4885 49.9867 43.3385 50.1195 43.1713 50.2042C43.0064 50.2867 42.7866 50.3279 42.5118 50.3279H42.371L42.3744 49.7027H42.5118C42.8324 49.7027 43.0477 49.6352 43.1576 49.5001C43.2698 49.3627 43.3259 49.1646 43.3259 48.9058C43.3259 48.7959 43.3213 48.694 43.3121 48.6001C43.3053 48.5062 43.2995 48.4055 43.295 48.2979L43.8686 48.2292L43.9201 49.0329C43.9316 49.1864 43.9636 49.3192 44.0163 49.4314C44.069 49.5413 44.1503 49.5962 44.2602 49.5962C44.464 49.2482 44.6655 48.9471 44.8647 48.6929C45.0662 48.4364 45.2654 48.2246 45.4624 48.0574C45.6616 47.8902 45.8585 47.7654 46.0532 47.683C46.2501 47.6006 46.4471 47.5594 46.644 47.5594C46.905 47.5594 47.1363 47.6166 47.3378 47.7311C47.5416 47.8433 47.7008 47.9967 47.8153 48.1914C47.9298 48.386 47.987 48.6059 47.987 48.8509C47.9847 48.9997 47.9618 49.1394 47.9183 49.2699C47.8748 49.4005 47.8096 49.523 47.7225 49.6375C47.7661 49.6489 47.8176 49.6604 47.8771 49.6718C47.9389 49.681 48.0157 49.689 48.1073 49.6959C48.1989 49.7004 48.3145 49.7027 48.4542 49.7027H48.5572V50.3279H48.4576C48.1668 50.3279 47.9263 50.2981 47.7363 50.2386C47.5485 50.179 47.3905 50.0966 47.2623 49.9913C47.0745 50.0966 46.8272 50.179 46.5203 50.2386C46.2135 50.2981 45.8574 50.3279 45.4521 50.3279ZM48.4233 49.7027H48.6671V50.3279H48.4233V49.7027ZM49.9346 46.2953L50.4155 46.7728L49.9346 47.2571L49.4572 46.7728L49.9346 46.2953ZM48.7942 46.2953L49.2751 46.7728L48.7942 47.2571L48.3168 46.7728L48.7942 46.2953ZM49.1343 50.3279H48.5744V49.7027H49.1274C49.3564 49.7027 49.511 49.6363 49.5911 49.5035C49.6736 49.3707 49.7148 49.2024 49.7148 48.9986C49.7148 48.8497 49.701 48.6906 49.6736 48.5211C49.6461 48.3517 49.6163 48.1811 49.5843 48.0093L50.1819 47.8582C50.2209 48.0414 50.2518 48.2211 50.2747 48.3975C50.2976 48.5738 50.309 48.7421 50.309 48.9024C50.309 49.1772 50.2712 49.4222 50.1957 49.6375C50.1201 49.8527 49.9964 50.0222 49.8247 50.1458C49.653 50.2672 49.4228 50.3279 49.1343 50.3279Z" fill="#021526"/>
</svg>
