<svg width="56" height="34" viewBox="0 0 56 34" fill="none" xmlns="http://www.w3.org/2000/svg">
<path d="M10.1928 25.1851C9.92948 25.1851 9.67466 25.1511 9.4623 25.0747C6.21751 23.9619 1.06152 20.0121 1.06152 14.1766C1.06152 11.2036 3.46539 8.79126 6.42137 8.79126C7.85689 8.79126 9.19898 9.35188 10.1928 10.3542C11.1866 9.35188 12.5287 8.79126 13.9642 8.79126C16.9202 8.79126 19.3241 11.2121 19.3241 14.1766C19.3241 20.0206 14.1681 23.9619 10.9233 25.0747C10.7109 25.1511 10.4561 25.1851 10.1928 25.1851ZM6.42137 10.0654C4.17041 10.0654 2.33566 11.9086 2.33566 14.1766C2.33566 19.9781 7.91635 23.2059 9.87852 23.877C10.0314 23.9279 10.3627 23.9279 10.5156 23.877C12.4693 23.2059 18.0584 19.9866 18.0584 14.1766C18.0584 11.9086 16.2237 10.0654 13.9727 10.0654C12.6816 10.0654 11.4839 10.6685 10.7109 11.7133C10.4731 12.036 9.92948 12.036 9.69164 11.7133C8.90168 10.66 7.71249 10.0654 6.42137 10.0654Z" fill="#000306"/>
<path d="M52.3412 17.8976C52.0185 17.8976 51.7466 17.6513 51.7042 17.3285C51.5003 15.4088 50.464 13.6675 48.8671 12.5632C48.5783 12.3594 48.5103 11.9686 48.7057 11.6798C48.9096 11.391 49.3088 11.3231 49.5891 11.5185C51.4918 12.8351 52.715 14.9076 52.9613 17.1926C52.9953 17.5409 52.749 17.8551 52.3922 17.8976C52.3837 17.8976 52.3582 17.8976 52.3412 17.8976Z" fill="#000306"/>
<path d="M37.7905 17.94C37.765 17.94 37.748 17.94 37.7225 17.94C37.3743 17.8975 37.1195 17.5832 37.1534 17.235C37.3828 14.95 38.5974 12.8859 40.4747 11.5523C40.7635 11.3485 41.1627 11.4164 41.3666 11.7052C41.5704 11.994 41.5025 12.3933 41.2137 12.5971C39.6337 13.7099 38.6144 15.4512 38.4191 17.3709C38.3936 17.6936 38.1133 17.94 37.7905 17.94Z" fill="#000306"/>
<path d="M45.07 26.0008C43.8128 26.0008 42.6151 25.712 41.4939 25.1514C41.1796 24.99 41.0522 24.6078 41.2136 24.2935C41.375 23.9792 41.7572 23.8518 42.0715 24.0132C43.9063 24.939 46.1148 24.956 47.9665 24.0641C48.2808 23.9112 48.663 24.0471 48.8159 24.3614C48.9688 24.6757 48.8329 25.058 48.5186 25.2108C47.4314 25.7375 46.2762 26.0008 45.07 26.0008Z" fill="#000306"/>
<path d="M45.0697 13.9644C43.4134 13.9644 42.0713 12.6224 42.0713 10.966C42.0713 9.30961 43.4134 7.96753 45.0697 7.96753C46.7261 7.96753 48.0682 9.30961 48.0682 10.966C48.0682 12.6224 46.7176 13.9644 45.0697 13.9644ZM45.0697 9.25016C44.1184 9.25016 43.3454 10.0231 43.3454 10.9745C43.3454 11.9258 44.1184 12.6988 45.0697 12.6988C46.0211 12.6988 46.7941 11.9258 46.7941 10.9745C46.7941 10.0231 46.0126 9.25016 45.0697 9.25016Z" fill="#000306"/>
<path d="M38.9291 24.3534C37.2727 24.3534 35.9307 23.0113 35.9307 21.3549C35.9307 19.707 37.2727 18.3564 38.9291 18.3564C40.5855 18.3564 41.9276 19.6985 41.9276 21.3549C41.9276 23.0028 40.5855 24.3534 38.9291 24.3534ZM38.9291 19.6306C37.9778 19.6306 37.2048 20.4036 37.2048 21.3549C37.2048 22.3063 37.9778 23.0792 38.9291 23.0792C39.8805 23.0792 40.6534 22.3063 40.6534 21.3549C40.6534 20.4036 39.8805 19.6306 38.9291 19.6306Z" fill="#000306"/>
<path d="M51.1098 24.3534C49.4534 24.3534 48.1113 23.0113 48.1113 21.3549C48.1113 19.707 49.4534 18.3564 51.1098 18.3564C52.7662 18.3564 54.1082 19.6985 54.1082 21.3549C54.0997 23.0028 52.7577 24.3534 51.1098 24.3534ZM51.1098 19.6306C50.1584 19.6306 49.3855 20.4036 49.3855 21.3549C49.3855 22.3063 50.1584 23.0792 51.1098 23.0792C52.0611 23.0792 52.8341 22.3063 52.8341 21.3549C52.8256 20.4036 52.0611 19.6306 51.1098 19.6306Z" fill="#000306"/>
</svg>
