<svg width="58" height="58" viewBox="0 0 58 58" fill="none" xmlns="http://www.w3.org/2000/svg">
<path d="M40.7726 20.3862C40.7726 20.692 40.7556 20.9808 40.7216 21.2696C40.5177 23.7329 39.4305 25.9584 37.7826 27.5893C35.9478 29.441 33.3996 30.5792 30.5795 30.5792H25.2621C24.4127 30.5792 23.6992 31.2078 23.5803 32.0402L22.2891 41.0102C22.1872 41.6727 21.7116 42.2163 21.083 42.3862C20.9301 42.4542 20.7772 42.4711 20.6073 42.4711H17.2945C16.2413 42.4711 15.4428 41.5368 15.6127 40.5005L19.6729 16.1561C20.0806 13.6928 22.2042 11.892 24.7015 11.892H32.2783C36.9672 11.892 40.7726 15.6974 40.7726 20.3862Z" fill="#2F5F8A"/>
<path d="M44.1693 27.1809C44.1693 29.5253 43.218 31.6489 41.689 33.1948C40.1431 34.7238 38.0195 35.6751 35.6751 35.6751H32.0226C31.1902 35.6751 30.4766 36.2697 30.3407 37.1022L29.1176 44.4412C28.9817 45.2736 28.2682 45.8682 27.4357 45.8682H22.4581C22.1523 45.8682 21.8805 45.8002 21.6427 45.6643C21.2689 45.4605 21.5068 44.9678 21.9145 44.7979C23.4434 44.3052 24.5647 42.9972 24.8025 41.3663L25.8898 33.8574C25.9577 33.4327 26.3145 33.1269 26.7222 33.1269H30.5786C33.9933 33.1269 37.2041 31.8018 39.5824 29.4064C40.9925 28.0134 42.0458 26.2975 42.6573 24.4458C42.7932 24.0211 43.3539 23.9361 43.5408 24.3269C43.9485 25.2103 44.1693 26.1616 44.1693 27.1809Z" fill="#2F5F8A"/>
</svg>
