<svg width="87" height="48" viewBox="0 0 87 48" fill="none" xmlns="http://www.w3.org/2000/svg">
<path d="M10.1928 45.5711C9.92948 45.5711 9.67466 45.5371 9.4623 45.4607C6.21751 44.3479 1.06152 40.3981 1.06152 34.5626C1.06152 31.5896 3.46539 29.1772 6.42137 29.1772C7.85689 29.1772 9.19898 29.7379 10.1928 30.7402C11.1866 29.7379 12.5287 29.1772 13.9642 29.1772C16.9202 29.1772 19.3241 31.5981 19.3241 34.5626C19.3241 40.4066 14.1681 44.3479 10.9233 45.4607C10.7109 45.5371 10.4561 45.5711 10.1928 45.5711ZM6.42137 30.4514C4.17041 30.4514 2.33566 32.2946 2.33566 34.5626C2.33566 40.3641 7.91635 43.5919 9.87852 44.263C10.0314 44.3139 10.3627 44.3139 10.5156 44.263C12.4693 43.5919 18.0584 40.3726 18.0584 34.5626C18.0584 32.2946 16.2237 30.4514 13.9727 30.4514C12.6816 30.4514 11.4839 31.0545 10.7109 32.0993C10.4731 32.422 9.92948 32.422 9.69164 32.0993C8.90168 31.046 7.71249 30.4514 6.42137 30.4514Z" fill="#404040"/>
<path d="M52.3412 38.2836C52.0185 38.2836 51.7466 38.0373 51.7042 37.7145C51.5003 35.7948 50.464 34.0535 48.8671 32.9492C48.5783 32.7454 48.5103 32.3546 48.7057 32.0658C48.9096 31.777 49.3088 31.7091 49.5891 31.9044C51.4918 33.221 52.715 35.2936 52.9613 37.5786C52.9953 37.9268 52.749 38.2411 52.3922 38.2836C52.3837 38.2836 52.3582 38.2836 52.3412 38.2836Z" fill="#2F5F8A"/>
<path d="M37.7905 38.326C37.765 38.326 37.748 38.326 37.7225 38.326C37.3743 38.2835 37.1195 37.9692 37.1534 37.6209C37.3828 35.336 38.5974 33.2719 40.4747 31.9383C40.7635 31.7345 41.1627 31.8024 41.3666 32.0912C41.5704 32.38 41.5025 32.7792 41.2137 32.9831C39.6337 34.0958 38.6144 35.8372 38.4191 37.7568C38.3936 38.0796 38.1133 38.326 37.7905 38.326Z" fill="#2F5F8A"/>
<path d="M45.07 46.3868C43.8128 46.3868 42.6151 46.098 41.4939 45.5374C41.1796 45.376 41.0522 44.9937 41.2136 44.6795C41.375 44.3652 41.7572 44.2378 42.0715 44.3991C43.9063 45.325 46.1148 45.342 47.9665 44.4501C48.2808 44.2972 48.663 44.4331 48.8159 44.7474C48.9688 45.0617 48.8329 45.4439 48.5186 45.5968C47.4314 46.1235 46.2762 46.3868 45.07 46.3868Z" fill="#2F5F8A"/>
<path d="M45.0697 34.3504C43.4134 34.3504 42.0713 33.0083 42.0713 31.352C42.0713 29.6956 43.4134 28.3535 45.0697 28.3535C46.7261 28.3535 48.0682 29.6956 48.0682 31.352C48.0682 33.0083 46.7176 34.3504 45.0697 34.3504ZM45.0697 29.6361C44.1184 29.6361 43.3454 30.4091 43.3454 31.3605C43.3454 32.3118 44.1184 33.0848 45.0697 33.0848C46.0211 33.0848 46.7941 32.3118 46.7941 31.3605C46.7941 30.4091 46.0126 29.6361 45.0697 29.6361Z" fill="#2F5F8A"/>
<path d="M38.9291 44.7393C37.2727 44.7393 35.9307 43.3973 35.9307 41.7409C35.9307 40.093 37.2727 38.7424 38.9291 38.7424C40.5855 38.7424 41.9276 40.0845 41.9276 41.7409C41.9276 43.3888 40.5855 44.7393 38.9291 44.7393ZM38.9291 40.0166C37.9778 40.0166 37.2048 40.7895 37.2048 41.7409C37.2048 42.6922 37.9778 43.4652 38.9291 43.4652C39.8805 43.4652 40.6534 42.6922 40.6534 41.7409C40.6534 40.7895 39.8805 40.0166 38.9291 40.0166Z" fill="#2F5F8A"/>
<path d="M51.1098 44.7393C49.4534 44.7393 48.1113 43.3973 48.1113 41.7409C48.1113 40.093 49.4534 38.7424 51.1098 38.7424C52.7662 38.7424 54.1082 40.0845 54.1082 41.7409C54.0997 43.3888 52.7577 44.7393 51.1098 44.7393ZM51.1098 40.0166C50.1584 40.0166 49.3855 40.7895 49.3855 41.7409C49.3855 42.6922 50.1584 43.4652 51.1098 43.4652C52.0611 43.4652 52.8341 42.6922 52.8341 41.7409C52.8256 40.7895 52.0611 40.0166 51.1098 40.0166Z" fill="#2F5F8A"/>
</svg>
