<svg width="27" height="26" viewBox="0 0 27 26" fill="none" xmlns="http://www.w3.org/2000/svg">
<path d="M17.1332 18.6723C11.9518 18.6711 7.73553 14.455 7.73438 9.2749C7.73668 7.96203 8.80427 6.89331 10.116 6.89331C10.2508 6.89331 10.3844 6.90482 10.5111 6.92785C10.7921 6.97392 11.0581 7.06951 11.3046 7.21232C11.3403 7.23305 11.3645 7.26759 11.3702 7.3079L11.9173 10.7594C11.9242 10.7997 11.9115 10.84 11.885 10.8699C11.5821 11.205 11.1963 11.4457 10.7679 11.5667L10.5617 11.6254L10.64 11.8258C11.3472 13.6235 12.7845 15.0619 14.5834 15.769L14.7838 15.8473L14.8414 15.64C14.9623 15.2105 15.203 14.8247 15.5381 14.5229C15.5623 14.5011 15.5946 14.4884 15.628 14.4884C15.6349 14.4884 15.6429 14.4884 15.6498 14.4907L19.1003 15.0377C19.1417 15.0446 19.1751 15.0677 19.197 15.1034C19.3387 15.3498 19.4342 15.617 19.4815 15.8968C19.5033 16.0224 19.5149 16.1537 19.5149 16.2919C19.5149 17.6036 18.4461 18.6712 17.1332 18.6735V18.6723Z" fill="white"/>
<path d="M26.3216 11.6155C26.0417 8.45767 24.5952 5.52903 22.2481 3.3697C19.8871 1.19655 16.8225 0 13.6186 0C6.58643 0 0.86491 5.72137 0.86491 12.7533C0.86491 15.113 1.51559 17.4128 2.74788 19.4155L0 25.4997L8.8011 24.5622C10.3317 25.1887 11.9521 25.5066 13.6186 25.5066C14.0574 25.5066 14.5065 25.4836 14.9568 25.4375C15.3541 25.3949 15.7549 25.3327 16.1499 25.2532C22.0396 24.0636 26.3388 18.8363 26.3722 12.8212V12.7533C26.3722 12.3698 26.3549 11.9875 26.3204 11.6166L26.3216 11.6155ZM9.13853 21.8916L4.26927 22.4098L5.72382 19.1887L5.4336 18.7983C5.41172 18.7695 5.39098 18.7407 5.36679 18.7084C4.10456 16.966 3.43774 14.9069 3.43774 12.7521C3.43774 7.13789 8.0053 2.57162 13.6186 2.57162C18.8783 2.57162 23.3352 6.67492 23.7648 11.9126C23.7878 12.1936 23.7994 12.4757 23.7994 12.7533C23.7994 12.8328 23.7982 12.9111 23.7959 12.994C23.6877 17.6904 20.4065 21.6785 15.8171 22.6943C15.467 22.7726 15.1077 22.8313 14.7495 22.8705C14.3775 22.9131 13.9963 22.9338 13.6174 22.9338C12.2688 22.9338 10.9582 22.6724 9.71898 22.1564C9.58193 22.1012 9.44719 22.0424 9.3205 21.9814L9.13625 21.8927L9.13853 21.8916Z" fill="white"/>
</svg>
