<svg width="333" height="41" viewBox="0 0 333 41" fill="none" xmlns="http://www.w3.org/2000/svg">
<path d="M6.79492 0.849609H149.498C152.782 0.849609 155.444 3.51127 155.444 6.79492V33.9766C155.444 37.2604 152.782 39.9229 149.498 39.9229H6.79492C3.51127 39.9226 0.849609 37.2603 0.849609 33.9766V6.79492C0.849854 3.51142 3.51142 0.849852 6.79492 0.849609Z" stroke="#FA541C" stroke-width="1.69884"/>
<path d="M37.8872 17.0576L38.8494 18.0198L37.8872 18.982L36.925 18.0198L37.8872 17.0576ZM35.4584 27.4563L35.0669 26.4012C35.788 26.2463 36.3631 26.0097 36.7922 25.6911C37.2214 25.377 37.5311 24.9988 37.7213 24.5564C37.916 24.1139 38.0133 23.6251 38.0133 23.0898C38.0133 22.7137 37.9713 22.32 37.8872 21.9085C37.8076 21.4927 37.6947 21.0702 37.5488 20.6411L38.6503 20.2694C38.8052 20.7118 38.9224 21.1542 39.0021 21.5967C39.0861 22.0391 39.1281 22.4704 39.1281 22.8907C39.1281 23.6295 38.9976 24.313 38.7366 24.9412C38.48 25.5739 38.0796 26.1092 37.5355 26.5472C36.9957 26.9896 36.3034 27.2926 35.4584 27.4563ZM40.8204 14.7482H41.9419V21.0923C41.9419 21.7161 42.0569 22.1364 42.2869 22.3532C42.517 22.5699 42.8643 22.6783 43.3288 22.6783H43.4947V23.8861H43.3288C42.4838 23.8861 41.8534 23.6627 41.4375 23.2159C41.0261 22.7646 40.8204 22.0545 40.8204 21.0857V14.7482ZM43.216 22.6783H43.7469V23.8861H43.216V22.6783ZM45.6116 24.9412L46.5407 25.8637L45.6116 26.7994L44.6892 25.8637L45.6116 24.9412ZM43.4084 24.9412L44.3375 25.8637L43.4084 26.7994L42.486 25.8637L43.4084 24.9412ZM45.7244 19.9642L46.8327 19.8314L46.9388 21.3843C46.9565 21.6674 47.0185 21.9063 47.1247 22.101C47.2308 22.2912 47.379 22.435 47.5693 22.5323C47.7639 22.6297 48.0028 22.6783 48.286 22.6783H48.4253V23.8861H48.2727C47.9453 23.8861 47.6622 23.8463 47.4233 23.7667C47.1844 23.687 46.9809 23.572 46.8128 23.4216C46.6446 23.2712 46.5009 23.0876 46.3814 22.8708C46.1425 23.2203 45.8284 23.4769 45.4391 23.6406C45.0498 23.8043 44.6427 23.8861 44.218 23.8861H43.581V22.6783H44.218C44.7799 22.6783 45.1803 22.5523 45.4192 22.3001C45.6625 22.0479 45.7842 21.6608 45.7842 21.1388C45.7842 20.9264 45.7775 20.7251 45.7643 20.5349C45.7554 20.3446 45.7421 20.1544 45.7244 19.9642ZM48.1665 22.6783H48.6377V23.8861H48.1665V22.6783ZM51.0864 16.7058L52.0155 17.6283L51.0864 18.564L50.164 17.6283L51.0864 16.7058ZM48.8832 16.7058L49.8123 17.6283L48.8832 18.564L47.9608 17.6283L48.8832 16.7058ZM50.602 19.9642L51.7102 19.8314L51.8164 21.3843C51.8341 21.6674 51.896 21.9063 52.0022 22.101C52.1084 22.2912 52.2566 22.435 52.4468 22.5323C52.6415 22.6297 52.8804 22.6783 53.1635 22.6783H53.3029V23.8861H53.1502C52.8229 23.8861 52.5397 23.8463 52.3008 23.7667C52.0619 23.687 51.8584 23.572 51.6903 23.4216C51.5222 23.2712 51.3784 23.0876 51.2589 22.8708C51.02 23.2203 50.7059 23.4769 50.3166 23.6406C49.9273 23.8043 49.5203 23.8861 49.0956 23.8861H48.4585V22.6783H49.0956C49.6574 22.6783 50.0578 22.5523 50.2967 22.3001C50.54 22.0479 50.6617 21.6608 50.6617 21.1388C50.6617 20.9264 50.6551 20.7251 50.6418 20.5349C50.6329 20.3446 50.6197 20.1544 50.602 19.9642ZM57.3509 20.3026C57.1297 20.3026 56.9284 20.3778 56.747 20.5282C56.5656 20.6742 56.4019 20.8645 56.2559 21.0989C56.1099 21.3334 55.9794 21.5767 55.8644 21.8289C56.006 21.9749 56.1453 22.1054 56.2825 22.2204C56.4196 22.331 56.5546 22.4284 56.6873 22.5124C56.8731 22.6319 57.0478 22.7204 57.2115 22.7779C57.3796 22.8354 57.5279 22.8641 57.6561 22.8641C57.988 22.8641 58.2335 22.7801 58.3928 22.612C58.5564 22.4439 58.6383 22.1983 58.6383 21.8754C58.6383 21.4153 58.5233 21.0392 58.2932 20.7472C58.0676 20.4508 57.7535 20.3026 57.3509 20.3026ZM57.6694 24.0387C57.373 24.0387 57.0943 23.9945 56.8333 23.906C56.5723 23.822 56.3157 23.6937 56.0635 23.5211C55.8113 23.3486 55.5503 23.134 55.2804 22.8774C55.0902 23.0942 54.9066 23.2778 54.7296 23.4282C54.5527 23.5786 54.3558 23.6937 54.139 23.7733C53.9222 23.8485 53.6524 23.8861 53.3294 23.8861H53.0374V22.6783H53.2962C53.5926 22.6783 53.8426 22.5943 54.0461 22.4262C54.2496 22.2536 54.431 22.0324 54.5903 21.7626C54.7495 21.4927 54.9066 21.2073 55.0614 20.9065C55.2207 20.6012 55.3977 20.3137 55.5923 20.0438C55.787 19.7739 56.0215 19.5549 56.2957 19.3868C56.5745 19.2143 56.9173 19.128 57.3243 19.128C57.8154 19.128 58.2423 19.2475 58.6051 19.4864C58.9723 19.7208 59.2555 20.0372 59.4545 20.4353C59.658 20.8335 59.7598 21.2781 59.7598 21.7692C59.7598 22.247 59.6779 22.6562 59.5143 22.9969C59.3506 23.3331 59.1117 23.5919 58.7976 23.7733C58.4879 23.9503 58.1118 24.0387 57.6694 24.0387ZM62.5536 14.7482V23.8795H61.4321V14.7482H62.5536ZM72.6073 22.7513C72.6073 23.6096 72.448 24.3551 72.1295 24.9877C71.8154 25.6248 71.342 26.1468 70.7094 26.5538C70.0811 26.9653 69.2959 27.2617 68.3535 27.4431L67.962 26.3879C68.6433 26.2552 69.2317 26.0672 69.7272 25.8239C70.2271 25.5805 70.6253 25.2797 70.9217 24.9213C71.2181 24.5674 71.4017 24.1626 71.4725 23.7069C71.3044 23.76 71.1097 23.8065 70.8885 23.8463C70.6673 23.8861 70.4727 23.906 70.3046 23.906C69.5082 23.906 68.9043 23.7357 68.4929 23.395C68.0859 23.0544 67.8824 22.539 67.8824 21.8488C67.8824 21.5214 67.931 21.1941 68.0284 20.8667C68.1301 20.5349 68.2761 20.2318 68.4664 19.9575C68.661 19.6788 68.8977 19.4554 69.1764 19.2873C69.4551 19.1192 69.7715 19.0351 70.1254 19.0351C70.5457 19.0351 70.9107 19.1391 71.2203 19.347C71.5345 19.5549 71.7933 19.8359 71.9968 20.1898C72.2003 20.5437 72.3529 20.9419 72.4547 21.3843C72.5564 21.8267 72.6073 22.2824 72.6073 22.7513ZM70.3377 22.7049C70.5236 22.7049 70.716 22.6916 70.9151 22.6651C71.1142 22.6341 71.3088 22.5899 71.4991 22.5323C71.4769 22.1607 71.4305 21.8333 71.3597 21.5502C71.2933 21.2626 71.2026 21.0215 71.0876 20.8269C70.9726 20.6278 70.8332 20.4796 70.6695 20.3822C70.5103 20.2805 70.3245 20.2296 70.1121 20.2296C69.8201 20.2296 69.5923 20.3203 69.4286 20.5017C69.2693 20.6831 69.1565 20.8976 69.0902 21.1454C69.0282 21.3887 68.9973 21.6099 68.9973 21.809C68.9973 22.132 69.1079 22.362 69.3291 22.4992C69.5503 22.6363 69.8865 22.7049 70.3377 22.7049ZM82.1168 23.8861C81.8116 23.8861 81.555 23.8463 81.347 23.7667C81.1435 23.6826 80.9843 23.5941 80.8692 23.5012C80.8029 24.0808 80.6414 24.6404 80.3848 25.1801C80.1326 25.7243 79.7522 26.1977 79.2434 26.6003C78.7346 27.0029 78.0622 27.286 77.226 27.4497L76.8345 26.4012C77.5556 26.2463 78.1307 26.0097 78.5599 25.6911C78.989 25.377 79.2987 24.9988 79.4889 24.5564C79.6836 24.1139 79.7809 23.6251 79.7809 23.0898C79.7809 22.7137 79.7389 22.32 79.6548 21.9085C79.5752 21.4927 79.4624 21.0702 79.3164 20.6411L80.418 20.2694L80.7763 21.6564C80.8737 22.028 81.0285 22.2912 81.2409 22.4461C81.4532 22.6009 81.7209 22.6783 82.0438 22.6783H82.296V23.8861H82.1168ZM87.7044 15.3056L88.6667 16.2679L87.7044 17.2301L86.7422 16.2679L87.7044 15.3056ZM87.8239 19.7452C87.5629 19.7452 87.293 19.8071 87.0143 19.931C86.74 20.0504 86.4568 20.234 86.1649 20.4818C85.8773 20.7251 85.5831 21.0304 85.2823 21.3976C84.9858 21.7648 84.6828 22.1917 84.3731 22.6783H85.4482C86.0808 22.6783 86.6316 22.6474 87.1005 22.5854C87.5695 22.5235 87.9588 22.4284 88.2685 22.3001C88.5782 22.1718 88.8104 22.0081 88.9653 21.809C89.1201 21.6099 89.1976 21.3732 89.1976 21.0989C89.1976 20.7096 89.0715 20.3867 88.8193 20.1301C88.5671 19.8735 88.2353 19.7452 87.8239 19.7452ZM87.7973 18.5374C88.2973 18.5374 88.7397 18.648 89.1246 18.8692C89.5139 19.086 89.8191 19.3824 90.0403 19.7585C90.2615 20.1345 90.3721 20.5592 90.3721 21.0326C90.3677 21.3201 90.3213 21.59 90.2328 21.8422C90.1487 22.0944 90.0226 22.331 89.8545 22.5523C89.9386 22.5744 90.0381 22.5965 90.1532 22.6186C90.2726 22.6363 90.4208 22.6518 90.5978 22.6651C90.7792 22.6739 91.0048 22.6783 91.2747 22.6783H91.4737V23.8861H91.2813C90.7194 23.8861 90.2549 23.8286 89.8877 23.7136C89.5249 23.5985 89.2197 23.4393 88.9719 23.2358C88.6092 23.4393 88.1314 23.5985 87.5385 23.7136C86.9457 23.8286 86.2578 23.8861 85.4747 23.8861H82.0372V22.6783H83.1653C83.2494 22.5368 83.3379 22.3974 83.4308 22.2603C83.5237 22.1187 83.6122 21.9793 83.6962 21.8422V14.7482H84.8177V20.2628C85.0566 19.9752 85.2955 19.7253 85.5344 19.5129C85.7733 19.2961 86.0144 19.117 86.2578 18.9754C86.5055 18.8294 86.7555 18.721 87.0076 18.6502C87.2642 18.575 87.5275 18.5374 87.7973 18.5374ZM92.29 23.8861H91.2083V22.6783H92.2767C92.7191 22.6783 93.0177 22.55 93.1726 22.2934C93.3318 22.0368 93.4115 21.7117 93.4115 21.3179C93.4115 21.0304 93.3849 20.7229 93.3318 20.3955C93.2788 20.0681 93.2212 19.7385 93.1593 19.4067L94.314 19.1147C94.3892 19.4687 94.4489 19.816 94.4932 20.1566C94.5374 20.4973 94.5595 20.8224 94.5595 21.1321C94.5595 21.663 94.4865 22.1364 94.3405 22.5523C94.1945 22.9681 93.9556 23.2955 93.6238 23.5344C93.292 23.7689 92.8474 23.8861 92.29 23.8861ZM93.0996 16.0555L94.0618 17.0177L93.0996 17.98L92.1373 17.0177L93.0996 16.0555ZM106.007 17.3761L106.936 18.2985L106.007 19.2342L105.084 18.2985L106.007 17.3761ZM103.804 17.3761L104.733 18.2985L103.804 19.2342L102.881 18.2985L103.804 17.3761ZM108.92 19.9642L110.028 19.8314L110.141 21.3843C110.168 21.8046 110.287 22.1253 110.499 22.3465C110.716 22.5677 111.039 22.6783 111.468 22.6783H111.628V23.8861H111.468C110.968 23.8861 110.557 23.7932 110.234 23.6074C109.915 23.4172 109.652 23.1141 109.444 22.6982C109.077 23.123 108.606 23.4282 108.031 23.614C107.46 23.7954 106.666 23.8861 105.648 23.8861H104.54C103.704 23.8861 102.972 23.833 102.344 23.7268C101.72 23.6207 101.198 23.4503 100.778 23.2159C100.362 22.977 100.048 22.6651 99.8352 22.2802C99.6273 21.8953 99.5233 21.4241 99.5233 20.8667C99.5233 20.5614 99.5565 20.2628 99.6229 19.9708C99.6937 19.6788 99.7844 19.3979 99.895 19.128L100.924 19.5129C100.853 19.7076 100.793 19.9155 100.744 20.1367C100.7 20.3579 100.678 20.5681 100.678 20.7671C100.678 21.1565 100.76 21.475 100.924 21.7227C101.087 21.9705 101.328 22.1651 101.647 22.3067C101.97 22.4439 102.372 22.5412 102.855 22.5987C103.337 22.6518 103.899 22.6783 104.54 22.6783H105.648C106.352 22.6783 106.951 22.6319 107.447 22.539C107.947 22.4416 108.327 22.2824 108.588 22.0612C108.849 21.8356 108.98 21.5281 108.98 21.1388C108.98 20.9574 108.973 20.7627 108.96 20.5548C108.951 20.3469 108.938 20.15 108.92 19.9642ZM111.362 22.6783H111.681V23.8861H111.362V22.6783ZM112.729 24.9014L113.691 25.8637L112.729 26.8259L111.767 25.8637L112.729 24.9014ZM113.645 19.9642L114.753 19.8314L114.859 21.3843C114.877 21.6674 114.939 21.9063 115.045 22.101C115.151 22.2912 115.3 22.435 115.49 22.5323C115.684 22.6297 115.923 22.6783 116.206 22.6783H116.346V23.8861H116.193C115.866 23.8861 115.583 23.8463 115.344 23.7667C115.105 23.687 114.901 23.572 114.733 23.4216C114.565 23.2712 114.421 23.0876 114.302 22.8708C114.063 23.2203 113.749 23.4769 113.36 23.6406C112.97 23.8043 112.563 23.8861 112.139 23.8861H111.501V22.6783H112.139C112.7 22.6783 113.101 22.5523 113.34 22.3001C113.583 22.0479 113.705 21.6608 113.705 21.1388C113.705 20.9264 113.698 20.7251 113.685 20.5349C113.676 20.3446 113.663 20.1544 113.645 19.9642ZM116.08 22.6783H116.552V23.8861H116.08V22.6783ZM117.899 14.6155L118.795 15.5113L117.899 16.4072L117.003 15.5113L117.899 14.6155ZM119.033 16.2944L119.929 17.1903L119.033 18.0862L118.138 17.1903L119.033 16.2944ZM116.764 16.2944L117.66 17.1903L116.764 18.0862L115.868 17.1903L116.764 16.2944ZM117.454 23.8861H116.372V22.6783H117.441C117.883 22.6783 118.182 22.55 118.337 22.2934C118.496 22.0368 118.576 21.7117 118.576 21.3179C118.576 21.0304 118.549 20.7229 118.496 20.3955C118.443 20.0681 118.385 19.7385 118.323 19.4067L119.478 19.1147C119.553 19.4687 119.613 19.816 119.657 20.1566C119.702 20.4973 119.724 20.8224 119.724 21.1321C119.724 21.663 119.651 22.1364 119.505 22.5523C119.359 22.9681 119.12 23.2955 118.788 23.5344C118.456 23.7689 118.012 23.8861 117.454 23.8861Z" fill="#FA541C"/>
<path d="M186.311 13.9654C186.55 13.5137 187.197 13.5137 187.435 13.9654L189.324 17.5452C189.416 17.7194 189.583 17.8411 189.777 17.8747L193.765 18.5647C194.269 18.6518 194.469 19.267 194.113 19.6333L191.292 22.5358C191.154 22.677 191.09 22.874 191.118 23.0689L191.695 27.0752C191.767 27.5807 191.244 27.961 190.786 27.7356L187.153 25.9496C186.977 25.8627 186.77 25.8627 186.593 25.9496L182.961 27.7356C182.502 27.961 181.979 27.5807 182.052 27.0752L182.628 23.0689C182.656 22.874 182.592 22.677 182.455 22.5358L179.634 19.6333C179.278 19.267 179.478 18.6518 179.981 18.5647L183.969 17.8747C184.163 17.8411 184.331 17.7194 184.423 17.5452L186.311 13.9654Z" fill="#FF991F"/>
<path d="M220.288 13.9654C220.526 13.5137 221.173 13.5137 221.411 13.9654L223.3 17.5452C223.392 17.7194 223.56 17.8411 223.754 17.8747L227.742 18.5647C228.245 18.6518 228.445 19.267 228.089 19.6333L225.268 22.5358C225.131 22.677 225.067 22.874 225.095 23.0689L225.671 27.0752C225.744 27.5807 225.22 27.961 224.762 27.7356L221.13 25.9496C220.953 25.8627 220.746 25.8627 220.569 25.9496L216.937 27.7356C216.479 27.961 215.956 27.5807 216.028 27.0752L216.604 23.0689C216.632 22.874 216.568 22.677 216.431 22.5358L213.61 19.6333C213.254 19.267 213.454 18.6518 213.957 18.5647L217.946 17.8747C218.14 17.8411 218.307 17.7194 218.399 17.5452L220.288 13.9654Z" fill="#FF991F"/>
<path d="M254.265 13.9654C254.504 13.5137 255.151 13.5137 255.389 13.9654L257.278 17.5452C257.37 17.7194 257.537 17.8411 257.731 17.8747L261.719 18.5647C262.223 18.6518 262.423 19.267 262.067 19.6333L259.246 22.5358C259.108 22.677 259.044 22.874 259.072 23.0689L259.649 27.0752C259.721 27.5807 259.198 27.961 258.74 27.7356L255.107 25.9496C254.931 25.8627 254.724 25.8627 254.547 25.9496L250.915 27.7356C250.456 27.961 249.933 27.5807 250.006 27.0752L250.582 23.0689C250.61 22.874 250.546 22.677 250.409 22.5358L247.588 19.6333C247.232 19.267 247.432 18.6518 247.935 18.5647L251.923 17.8747C252.117 17.8411 252.285 17.7194 252.377 17.5452L254.265 13.9654Z" fill="#FF991F"/>
<path d="M288.242 13.9654C288.48 13.5137 289.127 13.5137 289.366 13.9654L291.254 17.5452C291.346 17.7194 291.514 17.8411 291.708 17.8747L295.696 18.5647C296.199 18.6518 296.399 19.267 296.043 19.6333L293.222 22.5358C293.085 22.677 293.021 22.874 293.049 23.0689L293.625 27.0752C293.698 27.5807 293.175 27.961 292.716 27.7356L289.084 25.9496C288.907 25.8627 288.7 25.8627 288.524 25.9496L284.891 27.7356C284.433 27.961 283.91 27.5807 283.982 27.0752L284.559 23.0689C284.587 22.874 284.523 22.677 284.385 22.5358L281.564 19.6333C281.208 19.267 281.408 18.6518 281.912 18.5647L285.9 17.8747C286.094 17.8411 286.261 17.7194 286.353 17.5452L288.242 13.9654Z" fill="#CBCBCB"/>
<path d="M322.219 13.9654C322.457 13.5137 323.104 13.5137 323.342 13.9654L325.231 17.5452C325.323 17.7194 325.49 17.8411 325.684 17.8747L329.673 18.5647C330.176 18.6518 330.376 19.267 330.02 19.6333L327.199 22.5358C327.062 22.677 326.998 22.874 327.026 23.0689L327.602 27.0752C327.674 27.5807 327.151 27.961 326.693 27.7356L323.061 25.9496C322.884 25.8627 322.677 25.8627 322.5 25.9496L318.868 27.7356C318.41 27.961 317.886 27.5807 317.959 27.0752L318.535 23.0689C318.563 22.874 318.499 22.677 318.362 22.5358L315.541 19.6333C315.185 19.267 315.385 18.6518 315.888 18.5647L319.876 17.8747C320.07 17.8411 320.238 17.7194 320.33 17.5452L322.219 13.9654Z" fill="#CBCBCB"/>
</svg>
