<svg width="14" height="14" viewBox="0 0 14 14" fill="none" xmlns="http://www.w3.org/2000/svg">
<path d="M6.9999 13.2706C6.8599 13.2706 6.71991 13.2532 6.58574 13.2123C3.55824 12.3782 1.3649 9.54897 1.3649 6.48063V3.91979C1.3649 3.26646 1.8374 2.56065 2.44407 2.30982L5.69324 0.979805C6.53907 0.635638 7.46656 0.635638 8.30656 0.979805L11.5557 2.30982C12.1624 2.56065 12.6349 3.26646 12.6349 3.91979V6.48063C12.6349 9.54313 10.4357 12.3723 7.41406 13.2123C7.2799 13.2532 7.1399 13.2706 6.9999 13.2706ZM6.9999 1.60398C6.6674 1.60398 6.34073 1.66815 6.02573 1.79649L2.77657 3.12647C2.49657 3.24313 2.2399 3.6223 2.2399 3.92563V6.48647C2.2399 9.16397 4.1649 11.6373 6.81907 12.3723C6.93574 12.4073 7.06407 12.4073 7.18073 12.3723C9.8349 11.6373 11.7599 9.16397 11.7599 6.48647V3.92563C11.7599 3.6223 11.5032 3.24313 11.2232 3.12647L7.97408 1.79649C7.65908 1.66815 7.3324 1.60398 6.9999 1.60398Z" fill="#ADADAD"/>
<path d="M7.00001 7.72909C6.11334 7.72909 5.39584 7.01159 5.39584 6.12492C5.39584 5.23825 6.11334 4.52075 7.00001 4.52075C7.88668 4.52075 8.60418 5.23825 8.60418 6.12492C8.60418 7.01159 7.88668 7.72909 7.00001 7.72909ZM7.00001 5.39575C6.59751 5.39575 6.27084 5.72242 6.27084 6.12492C6.27084 6.52742 6.59751 6.85409 7.00001 6.85409C7.40251 6.85409 7.72918 6.52742 7.72918 6.12492C7.72918 5.72242 7.40251 5.39575 7.00001 5.39575Z" fill="#ADADAD"/>
<path d="M7 9.47925C6.76083 9.47925 6.5625 9.28091 6.5625 9.04175V7.29175C6.5625 7.05258 6.76083 6.85425 7 6.85425C7.23917 6.85425 7.4375 7.05258 7.4375 7.29175V9.04175C7.4375 9.28091 7.23917 9.47925 7 9.47925Z" fill="#ADADAD"/>
</svg>
