<svg width="21" height="21" viewBox="0 0 21 21" fill="none" xmlns="http://www.w3.org/2000/svg">
<path d="M15.4507 15.0772H6.40438C5.56345 15.0772 4.7565 14.7205 4.18739 14.1004C3.61828 13.4803 3.32948 12.6479 3.39743 11.8069L4.10245 3.34671C4.12794 3.08339 4.03449 2.82857 3.85611 2.6332C3.67774 2.43784 3.43141 2.3359 3.16808 2.3359H1.69859C1.35033 2.3359 1.06152 2.0471 1.06152 1.69883C1.06152 1.35057 1.35033 1.06177 1.69859 1.06177H3.17659C3.79666 1.06177 4.38276 1.32509 4.79897 1.77528C5.02832 2.0301 5.1982 2.32741 5.29164 2.65868H15.9009C16.7588 2.65868 17.5488 2.99845 18.1264 3.61003C18.6955 4.23011 18.9843 5.03706 18.9164 5.89498L18.4577 12.2656C18.3642 13.8201 17.0052 15.0772 15.4507 15.0772ZM5.33411 3.92431L4.67156 11.9089C4.62909 12.4015 4.79048 12.8687 5.12176 13.234C5.45303 13.5992 5.91171 13.7946 6.40438 13.7946H15.4507C16.3341 13.7946 17.1326 13.0471 17.2005 12.1637L17.6592 5.79305C17.6932 5.29189 17.5318 4.81622 17.2005 4.46796C16.8693 4.1112 16.4106 3.91581 15.9094 3.91581H5.33411V3.92431Z" fill="white"/>
<path d="M13.8033 19.3244C12.869 19.3244 12.1045 18.56 12.1045 17.6256C12.1045 16.6912 12.869 15.9268 13.8033 15.9268C14.7377 15.9268 15.5022 16.6912 15.5022 17.6256C15.5022 18.56 14.7377 19.3244 13.8033 19.3244ZM13.8033 17.2009C13.5655 17.2009 13.3786 17.3878 13.3786 17.6256C13.3786 17.8634 13.5655 18.0503 13.8033 18.0503C14.0412 18.0503 14.228 17.8634 14.228 17.6256C14.228 17.3878 14.0412 17.2009 13.8033 17.2009Z" fill="white"/>
<path d="M7.00744 19.3244C6.07307 19.3244 5.30859 18.56 5.30859 17.6256C5.30859 16.6912 6.07307 15.9268 7.00744 15.9268C7.9418 15.9268 8.70628 16.6912 8.70628 17.6256C8.70628 18.56 7.9418 19.3244 7.00744 19.3244ZM7.00744 17.2009C6.7696 17.2009 6.58273 17.3878 6.58273 17.6256C6.58273 17.8634 6.7696 18.0503 7.00744 18.0503C7.24527 18.0503 7.43215 17.8634 7.43215 17.6256C7.43215 17.3878 7.24527 17.2009 7.00744 17.2009Z" fill="white"/>
<path d="M17.8379 7.43234H7.64488C7.29662 7.43234 7.00781 7.14353 7.00781 6.79527C7.00781 6.44701 7.29662 6.1582 7.64488 6.1582H17.8379C18.1862 6.1582 18.475 6.44701 18.475 6.79527C18.475 7.14353 18.1862 7.43234 17.8379 7.43234Z" fill="white"/>
</svg>
