<svg width="99" height="28" viewBox="0 0 99 28" fill="none" xmlns="http://www.w3.org/2000/svg">
<path d="M18.1255 9.66507C18.3638 9.21338 19.0107 9.21338 19.249 9.66507L20.2723 11.6047C20.3642 11.7788 20.5317 11.9005 20.7258 11.9341L22.8867 12.308C23.3899 12.3951 23.5898 13.0103 23.2338 13.3765L21.7054 14.9491C21.5682 15.0904 21.5042 15.2873 21.5322 15.4822L21.8444 17.6529C21.9171 18.1584 21.3937 18.5386 20.9354 18.3133L18.9675 17.3456C18.7907 17.2587 18.5837 17.2587 18.407 17.3456L16.439 18.3133C15.9807 18.5386 15.4574 18.1584 15.5301 17.6529L15.8422 15.4822C15.8703 15.2873 15.8063 15.0904 15.669 14.9491L14.1406 13.3765C13.7847 13.0103 13.9846 12.3951 14.4878 12.308L16.6487 11.9341C16.8427 11.9005 17.0102 11.7788 17.1021 11.6047L18.1255 9.66507Z" fill="#FF991F"/>
<path d="M33.4155 9.66507C33.6538 9.21338 34.3007 9.21338 34.539 9.66507L35.5624 11.6047C35.6543 11.7788 35.8218 11.9005 36.0158 11.9341L38.1767 12.308C38.6799 12.3951 38.8798 13.0103 38.5239 13.3765L36.9955 14.9491C36.8582 15.0904 36.7942 15.2873 36.8223 15.4822L37.1344 17.6529C37.2071 18.1584 36.6838 18.5386 36.2255 18.3133L34.2575 17.3456C34.0808 17.2587 33.8737 17.2587 33.697 17.3456L31.729 18.3133C31.2708 18.5386 30.7474 18.1584 30.8201 17.6529L31.1323 15.4822C31.1603 15.2873 31.0963 15.0904 30.9591 14.9491L29.4306 13.3765C29.0747 13.0103 29.2746 12.3951 29.7778 12.308L31.9387 11.9341C32.1328 11.9005 32.3003 11.7788 32.3922 11.6047L33.4155 9.66507Z" fill="#FF991F"/>
<path d="M48.7046 9.66507C48.9429 9.21338 49.5898 9.21338 49.8281 9.66507L50.8514 11.6047C50.9433 11.7788 51.1108 11.9005 51.3049 11.9341L53.4658 12.308C53.969 12.3951 54.1689 13.0103 53.813 13.3765L52.2845 14.9491C52.1473 15.0904 52.0833 15.2873 52.1113 15.4822L52.4235 17.6529C52.4962 18.1584 51.9728 18.5386 51.5145 18.3133L49.5466 17.3456C49.3698 17.2587 49.1628 17.2587 48.9861 17.3456L47.0181 18.3133C46.5598 18.5386 46.0365 18.1584 46.1092 17.6529L46.4213 15.4822C46.4494 15.2873 46.3854 15.0904 46.2481 14.9491L44.7197 13.3765C44.3638 13.0103 44.5637 12.3951 45.0669 12.308L47.2278 11.9341C47.4218 11.9005 47.5893 11.7788 47.6812 11.6047L48.7046 9.66507Z" fill="#FF991F"/>
<path d="M63.9946 9.66507C64.2329 9.21338 64.8798 9.21338 65.1181 9.66507L66.1415 11.6047C66.2334 11.7788 66.4009 11.9005 66.5949 11.9341L68.7558 12.308C69.259 12.3951 69.4589 13.0103 69.103 13.3765L67.5746 14.9491C67.4373 15.0904 67.3733 15.2873 67.4014 15.4822L67.7135 17.6529C67.7862 18.1584 67.2629 18.5386 66.8046 18.3133L64.8366 17.3456C64.6599 17.2587 64.4528 17.2587 64.2761 17.3456L62.3082 18.3133C61.8499 18.5386 61.3265 18.1584 61.3992 17.6529L61.7114 15.4822C61.7394 15.2873 61.6754 15.0904 61.5382 14.9491L60.0097 13.3765C59.6538 13.0103 59.8537 12.3951 60.3569 12.308L62.5178 11.9341C62.7119 11.9005 62.8794 11.7788 62.9713 11.6047L63.9946 9.66507Z" fill="#FF991F"/>
<path d="M79.2837 9.66507C79.522 9.21338 80.1689 9.21338 80.4072 9.66507L81.4305 11.6047C81.5224 11.7788 81.6899 11.9005 81.884 11.9341L84.0449 12.308C84.5481 12.3951 84.748 13.0103 84.3921 13.3765L82.8636 14.9491C82.7264 15.0904 82.6624 15.2873 82.6904 15.4822L83.0026 17.6529C83.0753 18.1584 82.5519 18.5386 82.0936 18.3133L80.1257 17.3456C79.949 17.2587 79.7419 17.2587 79.5652 17.3456L77.5972 18.3133C77.1389 18.5386 76.6156 18.1584 76.6883 17.6529L77.0004 15.4822C77.0285 15.2873 76.9645 15.0904 76.8272 14.9491L75.2988 13.3765C74.9429 13.0103 75.1428 12.3951 75.646 12.308L77.8069 11.9341C78.0009 11.9005 78.1684 11.7788 78.2603 11.6047L79.2837 9.66507Z" fill="#CBCBCB"/>
</svg>
