<svg width="99" height="28" viewBox="0 0 99 28" fill="none" xmlns="http://www.w3.org/2000/svg">
<path d="M18.1255 9.66519C18.3638 9.21351 19.0107 9.21351 19.249 9.66519L20.2723 11.6048C20.3642 11.779 20.5317 11.9007 20.7258 11.9342L22.8867 12.3081C23.3899 12.3952 23.5898 13.0104 23.2338 13.3767L21.7054 14.9493C21.5682 15.0905 21.5042 15.2874 21.5322 15.4823L21.8444 17.653C21.9171 18.1585 21.3937 18.5387 20.9354 18.3134L18.9675 17.3457C18.7907 17.2588 18.5837 17.2588 18.407 17.3457L16.439 18.3134C15.9807 18.5387 15.4574 18.1585 15.5301 17.653L15.8422 15.4823C15.8703 15.2874 15.8063 15.0905 15.669 14.9493L14.1406 13.3767C13.7847 13.0104 13.9846 12.3952 14.4878 12.3081L16.6487 11.9342C16.8427 11.9007 17.0102 11.779 17.1021 11.6048L18.1255 9.66519Z" fill="#FF991F"/>
<path d="M33.4155 9.66519C33.6538 9.21351 34.3007 9.21351 34.539 9.66519L35.5624 11.6048C35.6543 11.779 35.8218 11.9007 36.0158 11.9342L38.1767 12.3081C38.6799 12.3952 38.8798 13.0104 38.5239 13.3767L36.9955 14.9493C36.8582 15.0905 36.7942 15.2874 36.8223 15.4823L37.1344 17.653C37.2071 18.1585 36.6838 18.5387 36.2255 18.3134L34.2575 17.3457C34.0808 17.2588 33.8737 17.2588 33.697 17.3457L31.729 18.3134C31.2708 18.5387 30.7474 18.1585 30.8201 17.653L31.1323 15.4823C31.1603 15.2874 31.0963 15.0905 30.9591 14.9493L29.4306 13.3767C29.0747 13.0104 29.2746 12.3952 29.7778 12.3081L31.9387 11.9342C32.1328 11.9007 32.3003 11.779 32.3922 11.6048L33.4155 9.66519Z" fill="#FF991F"/>
<path d="M48.7046 9.66519C48.9429 9.21351 49.5898 9.21351 49.8281 9.66519L50.8514 11.6048C50.9433 11.779 51.1108 11.9007 51.3049 11.9342L53.4658 12.3081C53.969 12.3952 54.1689 13.0104 53.813 13.3767L52.2845 14.9493C52.1473 15.0905 52.0833 15.2874 52.1113 15.4823L52.4235 17.653C52.4962 18.1585 51.9728 18.5387 51.5145 18.3134L49.5466 17.3457C49.3698 17.2588 49.1628 17.2588 48.9861 17.3457L47.0181 18.3134C46.5598 18.5387 46.0365 18.1585 46.1092 17.653L46.4213 15.4823C46.4494 15.2874 46.3854 15.0905 46.2481 14.9493L44.7197 13.3767C44.3638 13.0104 44.5637 12.3952 45.0669 12.3081L47.2278 11.9342C47.4218 11.9007 47.5893 11.779 47.6812 11.6048L48.7046 9.66519Z" fill="#FF991F"/>
<path d="M63.9946 9.66519C64.2329 9.21351 64.8798 9.21351 65.1181 9.66519L66.1415 11.6048C66.2334 11.779 66.4009 11.9007 66.5949 11.9342L68.7558 12.3081C69.259 12.3952 69.4589 13.0104 69.103 13.3767L67.5746 14.9493C67.4373 15.0905 67.3733 15.2874 67.4014 15.4823L67.7135 17.653C67.7862 18.1585 67.2629 18.5387 66.8046 18.3134L64.8366 17.3457C64.6599 17.2588 64.4528 17.2588 64.2761 17.3457L62.3082 18.3134C61.8499 18.5387 61.3265 18.1585 61.3992 17.653L61.7114 15.4823C61.7394 15.2874 61.6754 15.0905 61.5382 14.9493L60.0097 13.3767C59.6538 13.0104 59.8537 12.3952 60.3569 12.3081L62.5178 11.9342C62.7119 11.9007 62.8794 11.779 62.9713 11.6048L63.9946 9.66519Z" fill="#CBCBCB"/>
<path d="M79.2837 9.66519C79.522 9.21351 80.1689 9.21351 80.4072 9.66519L81.4305 11.6048C81.5224 11.779 81.6899 11.9007 81.884 11.9342L84.0449 12.3081C84.5481 12.3952 84.748 13.0104 84.3921 13.3767L82.8636 14.9493C82.7264 15.0905 82.6624 15.2874 82.6904 15.4823L83.0026 17.653C83.0753 18.1585 82.5519 18.5387 82.0936 18.3134L80.1257 17.3457C79.949 17.2588 79.7419 17.2588 79.5652 17.3457L77.5972 18.3134C77.1389 18.5387 76.6156 18.1585 76.6883 17.653L77.0004 15.4823C77.0285 15.2874 76.9645 15.0905 76.8272 14.9493L75.2988 13.3767C74.9429 13.0104 75.1428 12.3952 75.646 12.3081L77.8069 11.9342C78.0009 11.9007 78.1684 11.779 78.2603 11.6048L79.2837 9.66519Z" fill="#CBCBCB"/>
</svg>
