<svg width="15" height="15" viewBox="0 0 15 15" fill="none" xmlns="http://www.w3.org/2000/svg">
<path d="M6.85824 0.338654C7.09655 -0.113031 7.74344 -0.113031 7.98175 0.338654L9.8705 3.9185C9.9624 4.09269 10.1299 4.21439 10.324 4.24796L14.3123 4.93804C14.8155 5.02511 15.0154 5.64034 14.6594 6.00657L11.8385 8.90911C11.7012 9.05034 11.6372 9.24725 11.6653 9.44219L12.2414 13.4485C12.3141 13.954 11.7908 14.3343 11.3325 14.1089L7.70025 12.3229C7.52352 12.236 7.31647 12.236 7.13974 12.3229L3.50752 14.1089C3.04923 14.3343 2.52589 13.954 2.59858 13.4485L3.17473 9.44219C3.20277 9.24725 3.13878 9.05034 3.00152 8.90911L0.180542 6.00657C-0.175394 5.64034 0.024506 5.02511 0.527727 4.93804L4.51602 4.24796C4.71008 4.21439 4.87759 4.09269 4.96949 3.9185L6.85824 0.338654Z" fill="#FF991F"/>
</svg>
