<svg width="66" height="68" viewBox="0 0 66 68" fill="none" xmlns="http://www.w3.org/2000/svg">
<path d="M6.30566 0.424805H58.96C62.208 0.424805 64.8417 3.05769 64.8418 6.30566V60.9141C64.8418 64.1621 62.208 66.7959 58.96 66.7959H6.30566C3.05769 66.7958 0.424805 64.1621 0.424805 60.9141V6.30566C0.424897 3.05774 3.05774 0.424901 6.30566 0.424805Z" fill="#EDEDED"/>
<path d="M6.30566 0.424805H58.96C62.208 0.424805 64.8417 3.05769 64.8418 6.30566V60.9141C64.8418 64.1621 62.208 66.7959 58.96 66.7959H6.30566C3.05769 66.7958 0.424805 64.1621 0.424805 60.9141V6.30566C0.424897 3.05774 3.05774 0.424901 6.30566 0.424805Z" stroke="#CBCBCB" stroke-width="0.849421"/>
<path d="M25.2707 27.1182L25.2551 27.1338C25.044 26.6727 24.9112 26.149 24.8564 25.5706C24.9112 26.1411 25.0597 26.657 25.2707 27.1182Z" fill="#021526"/>
<path d="M30.289 20.3727C31.3164 20.3727 32.1493 19.5398 32.1493 18.5124C32.1493 17.485 31.3164 16.6521 30.289 16.6521C29.2616 16.6521 28.4287 17.485 28.4287 18.5124C28.4287 19.5398 29.2616 20.3727 30.289 20.3727Z" fill="#021526"/>
<path d="M35.9087 13.8225H29.3587C26.5135 13.8225 24.8174 15.5186 24.8174 18.3638V24.9138C24.8174 25.7658 24.9659 26.5084 25.2551 27.1337C25.9273 28.6188 27.3655 29.4551 29.3587 29.4551H35.9087C38.7538 29.4551 40.45 27.759 40.45 24.9138V23.1239V18.3638C40.45 15.5186 38.7538 13.8225 35.9087 13.8225ZM39.1759 22.0296C38.5663 21.5059 37.5814 21.5059 36.9717 22.0296L33.7201 24.82C33.1105 25.3437 32.1256 25.3437 31.5159 24.82L31.2502 24.6012C30.6952 24.1166 29.812 24.0697 29.1867 24.4918L26.2634 26.4536C26.0914 26.0159 25.9898 25.5079 25.9898 24.9138V18.3638C25.9898 16.1596 27.1545 14.995 29.3587 14.995H35.9087C38.1129 14.995 39.2775 16.1596 39.2775 18.3638V22.1156L39.1759 22.0296Z" fill="#021526"/>
<path d="M8.32416 50.9612C8.13337 50.9612 7.973 50.9363 7.84305 50.8865C7.71585 50.834 7.61631 50.7787 7.54442 50.7206C7.50294 51.0828 7.40202 51.4326 7.24165 51.77C7.08404 52.1101 6.84625 52.4059 6.52827 52.6575C6.21029 52.9092 5.79 53.0861 5.26741 53.1884L5.0227 52.5331C5.4734 52.4363 5.83286 52.2884 6.10107 52.0893C6.36928 51.893 6.56283 51.6566 6.68173 51.3801C6.80339 51.1036 6.86422 50.798 6.86422 50.4635C6.86422 50.2284 6.83795 49.9824 6.78542 49.7252C6.73565 49.4653 6.66514 49.2012 6.57389 48.933L7.26239 48.7008L7.48635 49.5676C7.54719 49.7999 7.64396 49.9644 7.77668 50.0612C7.90941 50.1579 8.07669 50.2063 8.27854 50.2063H8.43615V50.9612H8.32416ZM8.27439 50.2063H8.56887V50.9612H8.27439V50.2063ZM10.0993 46.4735L10.68 47.05L10.0993 47.6348L9.52281 47.05L10.0993 46.4735ZM8.72233 46.4735L9.30299 47.05L8.72233 47.6348L8.14582 47.05L8.72233 46.4735ZM9.79655 48.51L10.4892 48.427L10.5556 49.3975C10.5666 49.5745 10.6053 49.7238 10.6717 49.8455C10.738 49.9644 10.8307 50.0542 10.9496 50.1151C11.0712 50.1759 11.2205 50.2063 11.3975 50.2063H11.4846V50.9612H11.3892C11.1846 50.9612 11.0076 50.9363 10.8583 50.8865C10.709 50.8368 10.5818 50.7649 10.4767 50.6709C10.3717 50.5768 10.2818 50.4621 10.2072 50.3266C10.0578 50.545 9.86153 50.7054 9.6182 50.8077C9.37488 50.91 9.1205 50.9612 8.85505 50.9612H8.45689V50.2063H8.85505C9.20621 50.2063 9.45645 50.1275 9.60576 49.9699C9.75784 49.8123 9.83388 49.5704 9.83388 49.2441C9.83388 49.1114 9.82973 48.9856 9.82143 48.8667C9.8159 48.7478 9.80761 48.6289 9.79655 48.51ZM15.0971 45.5071L15.6571 46.0671L15.0971 46.627L14.5372 46.0671L15.0971 45.5071ZM15.8064 46.5565L16.3663 47.1164L15.8064 47.6763L15.2464 47.1164L15.8064 46.5565ZM14.3879 46.5565L14.9478 47.1164L14.3879 47.6763L13.828 47.1164L14.3879 46.5565ZM16.3829 50.9612C16.1174 50.9612 15.9031 50.9059 15.74 50.7953C15.5769 50.6847 15.4441 50.5285 15.3418 50.3266C15.187 50.5506 15.0142 50.7123 14.8234 50.8119C14.6354 50.9114 14.4308 50.9612 14.2096 50.9612C13.8916 50.9612 13.6455 50.9073 13.4713 50.7994C13.2999 50.6888 13.163 50.5312 13.0607 50.3266C12.9307 50.5312 12.7648 50.6888 12.563 50.7994C12.3611 50.9073 12.0736 50.9612 11.7003 50.9612H11.3187V50.2063H11.7086C11.9464 50.2063 12.1399 50.1787 12.2892 50.1234C12.4385 50.0653 12.5491 49.9699 12.621 49.8372C12.6929 49.7045 12.7289 49.522 12.7289 49.2897C12.7289 49.2399 12.7275 49.186 12.7247 49.128C12.722 49.0699 12.7178 49.0008 12.7123 48.9206C12.7068 48.8376 12.6985 48.7381 12.6874 48.622L13.38 48.5349L13.4464 49.4017C13.463 49.634 13.5335 49.8261 13.6579 49.9782C13.7851 50.1303 13.9718 50.2063 14.2179 50.2063C14.5109 50.2063 14.71 50.1275 14.8151 49.9699C14.9202 49.8123 14.9727 49.5856 14.9727 49.2897C14.9727 49.2399 14.9713 49.186 14.9686 49.128C14.9658 49.0699 14.9616 49.0008 14.9561 48.9206C14.9506 48.8376 14.9423 48.7381 14.9312 48.622L15.6239 48.5349L15.6902 49.4017C15.7041 49.6257 15.7635 49.8165 15.8686 49.9741C15.9737 50.1289 16.1437 50.2063 16.3787 50.2063C16.517 50.2063 16.6304 50.1718 16.7188 50.1026C16.8101 50.0307 16.8778 49.9271 16.9221 49.7916C16.9691 49.6561 16.9926 49.4888 16.9926 49.2897C16.9926 49.1902 16.9884 49.0865 16.9801 48.9786C16.9746 48.8708 16.9649 48.7284 16.9511 48.5514L17.6437 48.4685L17.7101 49.4017C17.7267 49.6671 17.8041 49.8676 17.9424 50.0031C18.0834 50.1386 18.2797 50.2063 18.5313 50.2063H18.6557V50.9612H18.5396C18.2493 50.9612 18.0073 50.9086 17.8138 50.8036C17.6202 50.6957 17.4875 50.5354 17.4156 50.3225C17.2995 50.5271 17.1654 50.6847 17.0133 50.7953C16.864 50.9059 16.6539 50.9612 16.3829 50.9612ZM18.4857 50.2063H18.8175V50.9612H18.4857V50.2063ZM19.983 51.6206L20.5636 52.1972L19.983 52.782L19.4065 52.1972L19.983 51.6206ZM18.606 51.6206L19.1866 52.1972L18.606 52.782L18.0295 52.1972L18.606 51.6206ZM20.0535 48.51L20.7461 48.427L20.8125 49.3975C20.8235 49.5745 20.8623 49.7238 20.9286 49.8455C20.995 49.9644 21.0876 50.0542 21.2065 50.1151C21.3282 50.1759 21.4775 50.2063 21.6544 50.2063H21.7415V50.9612H21.6461C21.4415 50.9612 21.2646 50.9363 21.1153 50.8865C20.9659 50.8368 20.8387 50.7649 20.7337 50.6709C20.6286 50.5768 20.5387 50.4621 20.4641 50.3266C20.3148 50.545 20.1185 50.7054 19.8751 50.8077C19.6318 50.91 19.3774 50.9612 19.112 50.9612H18.7138V50.2063H19.112C19.4631 50.2063 19.7134 50.1275 19.8627 49.9699C20.0148 49.8123 20.0908 49.5704 20.0908 49.2441C20.0908 49.1114 20.0867 48.9856 20.0784 48.8667C20.0728 48.7478 20.0645 48.6289 20.0535 48.51ZM21.5756 50.2063H21.7747V50.9612H21.5756V50.2063ZM22.43 51.5958L23.0314 52.1972L22.43 52.7986L21.8286 52.1972L22.43 51.5958ZM22.3388 50.9612H21.6627V50.2063H22.3305C22.607 50.2063 22.7936 50.1261 22.8904 49.9658C22.99 49.8054 23.0397 49.6022 23.0397 49.3561C23.0397 49.1763 23.0231 48.9842 22.99 48.7796C22.9568 48.5749 22.9208 48.369 22.8821 48.1616L23.6038 47.9791C23.6508 48.2003 23.6881 48.4173 23.7158 48.6303C23.7434 48.8432 23.7573 49.0464 23.7573 49.2399C23.7573 49.5717 23.7116 49.8676 23.6204 50.1275C23.5291 50.3874 23.3798 50.592 23.1724 50.7414C22.9651 50.8879 22.6872 50.9612 22.3388 50.9612ZM29.7007 50.9612C29.5099 50.9612 29.3496 50.9363 29.2196 50.8865C29.0924 50.834 28.9929 50.7787 28.921 50.7206C28.8795 51.0828 28.7786 51.4326 28.6182 51.77C28.4606 52.1101 28.2228 52.4059 27.9048 52.6575C27.5868 52.9092 27.1666 53.0861 26.644 53.1884L26.3993 52.5331C26.85 52.4363 27.2094 52.2884 27.4776 52.0893C27.7458 51.893 27.9394 51.6566 28.0583 51.3801C28.1799 51.1036 28.2408 50.798 28.2408 50.4635C28.2408 50.2284 28.2145 49.9824 28.162 49.7252C28.1122 49.4653 28.0417 49.2012 27.9504 48.933L28.6389 48.7008L28.8629 49.5676C28.9237 49.7999 29.0205 49.9644 29.1532 50.0612C29.286 50.1579 29.4532 50.2063 29.6551 50.2063H29.8127V50.9612H29.7007ZM29.6509 50.2063H30.2772V50.9612H29.6509V50.2063ZM30.8413 50.9612H30.1652V50.2063H30.833C31.1095 50.2063 31.2961 50.1261 31.3929 49.9658C31.4925 49.8054 31.5422 49.6022 31.5422 49.3561C31.5422 49.1763 31.5256 48.9842 31.4925 48.7796C31.4593 48.5749 31.4233 48.369 31.3846 48.1616L32.1063 47.9791C32.1533 48.2003 32.1906 48.4173 32.2183 48.6303C32.2459 48.8432 32.2598 49.0464 32.2598 49.2399C32.2598 49.5717 32.2141 49.8676 32.1229 50.1275C32.0316 50.3874 31.8823 50.592 31.675 50.7414C31.4676 50.8879 31.1897 50.9612 30.8413 50.9612ZM31.4302 51.6206L32.0109 52.1972L31.4302 52.782L30.8537 52.1972L31.4302 51.6206ZM30.0533 51.6206L30.6339 52.1972L30.0533 52.782L29.4767 52.1972L30.0533 51.6206ZM36.034 50.2519C36.034 50.7884 35.9345 51.2543 35.7354 51.6497C35.5391 52.0478 35.2432 52.3741 34.8478 52.6285C34.4552 52.8857 33.9644 53.0709 33.3755 53.1843L33.1307 52.5248C33.5566 52.4419 33.9243 52.3243 34.234 52.1723C34.5465 52.0202 34.7953 51.8322 34.9806 51.6082C35.1658 51.387 35.2806 51.134 35.3248 50.8492C35.2197 50.8824 35.0981 50.9114 34.9598 50.9363C34.8216 50.9612 34.6999 50.9736 34.5948 50.9736C34.0971 50.9736 33.7197 50.8672 33.4626 50.6543C33.2082 50.4414 33.081 50.1192 33.081 49.6879C33.081 49.4833 33.1114 49.2787 33.1722 49.074C33.2358 48.8667 33.3271 48.6773 33.446 48.5058C33.5676 48.3316 33.7156 48.192 33.8898 48.0869C34.064 47.9818 34.2617 47.9293 34.4829 47.9293C34.7455 47.9293 34.9736 47.9943 35.1672 48.1242C35.3635 48.2542 35.5253 48.4298 35.6525 48.651C35.7797 48.8722 35.8751 49.121 35.9386 49.3975C36.0022 49.6741 36.034 49.9589 36.034 50.2519ZM34.6156 50.2229C34.7317 50.2229 34.852 50.2146 34.9764 50.198C35.1008 50.1787 35.2225 50.151 35.3414 50.1151C35.3276 49.8828 35.2985 49.6782 35.2543 49.5012C35.2128 49.3215 35.1561 49.1708 35.0843 49.0492C35.0124 48.9247 34.9253 48.8321 34.823 48.7713C34.7234 48.7077 34.6073 48.6759 34.4746 48.6759C34.2921 48.6759 34.1497 48.7326 34.0474 48.8459C33.9478 48.9593 33.8773 49.0934 33.8358 49.2482C33.7971 49.4003 33.7778 49.5386 33.7778 49.663C33.7778 49.8648 33.8469 50.0086 33.9851 50.0943C34.1234 50.1801 34.3335 50.2229 34.6156 50.2229ZM37.0792 45.25H37.7802V49.2151C37.7802 49.6049 37.8521 49.8676 37.9958 50.0031C38.1396 50.1386 38.3567 50.2063 38.647 50.2063H38.7507V50.9612H38.647C38.1189 50.9612 37.7249 50.8215 37.465 50.5423C37.2078 50.2602 37.0792 49.8165 37.0792 49.2109V45.25ZM43.7775 48.3731C43.6144 48.3731 43.4457 48.4118 43.2715 48.4892C43.1001 48.5639 42.9231 48.6786 42.7407 48.8335C42.5609 48.9856 42.3771 49.1763 42.189 49.4058C42.001 49.6353 41.8102 49.9022 41.6167 50.2063H42.2886C42.684 50.2063 43.0282 50.187 43.3213 50.1483C43.6144 50.1095 43.8577 50.0501 44.0513 49.9699C44.2448 49.8897 44.39 49.7874 44.4868 49.663C44.5836 49.5386 44.6319 49.3906 44.6319 49.2192C44.6319 48.9759 44.5531 48.774 44.3955 48.6137C44.2407 48.4533 44.0347 48.3731 43.7775 48.3731ZM42.3052 50.9612H42.0853C41.6955 50.9612 41.3678 50.9363 41.1024 50.8865C40.8369 50.8368 40.624 50.7649 40.4636 50.6709C40.3033 50.5768 40.1802 50.4635 40.0945 50.3308C39.9341 50.5492 39.753 50.7096 39.5512 50.8119C39.3521 50.9114 39.0867 50.9612 38.7548 50.9612H38.5848L38.5889 50.2063H38.7548C39.142 50.2063 39.4019 50.1248 39.5346 49.9616C39.6701 49.7957 39.7378 49.5565 39.7378 49.2441C39.7378 49.1114 39.7323 48.9883 39.7212 48.875C39.7129 48.7616 39.706 48.6399 39.7005 48.51L40.3931 48.427L40.4553 49.3975C40.4692 49.5828 40.5079 49.7432 40.5715 49.8787C40.6351 50.0114 40.7332 50.0778 40.866 50.0778C41.112 49.6575 41.3554 49.2939 41.5959 48.9869C41.8393 48.6773 42.0798 48.4215 42.3176 48.2196C42.5582 48.0178 42.796 47.8671 43.031 47.7676C43.2688 47.668 43.5066 47.6182 43.7444 47.6182C44.0596 47.6182 44.3389 47.6874 44.5822 47.8256C44.8283 47.9611 45.0204 48.1464 45.1587 48.3814C45.2969 48.6164 45.3661 48.8819 45.3661 49.1777C45.3633 49.3575 45.3356 49.5261 45.2831 49.6837C45.2306 49.8413 45.1518 49.9893 45.0467 50.1275C45.0992 50.1413 45.1615 50.1552 45.2333 50.169C45.308 50.1801 45.4006 50.1897 45.5112 50.198C45.6218 50.2036 45.7615 50.2063 45.9301 50.2063H46.0546V50.9612H45.9343C45.5831 50.9612 45.2928 50.9252 45.0633 50.8533C44.8366 50.7815 44.6458 50.6819 44.4909 50.5547C44.2642 50.6819 43.9656 50.7815 43.5951 50.8533C43.2245 50.9252 42.7946 50.9612 42.3052 50.9612ZM45.8928 50.2063H46.1873V50.9612H45.8928V50.2063ZM47.7177 46.0919L48.2984 46.6685L47.7177 47.2533L47.1412 46.6685L47.7177 46.0919ZM46.3407 46.0919L46.9214 46.6685L46.3407 47.2533L45.7642 46.6685L46.3407 46.0919ZM46.7514 50.9612H46.0753V50.2063H46.7431C47.0196 50.2063 47.2062 50.1261 47.303 49.9658C47.4025 49.8054 47.4523 49.6022 47.4523 49.3561C47.4523 49.1763 47.4357 48.9842 47.4025 48.7796C47.3693 48.5749 47.3334 48.369 47.2947 48.1616L48.0164 47.9791C48.0634 48.2003 48.1007 48.4173 48.1283 48.6303C48.156 48.8432 48.1698 49.0464 48.1698 49.2399C48.1698 49.5717 48.1242 49.8676 48.0329 50.1275C47.9417 50.3874 47.7924 50.592 47.585 50.7414C47.3776 50.8879 47.0997 50.9612 46.7514 50.9612ZM53.4538 49.1197V50.6626H52.8234V49.1197H51.4422V48.4892H52.8234V47.0625H53.4538V48.4892H54.835V49.1197H53.4538ZM59.9987 48.9289V49.5593H55.6354V49.1072L58.3396 44.9223H58.9659L58.294 46.1334L56.5064 48.9289H59.9987ZM59.1567 44.9223V50.9612H58.3894V44.9223H59.1567Z" fill="#021526"/>
</svg>
