<svg width="76" height="17" viewBox="0 0 76 17" fill="none" xmlns="http://www.w3.org/2000/svg">
<g clip-path="url(#clip0_2_4201)">
<path d="M4.45401 5.80356V8.13751H9.9664V11.595H4.45401V15.9463H0V2.35229H10.7413V5.80356H4.45401Z" fill="#FA541C"/>
<path d="M16.2777 5.31934H12.0127V15.9463H16.2777V5.31934Z" fill="#FA541C"/>
<path d="M16.7145 2.15394C16.7145 2.83053 16.4814 3.38298 16.0152 3.8237C15.549 4.25201 14.9316 4.46926 14.1504 4.46926C13.3692 4.46926 12.7456 4.25201 12.2794 3.8237C11.8132 3.40161 11.5801 2.86778 11.5801 2.23463C11.5801 1.60149 11.8132 1.06766 12.2794 0.639353C12.7456 0.211049 13.3692 0 14.1504 0C14.9316 0 15.549 0.198634 16.0152 0.602109C16.4814 1.00558 16.7145 1.52079 16.7145 2.15394Z" fill="#FA541C"/>
<path d="M25.7794 15.5737C25.4518 15.7724 25.0549 15.9151 24.5887 16.002C24.1351 16.0951 23.6563 16.1386 23.1523 16.1386C21.7349 16.1386 20.6261 15.791 19.8323 15.0896C19.0385 14.3757 18.6416 13.2894 18.6416 11.8245V9.10572H17.2305V5.90274H18.6416V2.92944H22.9067V5.90274H25.0234V9.10572H22.9067V11.7873C22.9067 12.1101 22.9886 12.3646 23.1523 12.5446C23.3287 12.7246 23.5429 12.8177 23.7949 12.8177C24.1603 12.8177 24.4816 12.7184 24.7588 12.5259L25.7794 15.5737Z" fill="#FA541C"/>
<path d="M26.9834 15.9463V2.35229H31.4374V12.3957H37.4034V15.9525H26.9834V15.9463Z" fill="#FA541C"/>
<path d="M47.425 6.35004C46.4548 5.53688 45.0877 5.1272 43.3112 5.1272C42.5048 5.1272 41.6795 5.23272 40.8353 5.43756C39.9974 5.6424 39.2729 5.94035 38.6681 6.33142L40.0289 9.22402C40.3691 8.96331 40.7723 8.76468 41.2511 8.62191C41.7299 8.46673 42.2024 8.39224 42.6686 8.39224C43.3616 8.39224 43.8592 8.5288 44.1616 8.79572C44.401 9.00677 44.5522 9.2861 44.6026 9.6337H42.8954C41.8244 9.6337 40.9361 9.75785 40.2368 9.99994C39.5438 10.2482 39.0272 10.6083 38.687 11.0924C38.3469 11.5704 38.1768 12.1539 38.1768 12.8367C38.1768 13.445 38.3217 14.0037 38.6115 14.5064C38.9012 14.9968 39.3296 15.3941 39.8966 15.692C40.4636 15.99 41.1629 16.139 42.0071 16.139C42.9017 16.139 43.6136 15.9465 44.1427 15.5555C44.4829 15.3072 44.7475 14.9782 44.9365 14.5623V15.9465H48.8991V10.2358C48.8991 8.46052 48.4078 7.1694 47.425 6.35004ZM44.086 13.265C43.8466 13.4202 43.5821 13.4947 43.2923 13.4947C42.9773 13.4947 42.7253 13.4202 42.5363 13.265C42.3599 13.0974 42.2717 12.8863 42.2717 12.6443C42.2717 12.3463 42.3725 12.1228 42.5741 11.9801C42.7883 11.8249 43.1222 11.7504 43.5758 11.7504H44.6341V12.4891C44.5207 12.8367 44.338 13.0974 44.086 13.265Z" fill="#FA541C"/>
<path d="M56.8251 8.83267C56.7558 8.82025 56.6865 8.81405 56.6109 8.81405C56.3211 8.81405 56.0502 8.88853 55.7982 9.0313C55.7478 9.05613 55.6974 9.09337 55.6533 9.12441C55.7604 8.83887 56.025 8.63403 56.3337 8.63403C56.5227 8.63403 56.6991 8.70852 56.8251 8.83267Z" fill="#FA541C"/>
<path d="M61.5223 7.1694C61.1569 6.46798 60.6529 5.95277 60.0103 5.62999C59.374 5.29479 58.6559 5.1272 57.8621 5.1272C57.0179 5.1272 56.2493 5.32583 55.5563 5.72931C55.2602 5.90311 54.9893 6.12037 54.7499 6.37487V5.31962H50.6865V15.9465H54.9578C54.8552 15.9465 55.238 15.9465 55.3766 15.9465H57.2211C57.4479 15.9465 57.8918 15.9465 57.8243 15.9465H62.0893V9.8882C62.0893 8.77089 61.9003 7.86462 61.5223 7.1694ZM58.4606 14.5251C58.4606 14.5623 58.4606 14.5996 58.4543 14.6368H54.1074C54.1074 14.5996 54.1074 14.5623 54.1074 14.5251V9.69578C54.1074 9.35438 54.2523 9.0316 54.5042 8.79572L55.424 7.93911C55.9091 7.48598 56.6714 7.48598 57.1565 7.93911L58.0763 8.79572C58.3283 9.0316 58.4669 9.35438 58.4669 9.69578V14.5251H58.4606Z" fill="#FA541C"/>
<path d="M71.3339 1.53271V6.05784C71.2079 5.9337 71.0756 5.82197 70.937 5.72886C70.3574 5.32538 69.614 5.12675 68.7068 5.12675C67.7996 5.12675 66.987 5.344 66.2184 5.78472C65.4624 6.22544 64.8576 6.86479 64.404 7.69037C63.9504 8.50352 63.7236 9.48428 63.7236 10.6202C63.7236 11.7562 63.9504 12.7493 64.404 13.5749C64.8576 14.3881 65.4624 15.0274 66.2184 15.4805C66.987 15.9213 67.8185 16.1385 68.7068 16.1385C69.6644 16.1385 70.4267 15.9461 70.9937 15.555C71.1953 15.4185 71.378 15.2571 71.5418 15.0709V15.9461H75.5989V1.53271H71.3339ZM71.1827 11.7872C71.0315 12.0976 70.8299 12.3334 70.5779 12.4886C70.3259 12.6438 70.0424 12.7183 69.7274 12.7183C69.4124 12.7183 69.1289 12.6438 68.8769 12.4886C68.6249 12.3334 68.4233 12.0976 68.2784 11.7872C68.1272 11.4644 68.0516 11.0734 68.0516 10.6202C68.0516 10.1671 68.1272 9.77602 68.2784 9.47807C68.4233 9.16771 68.6249 8.93183 68.8769 8.77665C69.1289 8.62146 69.4124 8.54698 69.7274 8.54698C70.0424 8.54698 70.3259 8.62146 70.5779 8.77665C70.8299 8.93183 71.0315 9.16771 71.1827 9.47807C71.3339 9.77602 71.4095 10.1547 71.4095 10.6202C71.4095 11.0858 71.3339 11.4644 71.1827 11.7872Z" fill="#FA541C"/>
<path d="M56.8243 8.83267C56.6983 8.70852 56.5219 8.63403 56.3329 8.63403C56.0242 8.63403 55.7596 8.83887 55.6525 9.12441C55.6273 9.20511 55.6084 9.29201 55.6084 9.38512C55.6084 9.7948 55.936 10.1362 56.3329 10.1362C56.7298 10.1362 57.0637 9.7948 57.0637 9.38512C57.0637 9.16786 56.9692 8.96923 56.8243 8.83267Z" fill="#EDEDEE" stroke="#FA541C" stroke-width="0.849421"/>
<path d="M57.0637 9.38512C57.0637 9.7948 56.7361 10.1362 56.3329 10.1362C55.9297 10.1362 55.6084 9.7948 55.6084 9.38512C55.6084 9.29201 55.6273 9.20511 55.6525 9.12441C55.7596 8.83887 56.0242 8.63403 56.3329 8.63403C56.5219 8.63403 56.6983 8.70852 56.8243 8.83267C56.9692 8.96923 57.0637 9.16786 57.0637 9.38512Z" fill="#FA541C"/>
</g>
<defs>
<clipPath id="clip0_2_4201">
<rect width="75.5985" height="16.139" fill="white"/>
</clipPath>
</defs>
</svg>
