<svg width="288" height="130" viewBox="0 0 288 130" fill="none" xmlns="http://www.w3.org/2000/svg">
<rect width="288" height="130" fill="#CBCBCB"/>
<rect width="40" height="41" transform="translate(28 16)" fill="#F9F9F9"/>
<path d="M40.5312 28.625L43.2656 32.9844L46 28.625H47.7578L44.1641 34.2578L47.8438 40H46.0703L43.2656 35.5547L40.4609 40H38.6875L42.3672 34.2578L38.7734 28.625H40.5312ZM55.6484 37.125C55.6484 36.7708 55.5729 36.4688 55.4219 36.2188C55.2708 35.9688 55 35.7422 54.6094 35.5391C54.2188 35.3359 53.6641 35.1302 52.9453 34.9219C52.1953 34.7031 51.5443 34.4453 50.9922 34.1484C50.4401 33.8516 50.013 33.4948 49.7109 33.0781C49.4089 32.6562 49.2578 32.151 49.2578 31.5625C49.2578 30.974 49.4167 30.4479 49.7344 29.9844C50.0573 29.5156 50.5078 29.1458 51.0859 28.875C51.6693 28.6042 52.349 28.4688 53.125 28.4688C53.9792 28.4688 54.7031 28.6328 55.2969 28.9609C55.8958 29.2839 56.3516 29.7083 56.6641 30.2344C56.9766 30.7552 57.1328 31.3125 57.1328 31.9062H55.6328C55.6328 31.4792 55.5417 31.1016 55.3594 30.7734C55.1771 30.4401 54.901 30.1797 54.5312 29.9922C54.1615 29.7995 53.6927 29.7031 53.125 29.7031C52.5885 29.7031 52.1458 29.7839 51.7969 29.9453C51.4479 30.1068 51.1875 30.3255 51.0156 30.6016C50.849 30.8776 50.7656 31.1927 50.7656 31.5469C50.7656 31.8646 50.8568 32.1458 51.0391 32.3906C51.2266 32.6354 51.5156 32.8568 51.9062 33.0547C52.2969 33.2526 52.8047 33.4375 53.4297 33.6094C54.2891 33.8542 54.9948 34.1354 55.5469 34.4531C56.099 34.7708 56.5052 35.1458 56.7656 35.5781C57.0312 36.0104 57.1641 36.5208 57.1641 37.1094C57.1641 37.724 57 38.2604 56.6719 38.7188C56.3438 39.1771 55.8828 39.5312 55.2891 39.7812C54.6953 40.0312 53.9974 40.1562 53.1953 40.1562C52.6693 40.1562 52.151 40.0833 51.6406 39.9375C51.1354 39.7917 50.6745 39.5729 50.2578 39.2812C49.8464 38.9896 49.5156 38.6302 49.2656 38.2031C49.0208 37.7708 48.8984 37.2708 48.8984 36.7031H50.3984C50.3984 37.0938 50.474 37.4297 50.625 37.7109C50.776 37.987 50.9818 38.2161 51.2422 38.3984C51.5078 38.5807 51.8073 38.7161 52.1406 38.8047C52.4792 38.888 52.8307 38.9297 53.1953 38.9297C53.7214 38.9297 54.1667 38.8568 54.5312 38.7109C54.8958 38.5651 55.1719 38.3568 55.3594 38.0859C55.5521 37.8151 55.6484 37.4948 55.6484 37.125Z" fill="#01070D"/>
<rect width="40" height="41" transform="translate(76 16)" fill="#F9F9F9"/>
<path d="M98.6328 37.125C98.6328 36.7708 98.5573 36.4688 98.4062 36.2188C98.2552 35.9688 97.9844 35.7422 97.5938 35.5391C97.2031 35.3359 96.6484 35.1302 95.9297 34.9219C95.1797 34.7031 94.5286 34.4453 93.9766 34.1484C93.4245 33.8516 92.9974 33.4948 92.6953 33.0781C92.3932 32.6562 92.2422 32.151 92.2422 31.5625C92.2422 30.974 92.401 30.4479 92.7188 29.9844C93.0417 29.5156 93.4922 29.1458 94.0703 28.875C94.6536 28.6042 95.3333 28.4688 96.1094 28.4688C96.9635 28.4688 97.6875 28.6328 98.2812 28.9609C98.8802 29.2839 99.3359 29.7083 99.6484 30.2344C99.9609 30.7552 100.117 31.3125 100.117 31.9062H98.6172C98.6172 31.4792 98.526 31.1016 98.3438 30.7734C98.1615 30.4401 97.8854 30.1797 97.5156 29.9922C97.1458 29.7995 96.6771 29.7031 96.1094 29.7031C95.5729 29.7031 95.1302 29.7839 94.7812 29.9453C94.4323 30.1068 94.1719 30.3255 94 30.6016C93.8333 30.8776 93.75 31.1927 93.75 31.5469C93.75 31.8646 93.8411 32.1458 94.0234 32.3906C94.2109 32.6354 94.5 32.8568 94.8906 33.0547C95.2812 33.2526 95.7891 33.4375 96.4141 33.6094C97.2734 33.8542 97.9792 34.1354 98.5312 34.4531C99.0833 34.7708 99.4896 35.1458 99.75 35.5781C100.016 36.0104 100.148 36.5208 100.148 37.1094C100.148 37.724 99.9844 38.2604 99.6562 38.7188C99.3281 39.1771 98.8672 39.5312 98.2734 39.7812C97.6797 40.0312 96.9818 40.1562 96.1797 40.1562C95.6536 40.1562 95.1354 40.0833 94.625 39.9375C94.1198 39.7917 93.6589 39.5729 93.2422 39.2812C92.8307 38.9896 92.5 38.6302 92.25 38.2031C92.0052 37.7708 91.8828 37.2708 91.8828 36.7031H93.3828C93.3828 37.0938 93.4583 37.4297 93.6094 37.7109C93.7604 37.987 93.9661 38.2161 94.2266 38.3984C94.4922 38.5807 94.7917 38.7161 95.125 38.8047C95.4635 38.888 95.8151 38.9297 96.1797 38.9297C96.7057 38.9297 97.151 38.8568 97.5156 38.7109C97.8802 38.5651 98.1562 38.3568 98.3438 38.0859C98.5365 37.8151 98.6328 37.4948 98.6328 37.125Z" fill="#01070D"/>
<rect width="40" height="41" transform="translate(124 16)" fill="#F9F9F9"/>
<path d="M138.812 28.625H140.273L144 37.8984L147.719 28.625H149.188L144.562 40H143.422L138.812 28.625ZM138.336 28.625H139.625L139.836 35.5625V40H138.336V28.625ZM148.367 28.625H149.656V40H148.156V35.5625L148.367 28.625Z" fill="#01070D"/>
<rect width="40" height="41" transform="translate(172 16)" fill="#F9F9F9"/>
<path d="M195.906 38.7734V40H190.219V38.7734H195.906ZM190.516 28.625V40H189.008V28.625H190.516Z" fill="#01070D"/>
<rect width="40" height="41" transform="translate(220 16)" fill="#F9F9F9"/>
<path d="M232.969 28.625L235.703 32.9844L238.438 28.625H240.195L236.602 34.2578L240.281 40H238.508L235.703 35.5547L232.898 40H231.125L234.805 34.2578L231.211 28.625H232.969ZM248.922 38.7734V40H243.234V38.7734H248.922ZM243.531 28.625V40H242.023V28.625H243.531Z" fill="#01070D"/>
<rect width="40" height="41" transform="translate(28 73)" fill="#F9F9F9"/>
<path d="M42.7422 95.8125V97H35.2969V95.9609L39.0234 91.8125C39.4818 91.3021 39.8359 90.8698 40.0859 90.5156C40.3411 90.1562 40.5182 89.8359 40.6172 89.5547C40.7214 89.2682 40.7734 88.9766 40.7734 88.6797C40.7734 88.1224 40.6016 87.6458 40.2578 87.25C39.9141 86.8542 39.4245 86.6562 38.7891 86.6562C38.2839 86.6562 37.862 86.7552 37.5234 86.9531C37.1901 87.1458 36.9401 87.4167 36.7734 87.7656C36.6068 88.1146 36.5234 88.5156 36.5234 88.9688H35.0781C35.0781 88.3281 35.2188 87.7422 35.5 87.2109C35.7812 86.6797 36.1979 86.2578 36.75 85.9453C37.3021 85.6276 37.9818 85.4688 38.7891 85.4688C39.862 85.4688 40.7005 85.7474 41.3047 86.3047C41.9141 86.862 42.2188 87.5964 42.2188 88.5078C42.2188 88.9557 42.1224 89.4062 41.9297 89.8594C41.737 90.3125 41.4792 90.763 41.1562 91.2109C40.8333 91.6536 40.4766 92.0859 40.0859 92.5078L37.0391 95.8125H42.7422ZM45.6406 85.625L48.375 89.9844L51.1094 85.625H52.8672L49.2734 91.2578L52.9531 97H51.1797L48.375 92.5547L45.5703 97H43.7969L47.4766 91.2578L43.8828 85.625H45.6406ZM61.5938 95.7734V97H55.9062V95.7734H61.5938ZM56.2031 85.625V97H54.6953V85.625H56.2031Z" fill="#01070D"/>
<rect width="40" height="41" transform="translate(76 73)" fill="#F9F9F9"/>
<path d="M85.2266 90.6016H86.2578C86.763 90.6016 87.1797 90.5182 87.5078 90.3516C87.8411 90.1797 88.0885 89.9479 88.25 89.6562C88.4167 89.3594 88.5 89.026 88.5 88.6562C88.5 88.2188 88.4271 87.8516 88.2812 87.5547C88.1354 87.2578 87.9167 87.0339 87.625 86.8828C87.3333 86.7318 86.9635 86.6562 86.5156 86.6562C86.1094 86.6562 85.75 86.737 85.4375 86.8984C85.1302 87.0547 84.888 87.2786 84.7109 87.5703C84.5391 87.862 84.4531 88.2057 84.4531 88.6016H83.0078C83.0078 88.0234 83.1536 87.4974 83.4453 87.0234C83.737 86.5495 84.1458 86.1719 84.6719 85.8906C85.2031 85.6094 85.8177 85.4688 86.5156 85.4688C87.2031 85.4688 87.8047 85.5911 88.3203 85.8359C88.8359 86.0755 89.237 86.4349 89.5234 86.9141C89.8099 87.388 89.9531 87.9792 89.9531 88.6875C89.9531 88.974 89.8854 89.2812 89.75 89.6094C89.6198 89.9323 89.4141 90.2344 89.1328 90.5156C88.8568 90.7969 88.4974 91.0286 88.0547 91.2109C87.612 91.388 87.0807 91.4766 86.4609 91.4766H85.2266V90.6016ZM85.2266 91.7891V90.9219H86.4609C87.1849 90.9219 87.7839 91.0078 88.2578 91.1797C88.7318 91.3516 89.1042 91.5807 89.375 91.8672C89.651 92.1536 89.8438 92.4688 89.9531 92.8125C90.0677 93.151 90.125 93.4896 90.125 93.8281C90.125 94.5365 89.9661 95.138 89.6484 95.6328C89.3359 96.1276 88.9089 96.5052 88.3672 96.7656C87.8255 97.026 87.2109 97.1562 86.5234 97.1562C86.0286 97.1562 85.5625 97.0859 85.125 96.9453C84.6927 96.8047 84.3099 96.6016 83.9766 96.3359C83.6432 96.0651 83.3828 95.7344 83.1953 95.3438C83.0078 94.9479 82.9141 94.4974 82.9141 93.9922H84.3594C84.3594 94.388 84.4453 94.7344 84.6172 95.0312C84.7943 95.3281 85.0443 95.5599 85.3672 95.7266C85.6953 95.888 86.0807 95.9688 86.5234 95.9688C87.1901 95.9688 87.7135 95.7943 88.0938 95.4453C88.4792 95.0964 88.6719 94.5677 88.6719 93.8594C88.6719 93.3854 88.5729 92.9974 88.375 92.6953C88.1771 92.388 87.8958 92.1615 87.5312 92.0156C87.1719 91.8646 86.7474 91.7891 86.2578 91.7891H85.2266ZM93.4688 85.625L96.2031 89.9844L98.9375 85.625H100.695L97.1016 91.2578L100.781 97H99.0078L96.2031 92.5547L93.3984 97H91.625L95.3047 91.2578L91.7109 85.625H93.4688ZM109.422 95.7734V97H103.734V95.7734H109.422ZM104.031 85.625V97H102.523V85.625H104.031Z" fill="#01070D"/>
</svg>
