<svg width="40" height="18" viewBox="0 0 40 18" fill="none" xmlns="http://www.w3.org/2000/svg">
<path d="M0 0H24C32.8366 0 40 7.16344 40 16V18H16C7.16344 18 0 10.8366 0 2V0Z" fill="#FA541C"/>
<path d="M11.4385 5.63379V5.25781C11.4385 4.98763 11.4971 4.74186 11.6143 4.52051C11.7314 4.29915 11.8991 4.12174 12.1172 3.98828C12.3353 3.85482 12.5941 3.78809 12.8936 3.78809C13.1995 3.78809 13.46 3.85482 13.6748 3.98828C13.8929 4.12174 14.0605 4.29915 14.1777 4.52051C14.2949 4.74186 14.3535 4.98763 14.3535 5.25781V5.63379C14.3535 5.89746 14.2949 6.13997 14.1777 6.36133C14.0638 6.58268 13.8978 6.76009 13.6797 6.89355C13.4648 7.02702 13.2061 7.09375 12.9033 7.09375C12.6006 7.09375 12.3385 7.02702 12.1172 6.89355C11.8991 6.76009 11.7314 6.58268 11.6143 6.36133C11.4971 6.13997 11.4385 5.89746 11.4385 5.63379ZM12.1172 5.25781V5.63379C12.1172 5.78353 12.1449 5.92513 12.2002 6.05859C12.2588 6.19206 12.3467 6.30111 12.4639 6.38574C12.5811 6.46712 12.7275 6.50781 12.9033 6.50781C13.0791 6.50781 13.224 6.46712 13.3379 6.38574C13.4518 6.30111 13.5365 6.19206 13.5918 6.05859C13.6471 5.92513 13.6748 5.78353 13.6748 5.63379V5.25781C13.6748 5.10482 13.6455 4.96159 13.5869 4.82812C13.5316 4.69141 13.4453 4.58236 13.3281 4.50098C13.2142 4.41634 13.0693 4.37402 12.8936 4.37402C12.721 4.37402 12.5762 4.41634 12.459 4.50098C12.3451 4.58236 12.2588 4.69141 12.2002 4.82812C12.1449 4.96159 12.1172 5.10482 12.1172 5.25781ZM14.9004 9.6377V9.25684C14.9004 8.98991 14.959 8.74577 15.0762 8.52441C15.1934 8.30306 15.361 8.12565 15.5791 7.99219C15.7972 7.85872 16.056 7.79199 16.3555 7.79199C16.6615 7.79199 16.9219 7.85872 17.1367 7.99219C17.3548 8.12565 17.5225 8.30306 17.6396 8.52441C17.7568 8.74577 17.8154 8.98991 17.8154 9.25684V9.6377C17.8154 9.90462 17.7568 10.1488 17.6396 10.3701C17.5257 10.5915 17.3597 10.7689 17.1416 10.9023C16.9268 11.0358 16.668 11.1025 16.3652 11.1025C16.0625 11.1025 15.8021 11.0358 15.584 10.9023C15.3659 10.7689 15.1966 10.5915 15.0762 10.3701C14.959 10.1488 14.9004 9.90462 14.9004 9.6377ZM15.5791 9.25684V9.6377C15.5791 9.78743 15.6068 9.93066 15.6621 10.0674C15.7207 10.2008 15.8086 10.3099 15.9258 10.3945C16.043 10.4759 16.1895 10.5166 16.3652 10.5166C16.541 10.5166 16.6859 10.4759 16.7998 10.3945C16.917 10.3099 17.0033 10.2008 17.0586 10.0674C17.1139 9.93392 17.1416 9.79069 17.1416 9.6377V9.25684C17.1416 9.02572 17.0765 8.82227 16.9463 8.64648C16.8193 8.46745 16.6224 8.37793 16.3555 8.37793C16.0951 8.37793 15.8997 8.46745 15.7695 8.64648C15.6426 8.82227 15.5791 9.02572 15.5791 9.25684ZM16.5801 4.90137L13.1084 10.458L12.6006 10.1357L16.0723 4.5791L16.5801 4.90137ZM23.499 10.2578V11H18.8457V10.3506L21.1748 7.75781C21.4613 7.4388 21.6826 7.16862 21.8389 6.94727C21.9984 6.72266 22.109 6.52246 22.1709 6.34668C22.236 6.16764 22.2686 5.98535 22.2686 5.7998C22.2686 5.4515 22.1611 5.15365 21.9463 4.90625C21.7314 4.65885 21.4255 4.53516 21.0283 4.53516C20.7126 4.53516 20.4489 4.59701 20.2373 4.7207C20.029 4.84115 19.8727 5.01042 19.7686 5.22852C19.6644 5.44661 19.6123 5.69727 19.6123 5.98047H18.709C18.709 5.58008 18.7969 5.21387 18.9727 4.88184C19.1484 4.5498 19.4089 4.28613 19.7539 4.09082C20.099 3.89225 20.5238 3.79297 21.0283 3.79297C21.6989 3.79297 22.223 3.96712 22.6006 4.31543C22.9814 4.66374 23.1719 5.12272 23.1719 5.69238C23.1719 5.97233 23.1117 6.25391 22.9912 6.53711C22.8708 6.82031 22.7096 7.10189 22.5078 7.38184C22.306 7.65853 22.083 7.92871 21.8389 8.19238L19.9346 10.2578H23.499ZM28.9287 6.87891V7.96289C28.9287 8.73763 28.8376 9.35449 28.6553 9.81348C28.473 10.2725 28.2142 10.6012 27.8789 10.7998C27.5436 10.9984 27.1465 11.0977 26.6875 11.0977C26.235 11.0977 25.8395 10.9984 25.501 10.7998C25.1624 10.6012 24.9004 10.2725 24.7148 9.81348C24.5293 9.35449 24.4365 8.73763 24.4365 7.96289V6.87891C24.4365 6.10417 24.5277 5.49219 24.71 5.04297C24.8955 4.59375 25.1559 4.27311 25.4912 4.08105C25.8298 3.889 26.2253 3.79297 26.6777 3.79297C27.1367 3.79297 27.5339 3.889 27.8691 4.08105C28.2077 4.27311 28.4681 4.59375 28.6504 5.04297C28.8359 5.49219 28.9287 6.10417 28.9287 6.87891ZM28.0205 8.10938V6.72754C28.0205 6.19368 27.9701 5.76562 27.8691 5.44336C27.7682 5.12109 27.6169 4.88835 27.415 4.74512C27.2165 4.60189 26.9707 4.53027 26.6777 4.53027C26.3913 4.53027 26.1488 4.60189 25.9502 4.74512C25.7516 4.88835 25.6003 5.12109 25.4961 5.44336C25.3952 5.76562 25.3447 6.19368 25.3447 6.72754V8.10938C25.3447 8.63997 25.3968 9.07129 25.501 9.40332C25.6051 9.7321 25.7565 9.97298 25.9551 10.126C26.1569 10.279 26.401 10.3555 26.6875 10.3555C26.9837 10.3555 27.2295 10.279 27.4248 10.126C27.6234 9.97298 27.7715 9.7321 27.8691 9.40332C27.9701 9.07129 28.0205 8.63997 28.0205 8.10938Z" fill="white"/>
</svg>
