<svg width="68" height="24" viewBox="0 0 68 24" fill="none" xmlns="http://www.w3.org/2000/svg">
<path d="M2.55469 10.2168C2.85938 10.2168 3.14258 10.2852 3.4043 10.4219C3.66602 10.5586 3.89648 10.7637 4.0957 11.0371C4.29492 11.3066 4.45117 11.6426 4.56445 12.0449C4.67773 12.4434 4.73828 12.9062 4.74609 13.4336H5.45508V14.5H4.65234C4.56641 14.9492 4.39453 15.3828 4.13672 15.8008C3.88281 16.2227 3.50391 16.5938 3 16.9141C2.49609 17.2383 1.82812 17.4805 0.996094 17.6406L0.650391 16.709C1.24023 16.5957 1.74609 16.4395 2.16797 16.2402C2.59375 16.041 2.93555 15.7969 3.19336 15.5078C3.45508 15.2188 3.63281 14.8828 3.72656 14.5H2.80078C2.05859 14.5 1.50195 14.3516 1.13086 14.0547C0.763672 13.7539 0.580078 13.3027 0.580078 12.7012C0.580078 12.4121 0.623047 12.123 0.708984 11.834C0.798828 11.541 0.927734 11.2734 1.0957 11.0312C1.26758 10.7852 1.47461 10.5879 1.7168 10.4395C1.96289 10.291 2.24219 10.2168 2.55469 10.2168ZM2.74219 13.4336H3.7793C3.75586 13.0586 3.71289 12.7344 3.65039 12.4609C3.58789 12.1875 3.50586 11.9629 3.4043 11.7871C3.30273 11.6113 3.17969 11.4824 3.03516 11.4004C2.89062 11.3145 2.72461 11.2715 2.53711 11.2715C2.28711 11.2715 2.08984 11.3516 1.94531 11.5117C1.80469 11.6719 1.70508 11.8613 1.64648 12.0801C1.5918 12.2949 1.56445 12.4902 1.56445 12.666C1.56445 12.9395 1.65625 13.1367 1.83984 13.2578C2.02734 13.375 2.32812 13.4336 2.74219 13.4336ZM9.24609 15.3965L10.0957 16.2461L9.24609 17.0957L8.39648 16.2461L9.24609 15.3965ZM12.8672 11.248V12.2617C12.6992 12.2773 12.502 12.3203 12.2754 12.3906C12.0488 12.457 11.8086 12.5508 11.5547 12.6719C11.5586 12.8867 11.6289 13.0488 11.7656 13.1582C11.9062 13.2676 12.1074 13.3418 12.3691 13.3809C12.6309 13.416 12.9473 13.4336 13.3184 13.4336H13.6406V14.5H13.2949C12.7637 14.5 12.3223 14.4551 11.9707 14.3652C11.6191 14.2754 11.3477 14.125 11.1562 13.9141C10.9688 13.6992 10.8477 13.4102 10.793 13.0469C10.2773 13.3281 9.77344 13.5781 9.28125 13.7969C8.79297 14.0156 8.29688 14.1875 7.79297 14.3125C7.29297 14.4375 6.76367 14.5 6.20508 14.5H5.22656V13.4336H6.22266C6.67969 13.4336 7.09961 13.3926 7.48242 13.3105C7.86523 13.2285 8.23828 13.1152 8.60156 12.9707C8.96875 12.8262 9.35156 12.6562 9.75 12.4609C10.1523 12.2617 10.6016 12.0488 11.0977 11.8223C10.8203 11.7207 10.5332 11.6113 10.2363 11.4941C9.93945 11.373 9.65625 11.2598 9.38672 11.1543C9.12109 11.0488 8.88867 10.9629 8.68945 10.8965C8.49023 10.8262 8.34961 10.791 8.26758 10.791C8.0293 10.791 7.81836 10.8613 7.63477 11.002C7.45508 11.1387 7.28906 11.3047 7.13672 11.5L6.97852 11.6992L6.08203 11.2598L6.16992 11.1191C6.42773 10.7012 6.72656 10.3672 7.06641 10.1172C7.41016 9.86328 7.8125 9.73633 8.27344 9.73633C8.46875 9.73633 8.70117 9.78516 8.9707 9.88281C9.24023 9.98047 9.53516 10.1035 9.85547 10.252C10.1758 10.3965 10.5078 10.5449 10.8516 10.6973C11.1953 10.8457 11.5391 10.9727 11.8828 11.0781C12.2266 11.1797 12.5547 11.2363 12.8672 11.248ZM13.4062 13.4336H13.8223V14.5H13.4062V13.4336ZM15.9844 8.16016L16.8047 8.97461L15.9844 9.80078L15.1699 8.97461L15.9844 8.16016ZM14.0391 8.16016L14.8594 8.97461L14.0391 9.80078L13.2246 8.97461L14.0391 8.16016ZM15.5566 11.0371L16.5352 10.9199L16.6289 12.291C16.6445 12.541 16.6992 12.752 16.793 12.9238C16.8867 13.0918 17.0176 13.2188 17.1855 13.3047C17.3574 13.3906 17.5684 13.4336 17.8184 13.4336H17.9414V14.5H17.8066C17.5176 14.5 17.2676 14.4648 17.0566 14.3945C16.8457 14.3242 16.666 14.2227 16.5176 14.0898C16.3691 13.957 16.2422 13.7949 16.1367 13.6035C15.9258 13.9121 15.6484 14.1387 15.3047 14.2832C14.9609 14.4277 14.6016 14.5 14.2266 14.5H13.6641V13.4336H14.2266C14.7227 13.4336 15.0762 13.3223 15.2871 13.0996C15.502 12.877 15.6094 12.5352 15.6094 12.0742C15.6094 11.8867 15.6035 11.709 15.5918 11.541C15.584 11.373 15.5723 11.2051 15.5566 11.0371ZM24.8613 14.5C24.4863 14.5 24.1836 14.4219 23.9531 14.2656C23.7227 14.1094 23.5352 13.8887 23.3906 13.6035C23.1719 13.9199 22.9277 14.1484 22.6582 14.2891C22.3926 14.4297 22.1035 14.5 21.791 14.5C21.3418 14.5 20.9941 14.4238 20.748 14.2715C20.5059 14.1152 20.3125 13.8926 20.168 13.6035C19.9844 13.8926 19.75 14.1152 19.4648 14.2715C19.1797 14.4238 18.7734 14.5 18.2461 14.5H17.707V13.4336H18.2578C18.5938 13.4336 18.8672 13.3945 19.0781 13.3164C19.2891 13.2344 19.4453 13.0996 19.5469 12.9121C19.6484 12.7246 19.6992 12.4668 19.6992 12.1387C19.6992 12.0684 19.6973 11.9922 19.6934 11.9102C19.6895 11.8281 19.6836 11.7305 19.6758 11.6172C19.668 11.5 19.6562 11.3594 19.6406 11.1953L20.6191 11.0723L20.7129 12.2969C20.7363 12.625 20.8359 12.8965 21.0117 13.1113C21.1914 13.3262 21.4551 13.4336 21.8027 13.4336C22.2168 13.4336 22.498 13.3223 22.6465 13.0996C22.7949 12.877 22.8691 12.5566 22.8691 12.1387C22.8691 12.0684 22.8672 11.9922 22.8633 11.9102C22.8594 11.8281 22.8535 11.7305 22.8457 11.6172C22.8379 11.5 22.8262 11.3594 22.8105 11.1953L23.7891 11.0723L23.8828 12.2969C23.9023 12.6133 23.9863 12.8828 24.1348 13.1055C24.2832 13.3242 24.5234 13.4336 24.8555 13.4336C25.0508 13.4336 25.2109 13.3848 25.3359 13.2871C25.4648 13.1855 25.5605 13.0391 25.623 12.8477C25.6895 12.6562 25.7227 12.4199 25.7227 12.1387C25.7227 11.998 25.7168 11.8516 25.7051 11.6992C25.6973 11.5469 25.6836 11.3457 25.6641 11.0957L26.6426 10.9785L26.7363 12.2969C26.7598 12.6719 26.8691 12.9551 27.0645 13.1465C27.2637 13.3379 27.541 13.4336 27.8965 13.4336H28.0723V14.5H27.9082C27.498 14.5 27.1562 14.4258 26.8828 14.2773C26.6094 14.125 26.4219 13.8984 26.3203 13.5977C26.1562 13.8867 25.9668 14.1094 25.752 14.2656C25.541 14.4219 25.2441 14.5 24.8613 14.5ZM31.8633 15.3965L32.7129 16.2461L31.8633 17.0957L31.0137 16.2461L31.8633 15.3965ZM27.8438 13.4336H28.8398C29.2969 13.4336 29.7168 13.3926 30.0996 13.3105C30.4824 13.2285 30.8555 13.1152 31.2188 12.9707C31.5859 12.8262 31.9688 12.6562 32.3672 12.4609C32.7695 12.2617 33.2188 12.0488 33.7148 11.8223C33.4375 11.7207 33.1504 11.6113 32.8535 11.4941C32.5566 11.373 32.2734 11.2598 32.0039 11.1543C31.7383 11.0488 31.5059 10.9629 31.3066 10.8965C31.1074 10.8262 30.9668 10.791 30.8848 10.791C30.6465 10.791 30.4355 10.8613 30.252 11.002C30.0723 11.1387 29.9062 11.3047 29.7539 11.5L29.5957 11.6992L28.6992 11.2598L28.7871 11.1191C29.0449 10.7012 29.3438 10.3672 29.6836 10.1172C30.0273 9.86328 30.4297 9.73633 30.8906 9.73633C31.0859 9.73633 31.3184 9.78516 31.5879 9.88281C31.8574 9.98047 32.1523 10.1035 32.4727 10.252C32.793 10.3965 33.125 10.5449 33.4688 10.6973C33.8125 10.8457 34.1562 10.9727 34.5 11.0781C34.8438 11.1797 35.1719 11.2363 35.4844 11.248V12.2617C35.3203 12.2812 35.125 12.3281 34.8984 12.4023C34.6719 12.4727 34.4043 12.5781 34.0957 12.7188C33.7871 12.8594 33.4258 13.0391 33.0117 13.2578C32.5117 13.5234 32.0469 13.75 31.6172 13.9375C31.1914 14.1211 30.7559 14.2617 30.3105 14.3594C29.8691 14.4531 29.373 14.5 28.8223 14.5H27.8438V13.4336Z" fill="#868686"/>
<path d="M55.5 21.75C49.85 21.75 45.25 17.15 45.25 11.5C45.25 5.85 49.85 1.25 55.5 1.25C61.15 1.25 65.75 5.85 65.75 11.5C65.75 17.15 61.15 21.75 55.5 21.75ZM55.5 2.75C50.67 2.75 46.75 6.68 46.75 11.5C46.75 16.32 50.67 20.25 55.5 20.25C60.33 20.25 64.25 16.32 64.25 11.5C64.25 6.68 60.33 2.75 55.5 2.75Z" fill="#FA541C"/>
<path d="M65.9999 22.7504C65.8099 22.7504 65.6199 22.6804 65.4699 22.5304L63.4699 20.5304C63.1799 20.2404 63.1799 19.7604 63.4699 19.4704C63.7599 19.1804 64.2399 19.1804 64.5299 19.4704L66.5299 21.4704C66.8199 21.7604 66.8199 22.2404 66.5299 22.5304C66.3799 22.6804 66.1899 22.7504 65.9999 22.7504Z" fill="#FA541C"/>
</svg>
