<svg width="151" height="58" viewBox="0 0 151 58" fill="none" xmlns="http://www.w3.org/2000/svg">
<g clip-path="url(#clip0_310_1388)">
<path d="M9.08074 11.5071V16.1348H20.0182V22.9902H9.08074V31.6179H0.24324V4.66406H21.5557V11.5071H9.08074Z" fill="#FA541C"/>
<path d="M32.5417 10.5469H24.0792V31.6176H32.5417V10.5469Z" fill="#FA541C"/>
<path d="M33.4073 4.27077C33.4073 5.61231 32.9448 6.70769 32.0198 7.58154C31.0948 8.43077 29.8698 8.86154 28.3198 8.86154C26.7698 8.86154 25.5323 8.43077 24.6073 7.58154C23.6823 6.74461 23.2198 5.68615 23.2198 4.43077C23.2198 3.17538 23.6823 2.11692 24.6073 1.26769C25.5323 0.418461 26.7698 0 28.3198 0C29.8698 0 31.0948 0.393846 32.0198 1.19385C32.9448 1.99385 33.4073 3.01538 33.4073 4.27077Z" fill="#FA541C"/>
<path d="M51.3932 30.8794C50.7432 31.2732 49.9557 31.5563 49.0307 31.7286C48.1307 31.9132 47.1807 31.9994 46.1807 31.9994C43.3682 31.9994 41.1682 31.3101 39.5932 29.9194C38.0182 28.504 37.2307 26.3501 37.2307 23.4455V18.0547H34.4307V11.704H37.2307V5.80859H45.6932V11.704H49.8932V18.0547H45.6932V23.3717C45.6932 24.0117 45.8557 24.5163 46.1807 24.8732C46.5307 25.2301 46.9557 25.4147 47.4557 25.4147C48.1807 25.4147 48.8182 25.2178 49.3682 24.8363L51.3932 30.8794Z" fill="#FA541C"/>
<path d="M53.7823 31.6179V4.66406H62.6198V24.5779H74.4573V31.6302H53.7823V31.6179Z" fill="#FA541C"/>
<path d="M94.3432 12.5909C92.4182 10.9786 89.7057 10.1663 86.1807 10.1663C84.5807 10.1663 82.9432 10.3755 81.2682 10.7816C79.6057 11.1878 78.1682 11.7786 76.9682 12.554L79.6682 18.2893C80.3432 17.7724 81.1432 17.3786 82.0932 17.0955C83.0432 16.7878 83.9807 16.6401 84.9057 16.6401C86.2807 16.6401 87.2682 16.9109 87.8682 17.4401C88.3432 17.8586 88.6432 18.4124 88.7432 19.1016H85.3557C83.2307 19.1016 81.4682 19.3478 80.0807 19.8278C78.7057 20.3201 77.6807 21.034 77.0057 21.994C76.3307 22.9416 75.9932 24.0986 75.9932 25.4524C75.9932 26.6586 76.2807 27.7663 76.8557 28.7632C77.4307 29.7355 78.2807 30.5232 79.4057 31.114C80.5307 31.7047 81.9182 32.0001 83.5932 32.0001C85.3682 32.0001 86.7807 31.6186 87.8307 30.8432C88.5057 30.3509 89.0307 29.6986 89.4057 28.8739V31.6186H97.2682V20.2955C97.2682 16.7755 96.2932 14.2155 94.3432 12.5909ZM87.7182 26.3016C87.2432 26.6093 86.7182 26.757 86.1432 26.757C85.5182 26.757 85.0182 26.6093 84.6432 26.3016C84.2932 25.9693 84.1182 25.5509 84.1182 25.0709C84.1182 24.4801 84.3182 24.037 84.7182 23.754C85.1432 23.4463 85.8057 23.2986 86.7057 23.2986H88.8057V24.7632C88.5807 25.4524 88.2182 25.9693 87.7182 26.3016Z" fill="#FA541C"/>
<path d="M112.994 17.513C112.857 17.4884 112.719 17.4761 112.569 17.4761C111.994 17.4761 111.457 17.6238 110.957 17.9068C110.857 17.9561 110.757 18.0299 110.669 18.0914C110.882 17.5253 111.407 17.1191 112.019 17.1191C112.394 17.1191 112.744 17.2668 112.994 17.513Z" fill="#FA541C"/>
<path d="M122.314 14.2152C121.589 12.8245 120.589 11.8029 119.314 11.1629C118.051 10.4983 116.626 10.166 115.051 10.166C113.376 10.166 111.851 10.5599 110.476 11.3599C109.889 11.7045 109.351 12.1352 108.876 12.6399V10.5476H100.814V31.6183H109.289C109.085 31.6183 109.845 31.6183 110.12 31.6183H113.779C114.229 31.6183 115.11 31.6183 114.976 31.6183H123.439V19.606C123.439 17.3906 123.064 15.5937 122.314 14.2152ZM116.239 28.7999C116.239 28.8737 116.239 28.9476 116.226 29.0214H107.601C107.601 28.9476 107.601 28.8737 107.601 28.7999V19.2245C107.601 18.5476 107.889 17.9076 108.389 17.4399L110.214 15.7414C111.176 14.8429 112.689 14.8429 113.651 15.7414L115.476 17.4399C115.976 17.9076 116.251 18.5476 116.251 19.2245V28.7999H116.239Z" fill="#FA541C"/>
<path d="M141.781 3.03906V12.0114C141.531 11.7652 141.268 11.5437 140.993 11.3591C139.843 10.5591 138.368 10.1652 136.568 10.1652C134.768 10.1652 133.156 10.596 131.631 11.4698C130.131 12.3437 128.931 13.6114 128.031 15.2483C127.131 16.8606 126.681 18.8052 126.681 21.0575C126.681 23.3098 127.131 25.2791 128.031 26.916C128.931 28.5283 130.131 29.796 131.631 30.6945C133.156 31.5683 134.806 31.9991 136.568 31.9991C138.468 31.9991 139.981 31.6175 141.106 30.8421C141.506 30.5714 141.868 30.2514 142.193 29.8821V31.6175H150.243V3.03906H141.781ZM141.481 23.3714C141.181 23.9868 140.781 24.4545 140.281 24.7621C139.781 25.0698 139.218 25.2175 138.593 25.2175C137.968 25.2175 137.406 25.0698 136.906 24.7621C136.406 24.4545 136.006 23.9868 135.718 23.3714C135.418 22.7314 135.268 21.956 135.268 21.0575C135.268 20.1591 135.418 19.3837 135.718 18.7929C136.006 18.1775 136.406 17.7098 136.906 17.4021C137.406 17.0944 137.968 16.9468 138.593 16.9468C139.218 16.9468 139.781 17.0944 140.281 17.4021C140.781 17.7098 141.181 18.1775 141.481 18.7929C141.781 19.3837 141.931 20.1344 141.931 21.0575C141.931 21.9806 141.781 22.7314 141.481 23.3714Z" fill="#FA541C"/>
<path d="M112.992 17.513C112.742 17.2668 112.392 17.1191 112.017 17.1191C111.404 17.1191 110.879 17.5253 110.667 18.0914C110.617 18.2514 110.579 18.4238 110.579 18.6084C110.579 19.4207 111.229 20.0976 112.017 20.0976C112.804 20.0976 113.467 19.4207 113.467 18.6084C113.467 18.1776 113.279 17.7838 112.992 17.513Z" fill="#EDEDEE" stroke="#FA541C"/>
<path d="M113.467 18.6084C113.467 19.4207 112.817 20.0976 112.017 20.0976C111.217 20.0976 110.579 19.4207 110.579 18.6084C110.579 18.4238 110.617 18.2514 110.667 18.0914C110.879 17.5253 111.404 17.1191 112.017 17.1191C112.392 17.1191 112.742 17.2668 112.992 17.513C113.279 17.7838 113.467 18.1776 113.467 18.6084Z" fill="#FA541C"/>
</g>
<path d="M18.367 52C18.0149 52 17.6989 51.936 17.4189 51.808C17.1469 51.672 16.8989 51.472 16.6749 51.208C16.0909 51.776 15.3669 52.06 14.5029 52.06C13.5269 52.06 12.6109 51.74 11.7549 51.1L12.4029 49.84C12.6589 49.976 12.9389 50.1 13.2429 50.212C13.5469 50.316 13.9069 50.368 14.3229 50.368C14.9549 50.368 15.5029 50.22 15.9669 49.924L14.3229 46.168L15.5589 45.496L17.2029 49.384C17.3309 49.704 17.4789 49.924 17.647 50.044C17.8149 50.156 18.0549 50.212 18.367 50.212H18.5109L18.6069 51.112L18.5109 52H18.367ZM18.3913 50.212H18.4633C19.0713 50.212 19.5113 50.148 19.7833 50.02C20.0633 49.892 20.2233 49.684 20.2633 49.396C20.2793 49.268 20.2873 49.168 20.2873 49.096C20.2873 48.904 20.2673 48.684 20.2273 48.436C20.1873 48.18 20.1633 48.02 20.1553 47.956L21.4033 47.716C21.5073 48.308 21.5593 48.968 21.5593 49.696C21.5913 49.832 21.6793 49.952 21.8233 50.056C21.9753 50.16 22.1873 50.212 22.4593 50.212H22.5313L22.6273 51.112L22.5313 52H22.4593C22.1393 52 21.8393 51.924 21.5593 51.772C21.2873 51.62 21.0553 51.42 20.8633 51.172C20.6313 51.46 20.3153 51.672 19.9153 51.808C19.5233 51.936 19.0393 52 18.4633 52H18.3913V50.212ZM19.9753 44.656C20.2233 44.896 20.4673 45.14 20.7073 45.388L21.0793 45.76L19.9753 46.864L18.8593 45.76L19.9753 44.656ZM22.4109 50.212H22.7829C23.1989 50.212 23.4989 50.128 23.6829 49.96C23.8749 49.792 23.9709 49.532 23.9709 49.18C23.9629 48.628 23.9149 47.656 23.8269 46.264C23.7469 44.864 23.6749 43.924 23.6109 43.444L25.1109 43.12C25.1669 43.592 25.2269 44.564 25.2909 46.036C25.3629 47.5 25.3989 48.516 25.3989 49.084C25.3989 49.628 25.2869 50.124 25.0629 50.572C24.8469 51.012 24.5429 51.36 24.1509 51.616C23.7589 51.872 23.3149 52 22.8189 52H22.4109V50.212ZM31.029 52.144C29.613 52.144 28.501 51.924 27.693 51.484C26.885 51.044 26.445 50.432 26.373 49.648C26.365 49.584 26.361 49.488 26.361 49.36C26.361 49.016 26.409 48.644 26.505 48.244C26.601 47.844 26.717 47.488 26.853 47.176L28.005 47.728C27.773 48.456 27.669 48.98 27.693 49.3C27.749 49.604 28.069 49.856 28.653 50.056C29.237 50.248 30.037 50.348 31.053 50.356C32.085 50.348 32.885 50.28 33.453 50.152C34.029 50.016 34.465 49.8 34.761 49.504C35.065 49.208 35.321 48.78 35.529 48.22L36.777 48.364C36.625 48.812 36.549 49.176 36.549 49.456C36.549 49.96 36.813 50.212 37.341 50.212L37.437 51.1L37.341 52C36.893 52 36.497 51.868 36.153 51.604C35.817 51.34 35.613 51 35.541 50.584C35.045 51.168 34.437 51.576 33.717 51.808C33.005 52.032 32.109 52.144 31.029 52.144ZM30.393 45.94L31.401 46.948L30.393 47.968L30.057 47.632L29.373 46.948L30.393 45.94ZM32.505 45.94L33.513 46.948L32.505 47.968L32.169 47.632L31.485 46.948L32.505 45.94ZM37.2234 50.212H37.3074C38.0274 50.212 38.5634 50.176 38.9154 50.104C39.2674 50.024 39.4994 49.908 39.6114 49.756C39.7234 49.604 39.7794 49.384 39.7794 49.096C39.7794 48.864 39.7394 48.484 39.6594 47.956L40.8954 47.716C41.0074 48.3 41.0634 48.96 41.0634 49.696C41.0954 49.832 41.1834 49.952 41.3274 50.056C41.4714 50.16 41.6794 50.212 41.9514 50.212H42.0234L42.1194 51.112L42.0234 52H41.9514C41.6314 52 41.3354 51.924 41.0634 51.772C40.7914 51.62 40.5594 51.42 40.3674 51.172C40.1354 51.468 39.7834 51.68 39.3114 51.808C38.8394 51.936 38.1714 52 37.3074 52H37.2234V50.212ZM39.3234 55.036L38.3154 54.028L39.3234 53.008L39.6594 53.344L40.3434 54.028L39.3234 55.036ZM37.2114 53.008L37.5474 53.344L38.2314 54.028L37.2114 55.036L36.2034 54.028L37.2114 53.008ZM41.8991 50.212H42.0791C43.0311 50.212 43.7871 50.168 44.3471 50.08C44.9151 49.984 45.3351 49.816 45.6071 49.576C45.3831 49.592 45.2191 49.6 45.1151 49.6C44.5391 49.6 44.0271 49.5 43.5791 49.3C43.1391 49.1 42.8231 48.808 42.6311 48.424C42.4871 48.112 42.4151 47.768 42.4151 47.392C42.4151 46.936 42.5111 46.492 42.7031 46.06C42.8951 45.628 43.1631 45.276 43.5071 45.004C43.8511 44.724 44.2311 44.584 44.6471 44.584C45.1191 44.584 45.5431 44.772 45.9191 45.148C46.2951 45.516 46.5871 46.004 46.7951 46.612C47.0111 47.22 47.1191 47.864 47.1191 48.544C47.1191 49.648 46.7031 50.5 45.8711 51.1C45.0471 51.7 43.7751 52 42.0551 52H41.8991V50.212ZM43.6991 47.44C43.8191 47.592 44.0351 47.716 44.3471 47.812C44.6591 47.9 45.0111 47.944 45.4031 47.944C45.5071 47.944 45.6631 47.936 45.8711 47.92C45.7671 47.408 45.5911 46.98 45.3431 46.636C45.0951 46.284 44.8191 46.108 44.5151 46.108C44.2671 46.108 44.0551 46.22 43.8791 46.444C43.7031 46.66 43.6151 46.888 43.6151 47.128C43.6151 47.256 43.6431 47.36 43.6991 47.44ZM44.4191 41.62C44.6671 41.86 44.9111 42.104 45.1511 42.352L45.5231 42.724L44.4191 43.828L43.3031 42.724L44.4191 41.62ZM54.3168 55.468C53.5968 55.468 52.9528 55.332 52.3848 55.06C51.8168 54.788 51.3688 54.388 51.0408 53.86C50.7128 53.332 50.5488 52.696 50.5488 51.952C50.5488 51.464 50.6328 50.936 50.8008 50.368C50.9768 49.792 51.1728 49.28 51.3888 48.832L52.5408 49.36C52.3328 49.832 52.1728 50.248 52.0608 50.608C51.9488 50.968 51.8928 51.336 51.8928 51.712C51.8928 52.376 52.1008 52.868 52.5168 53.188C52.9328 53.516 53.5328 53.68 54.3168 53.68C54.7488 53.68 55.1568 53.632 55.5408 53.536C55.9328 53.44 56.2648 53.32 56.5368 53.176C56.8168 53.032 57.0088 52.888 57.1128 52.744C56.9688 52.608 56.6648 52.412 56.2008 52.156C55.7368 51.908 55.2568 51.692 54.7608 51.508L55.1328 49.828C55.8288 49.964 56.4328 50.064 56.9448 50.128C57.4568 50.184 57.9608 50.212 58.4568 50.212H58.6368L58.7328 51.112L58.6368 52H58.4568C58.3368 52 58.1568 51.992 57.9168 51.976C58.2128 52.272 58.3608 52.56 58.3608 52.84C58.3608 53.24 58.1808 53.644 57.8208 54.052C57.4608 54.46 56.9688 54.796 56.3448 55.06C55.7288 55.332 55.0528 55.468 54.3168 55.468ZM65.1652 52C64.7972 51.992 64.4772 51.9 64.2052 51.724C63.9412 51.548 63.7372 51.296 63.5932 50.968C63.1612 51.648 62.6292 51.992 61.9972 52H61.9372C61.5932 52 61.2932 51.908 61.0372 51.724C60.7812 51.54 60.6012 51.296 60.4972 50.992C60.2412 51.32 59.9452 51.572 59.6092 51.748C59.2812 51.916 58.9292 52 58.5532 52H58.5172L58.4212 51.112L58.5172 50.212H58.5772C58.8252 50.212 59.0692 50.16 59.3092 50.056C59.5492 49.944 59.7292 49.808 59.8492 49.648C60.0172 49.456 60.1452 49.24 60.2332 49C60.3212 48.76 60.4012 48.504 60.4732 48.232L61.7212 48.364C61.7132 48.404 61.6692 48.564 61.5892 48.844C61.5092 49.116 61.4692 49.364 61.4692 49.588C61.4692 50.004 61.6372 50.212 61.9732 50.212H62.0092C62.4172 50.212 62.7332 49.992 62.9572 49.552C63.1092 49.248 63.2452 48.78 63.3652 48.148L64.6012 48.208C64.5132 48.736 64.4692 49.112 64.4692 49.336C64.4692 49.92 64.7132 50.212 65.2012 50.212C65.4332 50.212 65.6172 50.144 65.7532 50.008C65.8892 49.872 65.9572 49.696 65.9572 49.48C65.9572 49.264 65.8732 48.92 65.7052 48.448C65.5452 47.976 65.4092 47.616 65.2972 47.368L66.5212 46.696C66.6732 47.008 66.8332 47.456 67.0012 48.04C67.1692 48.616 67.2532 49.12 67.2532 49.552C67.2532 49.992 67.1652 50.4 66.9892 50.776C66.8212 51.144 66.5812 51.44 66.2692 51.664C65.9652 51.888 65.6172 52 65.2252 52H65.2012H65.1652ZM62.8012 44.536L63.7612 45.484L62.8012 46.456C62.7292 46.368 62.4892 46.124 62.0812 45.724C62.0812 45.724 62.0012 45.644 61.8412 45.484L62.8012 44.536ZM63.9292 43.228L64.7692 44.068L63.9292 44.92C63.9292 44.92 63.7412 44.732 63.3652 44.356L63.0772 44.068L63.9292 43.228ZM65.0692 44.536L66.0172 45.484C66.0172 45.484 65.8892 45.612 65.6332 45.868L65.0692 46.456C65.0692 46.456 64.8532 46.24 64.4212 45.808L64.0972 45.484L65.0692 44.536ZM66.8966 53.992C67.4246 53.776 67.9086 53.524 68.3486 53.236C68.7886 52.956 69.1326 52.676 69.3806 52.396C69.6366 52.116 69.7646 51.876 69.7646 51.676C69.7646 51.348 69.5526 50.456 69.1286 49L69.0686 48.76L70.4126 48.232C70.6046 48.784 70.7566 49.376 70.8686 50.008C70.9806 50.632 71.0366 51.188 71.0366 51.676C71.0366 52.46 70.7286 53.184 70.1126 53.848C69.4966 54.52 68.6686 55.072 67.6286 55.504L66.8966 53.992ZM69.5486 44.932C69.7966 45.172 70.0406 45.416 70.2806 45.664L70.6526 46.036L69.5486 47.14L68.4326 46.036L69.5486 44.932ZM71.3146 53.992C71.8426 53.776 72.3266 53.524 72.7666 53.236C73.2066 52.956 73.5506 52.676 73.7986 52.396C74.0546 52.116 74.1826 51.876 74.1826 51.676C74.1826 51.348 73.9706 50.456 73.5466 49L73.4866 48.76L74.8306 48.232C75.0226 48.784 75.1746 49.376 75.2866 50.008C75.3986 50.632 75.4546 51.188 75.4546 51.676C75.4546 52.46 75.1466 53.184 74.5306 53.848C73.9146 54.52 73.0866 55.072 72.0466 55.504L71.3146 53.992ZM76.3395 53.956C77.4595 53.716 78.3195 53.436 78.9195 53.116C79.5275 52.804 79.9235 52.424 80.1075 51.976C79.8915 52.008 79.6515 52.024 79.3875 52.024C78.8035 52.024 78.2755 51.924 77.8035 51.724C77.3395 51.516 77.0115 51.208 76.8195 50.8C76.6755 50.488 76.6035 50.144 76.6035 49.768C76.6035 49.296 76.7035 48.828 76.9035 48.364C77.1035 47.892 77.3795 47.508 77.7315 47.212C78.0835 46.908 78.4675 46.756 78.8835 46.756C79.3635 46.756 79.7995 46.964 80.1915 47.38C80.5835 47.796 80.8915 48.34 81.1155 49.012C81.3395 49.684 81.4515 50.384 81.4515 51.112C81.4515 52.232 81.0475 53.176 80.2395 53.944C79.4315 54.712 78.3155 55.232 76.8915 55.504L76.3395 53.956ZM77.9235 49.792C78.0435 49.952 78.2675 50.076 78.5955 50.164C78.9235 50.244 79.2915 50.284 79.6995 50.284C79.8915 50.284 80.0355 50.28 80.1315 50.272C80.0195 49.728 79.8355 49.272 79.5795 48.904C79.3315 48.536 79.0515 48.352 78.7395 48.352C78.5795 48.352 78.4275 48.412 78.2835 48.532C78.1475 48.652 78.0355 48.8 77.9475 48.976C77.8675 49.152 77.8275 49.316 77.8275 49.468C77.8275 49.596 77.8595 49.704 77.9235 49.792ZM85.1607 56.704C84.9527 54.488 84.8487 52.72 84.8487 51.4C84.8487 51.032 84.8527 50.768 84.8607 50.608C84.8767 50.152 85.0247 49.78 85.3047 49.492C85.5927 49.196 85.9487 49.048 86.3727 49.048C86.4367 49.048 86.5327 49.056 86.6607 49.072C86.9727 48.376 87.3367 47.832 87.7527 47.44C88.1767 47.048 88.6167 46.852 89.0727 46.852C89.5047 46.852 89.8847 46.992 90.2127 47.272C90.5407 47.544 90.7887 47.9 90.9567 48.34C91.1327 48.772 91.2207 49.228 91.2207 49.708C91.2207 50.18 91.1327 50.612 90.9567 51.004C90.7887 51.396 90.5367 51.692 90.2007 51.892C90.0167 52.004 89.8007 52.06 89.5527 52.06C89.2407 52.06 88.8367 51.968 88.3407 51.784C87.8447 51.592 87.2167 51.288 86.4567 50.872C86.4407 50.864 86.4207 50.86 86.3967 50.86C86.3407 50.86 86.3087 50.892 86.3007 50.956C86.2847 51.932 86.3887 53.592 86.6127 55.936L86.6487 56.368L85.1607 56.704ZM87.8727 49.672C88.6887 50.176 89.2647 50.428 89.6007 50.428C89.6727 50.428 89.7247 50.416 89.7567 50.392C89.8367 50.336 89.8967 50.256 89.9367 50.152C89.9847 50.04 90.0087 49.912 90.0087 49.768C90.0087 49.448 89.9207 49.152 89.7447 48.88C89.5687 48.6 89.3407 48.46 89.0607 48.46C88.7087 48.46 88.3127 48.864 87.8727 49.672ZM90.7209 53.992C91.2489 53.776 91.7329 53.524 92.1729 53.236C92.6129 52.956 92.9569 52.676 93.2049 52.396C93.4609 52.116 93.5889 51.876 93.5889 51.676C93.5889 51.348 93.3769 50.456 92.9529 49L92.8929 48.76L94.2369 48.232C94.4289 48.784 94.5809 49.376 94.6929 50.008C94.8049 50.632 94.8609 51.188 94.8609 51.676C94.8609 52.46 94.5529 53.184 93.9369 53.848C93.3209 54.52 92.4929 55.072 91.4529 55.504L90.7209 53.992ZM93.3729 44.932C93.6209 45.172 93.8649 45.416 94.1049 45.664L94.4769 46.036L93.3729 47.14L92.2569 46.036L93.3729 44.932ZM96.1178 51.928C96.1978 51.4 96.2378 50.584 96.2378 49.48C96.2378 48.376 96.2018 47.22 96.1298 46.012C96.0658 44.796 95.9898 43.944 95.9018 43.456L97.4018 43.108C97.4738 43.572 97.5378 44.384 97.5938 45.544C97.6498 46.704 97.6778 47.844 97.6778 48.964C97.6778 50.348 97.6298 51.388 97.5338 52.084L96.1178 51.928ZM98.7106 53.956C99.8066 53.716 100.659 53.44 101.267 53.128C101.875 52.824 102.275 52.452 102.467 52.012C101.587 51.996 100.875 51.908 100.331 51.748C99.7866 51.58 99.4066 51.264 99.1906 50.8C99.0466 50.488 98.9746 50.144 98.9746 49.768C98.9746 49.296 99.0746 48.828 99.2746 48.364C99.4746 47.892 99.7506 47.508 100.103 47.212C100.455 46.908 100.839 46.756 101.255 46.756C101.671 46.756 102.055 46.912 102.407 47.224C102.759 47.536 103.051 47.956 103.283 48.484C103.523 49.012 103.683 49.588 103.763 50.212H104.267L104.363 51.112L104.267 52H103.727C103.527 52.888 103.039 53.636 102.263 54.244C101.495 54.852 100.495 55.272 99.2626 55.504L98.7106 53.956ZM100.295 49.792C100.407 49.944 100.651 50.052 101.027 50.116C101.403 50.172 101.891 50.204 102.491 50.212C102.379 49.684 102.199 49.244 101.951 48.892C101.703 48.532 101.423 48.352 101.111 48.352C100.951 48.352 100.799 48.412 100.655 48.532C100.519 48.644 100.411 48.788 100.331 48.964C100.251 49.14 100.211 49.308 100.211 49.468C100.211 49.604 100.239 49.712 100.295 49.792ZM104.114 50.212H104.486C104.902 50.212 105.202 50.128 105.386 49.96C105.578 49.792 105.674 49.532 105.674 49.18C105.666 48.628 105.618 47.656 105.53 46.264C105.45 44.864 105.378 43.924 105.314 43.444L106.814 43.12C106.87 43.592 106.93 44.564 106.994 46.036C107.066 47.5 107.102 48.516 107.102 49.084C107.102 49.628 106.99 50.124 106.766 50.572C106.55 51.012 106.246 51.36 105.854 51.616C105.462 51.872 105.018 52 104.522 52H104.114V50.212ZM112.889 52.048C112.145 52.048 111.565 51.848 111.149 51.448C110.741 51.048 110.537 50.532 110.537 49.9C110.537 49.652 110.573 49.392 110.645 49.12C110.805 48.464 111.157 47.816 111.701 47.176L111.293 46.924L112.205 45.568C113.261 46.208 114.057 46.856 114.593 47.512C115.129 48.16 115.397 48.848 115.397 49.576C115.397 50.064 115.285 50.496 115.061 50.872C114.845 51.24 114.545 51.528 114.161 51.736C113.785 51.944 113.361 52.048 112.889 52.048ZM111.797 49.444C111.781 49.716 111.873 49.928 112.073 50.08C112.273 50.232 112.573 50.308 112.973 50.308C113.293 50.308 113.557 50.248 113.765 50.128C113.981 50.008 114.109 49.852 114.149 49.66C114.093 49.396 113.949 49.124 113.717 48.844C113.493 48.556 113.173 48.248 112.757 47.92C112.125 48.512 111.805 49.02 111.797 49.444ZM119.088 52C118.208 52 117.572 51.748 117.18 51.244C116.796 50.74 116.604 49.972 116.604 48.94C116.596 47.956 116.564 46.96 116.508 45.952C116.46 44.936 116.388 44.1 116.292 43.444L117.78 43.12C117.86 43.704 117.924 44.496 117.972 45.496C118.02 46.488 118.044 47.408 118.044 48.256V48.712C118.036 49.12 118.056 49.428 118.104 49.636C118.152 49.844 118.248 49.992 118.392 50.08C118.544 50.168 118.776 50.212 119.088 50.212H119.148L119.244 51.112L119.148 52H119.088ZM125.024 52C124.664 52 124.312 51.88 123.968 51.64C123.632 51.4 123.276 51.048 122.9 50.584C122.628 51.064 122.176 51.42 121.544 51.652C120.912 51.884 120.152 52 119.264 52H118.856V50.212H119.264C119.944 50.212 120.504 50.16 120.944 50.056C121.384 49.952 121.68 49.812 121.832 49.636C121.72 48.892 120.888 47.908 119.336 46.684L119.492 45.124L123.956 43.24L124.436 44.668L120.968 46.144C121.704 46.792 122.26 47.436 122.636 48.076C123.148 48.788 123.592 49.324 123.968 49.684C124.352 50.036 124.704 50.212 125.024 50.212H125.228L125.324 51.112L125.228 52H125.024ZM119.624 43.672L123.524 42.076L123.728 42.652L119.552 44.404L119.624 43.672ZM131.775 52C131.407 51.992 131.087 51.9 130.815 51.724C130.551 51.548 130.347 51.296 130.203 50.968C129.771 51.648 129.239 51.992 128.607 52H128.547C128.203 52 127.903 51.908 127.647 51.724C127.391 51.54 127.211 51.296 127.107 50.992C126.851 51.32 126.555 51.572 126.219 51.748C125.891 51.916 125.539 52 125.163 52H125.127L125.031 51.112L125.127 50.212H125.187C125.435 50.212 125.679 50.16 125.919 50.056C126.159 49.944 126.339 49.808 126.459 49.648C126.627 49.456 126.755 49.24 126.843 49C126.931 48.76 127.011 48.504 127.083 48.232L128.331 48.364C128.323 48.404 128.279 48.564 128.199 48.844C128.119 49.116 128.079 49.364 128.079 49.588C128.079 50.004 128.247 50.212 128.583 50.212H128.619C129.027 50.212 129.343 49.992 129.567 49.552C129.719 49.248 129.855 48.78 129.975 48.148L131.211 48.208C131.123 48.736 131.079 49.112 131.079 49.336C131.079 49.92 131.323 50.212 131.811 50.212C132.043 50.212 132.227 50.144 132.363 50.008C132.499 49.872 132.567 49.696 132.567 49.48C132.567 49.264 132.483 48.92 132.315 48.448C132.155 47.976 132.019 47.616 131.907 47.368L133.131 46.696C133.283 47.008 133.443 47.456 133.611 48.04C133.779 48.616 133.863 49.12 133.863 49.552C133.863 49.992 133.775 50.4 133.599 50.776C133.431 51.144 133.191 51.44 132.879 51.664C132.575 51.888 132.227 52 131.835 52H131.811H131.775ZM129.411 44.536L130.371 45.484L129.411 46.456C129.339 46.368 129.099 46.124 128.691 45.724C128.691 45.724 128.611 45.644 128.451 45.484L129.411 44.536ZM130.539 43.228L131.379 44.068L130.539 44.92C130.539 44.92 130.351 44.732 129.975 44.356L129.687 44.068L130.539 43.228ZM131.679 44.536L132.627 45.484C132.627 45.484 132.499 45.612 132.243 45.868L131.679 46.456C131.679 46.456 131.463 46.24 131.031 45.808L130.707 45.484L131.679 44.536ZM134.699 53.956C135.819 53.716 136.679 53.436 137.279 53.116C137.887 52.804 138.283 52.424 138.467 51.976C138.251 52.008 138.011 52.024 137.747 52.024C137.163 52.024 136.635 51.924 136.163 51.724C135.699 51.516 135.371 51.208 135.179 50.8C135.035 50.488 134.963 50.144 134.963 49.768C134.963 49.296 135.063 48.828 135.263 48.364C135.463 47.892 135.739 47.508 136.091 47.212C136.443 46.908 136.827 46.756 137.243 46.756C137.723 46.756 138.159 46.964 138.551 47.38C138.943 47.796 139.251 48.34 139.475 49.012C139.699 49.684 139.811 50.384 139.811 51.112C139.811 52.232 139.407 53.176 138.599 53.944C137.791 54.712 136.675 55.232 135.251 55.504L134.699 53.956ZM136.283 49.792C136.403 49.952 136.627 50.076 136.955 50.164C137.283 50.244 137.651 50.284 138.059 50.284C138.251 50.284 138.395 50.28 138.491 50.272C138.379 49.728 138.195 49.272 137.939 48.904C137.691 48.536 137.411 48.352 137.099 48.352C136.939 48.352 136.787 48.412 136.643 48.532C136.507 48.652 136.395 48.8 136.307 48.976C136.227 49.152 136.187 49.316 136.187 49.468C136.187 49.596 136.219 49.704 136.283 49.792ZM144.776 52C144.52 52 144.284 51.952 144.068 51.856C144.02 52.608 143.692 53.3 143.084 53.932C142.476 54.572 141.672 55.096 140.672 55.504L139.94 53.992C140.468 53.776 140.952 53.524 141.392 53.236C141.832 52.956 142.176 52.676 142.424 52.396C142.68 52.116 142.808 51.876 142.808 51.676C142.808 51.348 142.596 50.456 142.172 49L142.112 48.76L143.456 48.232C143.544 48.48 143.648 48.836 143.768 49.3C143.872 49.628 144 49.864 144.152 50.008C144.312 50.144 144.52 50.212 144.776 50.212H144.884L144.98 51.112L144.884 52H144.776ZM144.778 50.212H144.958C145.91 50.212 146.666 50.168 147.226 50.08C147.794 49.984 148.214 49.816 148.486 49.576C148.262 49.592 148.098 49.6 147.994 49.6C147.418 49.6 146.906 49.5 146.458 49.3C146.018 49.1 145.702 48.808 145.51 48.424C145.366 48.112 145.294 47.768 145.294 47.392C145.294 46.936 145.39 46.492 145.582 46.06C145.774 45.628 146.042 45.276 146.386 45.004C146.73 44.724 147.11 44.584 147.526 44.584C147.998 44.584 148.422 44.772 148.798 45.148C149.174 45.516 149.466 46.004 149.674 46.612C149.89 47.22 149.998 47.864 149.998 48.544C149.998 49.648 149.582 50.5 148.75 51.1C147.926 51.7 146.654 52 144.934 52H144.778V50.212ZM146.578 47.44C146.698 47.592 146.914 47.716 147.226 47.812C147.538 47.9 147.89 47.944 148.282 47.944C148.386 47.944 148.542 47.936 148.75 47.92C148.646 47.408 148.47 46.98 148.222 46.636C147.974 46.284 147.698 46.108 147.394 46.108C147.146 46.108 146.934 46.22 146.758 46.444C146.582 46.66 146.494 46.888 146.494 47.128C146.494 47.256 146.522 47.36 146.578 47.44ZM147.298 41.62C147.546 41.86 147.79 42.104 148.03 42.352L148.402 42.724L147.298 43.828L146.182 42.724L147.298 41.62Z" fill="#868686"/>
<defs>
<clipPath id="clip0_310_1388">
<rect width="150" height="32" fill="white" transform="translate(0.24324)"/>
</clipPath>
</defs>
</svg>
