<svg width="17" height="17" viewBox="0 0 17 17" fill="none" xmlns="http://www.w3.org/2000/svg">
<path d="M12.0417 15.052H4.95842C2.373 15.052 0.885498 13.5645 0.885498 10.9791V6.02079C0.885498 3.43538 2.373 1.94788 4.95842 1.94788H12.0417C14.6272 1.94788 16.1147 3.43538 16.1147 6.02079V10.9791C16.1147 13.5645 14.6272 15.052 12.0417 15.052ZM4.95842 3.01038C2.93258 3.01038 1.948 3.99496 1.948 6.02079V10.9791C1.948 13.005 2.93258 13.9895 4.95842 13.9895H12.0417C14.0676 13.9895 15.0522 13.005 15.0522 10.9791V6.02079C15.0522 3.99496 14.0676 3.01038 12.0417 3.01038H4.95842Z" fill="#868686"/>
<path d="M8.32483 8.235C7.72983 8.235 7.12775 8.05084 6.66734 7.67542L4.45025 5.90459C4.22358 5.72042 4.18109 5.3875 4.36525 5.16084C4.54942 4.93417 4.88234 4.89167 5.10901 5.07584L7.32608 6.84667C7.86442 7.27876 8.77816 7.27876 9.3165 6.84667L11.5336 5.07584C11.7603 4.89167 12.1003 4.92709 12.2773 5.16084C12.4615 5.3875 12.4261 5.7275 12.1923 5.90459L9.97525 7.67542C9.52192 8.05084 8.91983 8.235 8.32483 8.235Z" fill="#868686"/>
</svg>
