<svg width="19" height="19" viewBox="0 0 19 19" fill="none" xmlns="http://www.w3.org/2000/svg">
<g filter="url(#filter0_d_520_1464)">
<path d="M13.3076 17.0125C12.9101 17.0125 12.4001 16.885 11.7626 16.51L9.52009 15.1825C9.28759 15.0475 8.83759 15.0475 8.61259 15.1825L6.36259 16.51C5.03509 17.2975 4.25509 16.9825 3.90259 16.7275C3.55759 16.4725 3.01759 15.82 3.37009 14.32L3.90259 12.0175C3.96259 11.7775 3.84259 11.365 3.66259 11.185L1.80259 9.325C0.872588 8.395 0.947588 7.6 1.07509 7.21C1.20259 6.82 1.60759 6.13 2.89759 5.9125L5.29009 5.515C5.51509 5.4775 5.83759 5.2375 5.93509 5.035L7.26259 2.3875C7.86259 1.18 8.65009 1 9.06259 1C9.47509 1 10.2626 1.18 10.8626 2.3875L12.1826 5.0275C12.2876 5.23 12.6101 5.47 12.8351 5.5075L15.2276 5.905C16.5251 6.1225 16.9301 6.8125 17.0501 7.2025C17.1701 7.5925 17.2451 8.3875 16.3226 9.3175L14.4626 11.185C14.2826 11.365 14.1701 11.77 14.2226 12.0175L14.7551 14.32C15.1001 15.82 14.5676 16.4725 14.2226 16.7275C14.0351 16.8625 13.7351 17.0125 13.3076 17.0125ZM9.06259 13.9525C9.43009 13.9525 9.79759 14.0425 10.0901 14.215L12.3326 15.5425C12.9851 15.9325 13.3976 15.9325 13.5551 15.82C13.7126 15.7075 13.8251 15.31 13.6601 14.575L13.1276 12.2725C12.9851 11.65 13.2176 10.8475 13.6676 10.39L15.5276 8.53C15.8951 8.1625 16.0601 7.8025 15.9851 7.555C15.9026 7.3075 15.5576 7.105 15.0476 7.0225L12.6551 6.625C12.0776 6.5275 11.4476 6.0625 11.1851 5.5375L9.86509 2.8975C9.62509 2.4175 9.32509 2.1325 9.06259 2.1325C8.80009 2.1325 8.50009 2.4175 8.26759 2.8975L6.94009 5.5375C6.67759 6.0625 6.04759 6.5275 5.47009 6.625L3.08509 7.0225C2.57509 7.105 2.23009 7.3075 2.14759 7.555C2.06509 7.8025 2.23759 8.17 2.60509 8.53L4.46509 10.39C4.91509 10.84 5.14759 11.65 5.00509 12.2725L4.47259 14.575C4.30009 15.3175 4.42009 15.7075 4.57759 15.82C4.73509 15.9325 5.14009 15.925 5.80009 15.5425L8.04259 14.215C8.32759 14.0425 8.69509 13.9525 9.06259 13.9525Z" fill="#FA541C"/>
</g>
<defs>
<filter id="filter0_d_520_1464" x="-0.937408" y="-0.990234" width="20" height="20" filterUnits="userSpaceOnUse" color-interpolation-filters="sRGB">
<feFlood flood-opacity="0" result="BackgroundImageFix"/>
<feColorMatrix in="SourceAlpha" type="matrix" values="0 0 0 0 0 0 0 0 0 0 0 0 0 0 0 0 0 0 127 0" result="hardAlpha"/>
<feOffset/>
<feGaussianBlur stdDeviation="0.5"/>
<feComposite in2="hardAlpha" operator="out"/>
<feColorMatrix type="matrix" values="0 0 0 0 0.980392 0 0 0 0 0.329412 0 0 0 0 0.109804 0 0 0 1 0"/>
<feBlend mode="normal" in2="BackgroundImageFix" result="effect1_dropShadow_520_1464"/>
<feBlend mode="normal" in="SourceGraphic" in2="effect1_dropShadow_520_1464" result="shape"/>
</filter>
</defs>
</svg>
