<svg width="89" height="19" viewBox="0 0 89 19" fill="none" xmlns="http://www.w3.org/2000/svg">
<g clip-path="url(#clip0_2_15703)">
<path d="M8.8375 11.5071V16.1348H19.775V22.9902H8.8375V31.6179H0V4.66406H21.3125V11.5071H8.8375Z" fill="#FA541C"/>
<path d="M32.2984 10.5469H23.8359V31.6176H32.2984V10.5469Z" fill="#FA541C"/>
<path d="M33.1641 4.27077C33.1641 5.61231 32.7016 6.70769 31.7766 7.58154C30.8516 8.43077 29.6266 8.86154 28.0766 8.86154C26.5266 8.86154 25.2891 8.43077 24.3641 7.58154C23.4391 6.74461 22.9766 5.68615 22.9766 4.43077C22.9766 3.17538 23.4391 2.11692 24.3641 1.26769C25.2891 0.418461 26.5266 0 28.0766 0C29.6266 0 30.8516 0.393846 31.7766 1.19385C32.7016 1.99385 33.1641 3.01538 33.1641 4.27077Z" fill="#FA541C"/>
<path d="M51.15 30.8794C50.5 31.2732 49.7125 31.5563 48.7875 31.7286C47.8875 31.9132 46.9375 31.9994 45.9375 31.9994C43.125 31.9994 40.925 31.3101 39.35 29.9194C37.775 28.504 36.9875 26.3501 36.9875 23.4455V18.0547H34.1875V11.704H36.9875V5.80859H45.45V11.704H49.65V18.0547H45.45V23.3717C45.45 24.0117 45.6125 24.5163 45.9375 24.8732C46.2875 25.2301 46.7125 25.4147 47.2125 25.4147C47.9375 25.4147 48.575 25.2178 49.125 24.8363L51.15 30.8794Z" fill="#FA541C"/>
<path d="M53.5391 31.6179V4.66406H62.3766V24.5779H74.2141V31.6302H53.5391V31.6179Z" fill="#FA541C"/>
<path d="M94.1 12.5909C92.175 10.9786 89.4625 10.1663 85.9375 10.1663C84.3375 10.1663 82.7 10.3755 81.025 10.7816C79.3625 11.1878 77.925 11.7786 76.725 12.554L79.425 18.2893C80.1 17.7724 80.9 17.3786 81.85 17.0955C82.8 16.7878 83.7375 16.6401 84.6625 16.6401C86.0375 16.6401 87.025 16.9109 87.625 17.4401C88.1 17.8586 88.4 18.4124 88.5 19.1016H85.1125C82.9875 19.1016 81.225 19.3478 79.8375 19.8278C78.4625 20.3201 77.4375 21.034 76.7625 21.994C76.0875 22.9416 75.75 24.0986 75.75 25.4524C75.75 26.6586 76.0375 27.7663 76.6125 28.7632C77.1875 29.7355 78.0375 30.5232 79.1625 31.114C80.2875 31.7047 81.675 32.0001 83.35 32.0001C85.125 32.0001 86.5375 31.6186 87.5875 30.8432C88.2625 30.3509 88.7875 29.6986 89.1625 28.8739V31.6186H97.025V20.2955C97.025 16.7755 96.05 14.2155 94.1 12.5909ZM87.475 26.3016C87 26.6093 86.475 26.757 85.9 26.757C85.275 26.757 84.775 26.6093 84.4 26.3016C84.05 25.9693 83.875 25.5509 83.875 25.0709C83.875 24.4801 84.075 24.037 84.475 23.754C84.9 23.4463 85.5625 23.2986 86.4625 23.2986H88.5625V24.7632C88.3375 25.4524 87.975 25.9693 87.475 26.3016Z" fill="#FA541C"/>
</g>
<defs>
<clipPath id="clip0_2_15703">
<rect width="89" height="19" fill="white"/>
</clipPath>
</defs>
</svg>
