<svg width="17" height="17" viewBox="0 0 17 17" fill="none" xmlns="http://www.w3.org/2000/svg">
<path d="M8.06975 15.2984C4.08207 15.2984 0.84082 12.0572 0.84082 8.06951C0.84082 4.08183 4.08207 0.840576 8.06975 0.840576C12.0574 0.840576 15.2987 4.08183 15.2987 8.06951C15.2987 12.0572 12.0574 15.2984 8.06975 15.2984ZM8.06975 1.84926C4.64021 1.84926 1.84951 4.63997 1.84951 8.06951C1.84951 11.499 4.64021 14.2897 8.06975 14.2897C11.4993 14.2897 14.29 11.499 14.29 8.06951C14.29 4.63997 11.4993 1.84926 8.06975 1.84926Z" fill="#EDEDED"/>
<path d="M8.0698 10.0936C7.94203 10.0936 7.81427 10.0465 7.7134 9.94567L5.33962 7.5719C5.14461 7.37688 5.14461 7.0541 5.33962 6.85909C5.53463 6.66408 5.85741 6.66408 6.05243 6.85909L8.0698 8.87647L10.0872 6.85909C10.2822 6.66408 10.605 6.66408 10.8 6.85909C10.995 7.0541 10.995 7.37688 10.8 7.5719L8.4262 9.94567C8.32533 10.0465 8.19757 10.0936 8.0698 10.0936Z" fill="#EDEDED"/>
</svg>
