<svg width="21" height="21" viewBox="0 0 21 21" fill="none" xmlns="http://www.w3.org/2000/svg">
<path d="M8.11642 15.9609C8.27755 15.9609 8.43869 15.9016 8.5659 15.7744C8.81184 15.5284 8.81184 15.1213 8.5659 14.8754L3.86755 10.177L8.5659 5.47868C8.81184 5.23274 8.81184 4.82566 8.5659 4.57972C8.31996 4.33378 7.91288 4.33378 7.66694 4.57972L2.5191 9.72756C2.27316 9.9735 2.27316 10.3806 2.5191 10.6265L7.66694 15.7744C7.79415 15.9016 7.95528 15.9609 8.11642 15.9609Z" fill="#292D32"/>
<path d="M3.11263 10.8129H17.3858C17.7335 10.8129 18.0218 10.5245 18.0218 10.1768C18.0218 9.82912 17.7335 9.54077 17.3858 9.54077H3.11263C2.76492 9.54077 2.47657 9.82912 2.47657 10.1768C2.47657 10.5245 2.76492 10.8129 3.11263 10.8129Z" fill="#292D32"/>
</svg>
