<svg width="22" height="21" viewBox="0 0 22 21" fill="none" xmlns="http://www.w3.org/2000/svg">
<path d="M15.971 0H5.33053C2.39086 0 0 2.39079 0 5.33037V15.0647C0 18.0043 2.39086 20.3951 5.33053 20.3951H15.971C18.9107 20.3951 21.3016 18.0043 21.3016 15.0647V5.33037C21.3016 2.39079 18.9107 0 15.971 0ZM1.88021 5.33037C1.88021 3.42772 3.42781 1.88016 5.33053 1.88016H15.971C17.8737 1.88016 19.4214 3.42772 19.4214 5.33037V15.0647C19.4214 16.9674 17.8737 18.515 15.971 18.515H5.33053C3.42781 18.515 1.88021 16.9674 1.88021 15.0647V5.33037Z" fill="white"/>
<path d="M10.6512 15.1567C13.3854 15.1567 15.61 12.9322 15.61 10.1981C15.61 7.46394 13.3854 5.23944 10.6512 5.23944C7.91696 5.23944 5.69238 7.46394 5.69238 10.1981C5.69238 12.9322 7.91696 15.1567 10.6512 15.1567ZM10.6512 7.12058C12.3485 7.12058 13.7288 8.50086 13.7288 10.1981C13.7288 11.8953 12.3485 13.2756 10.6512 13.2756C8.95391 13.2756 7.57357 11.8953 7.57357 10.1981C7.57357 8.50086 8.95391 7.12058 10.6512 7.12058Z" fill="white"/>
<path d="M16.0687 6.04032C16.8053 6.04032 17.405 5.44067 17.405 4.70406C17.405 3.96745 16.8053 3.3678 16.0687 3.3678C15.3321 3.3678 14.7324 3.96745 14.7324 4.70406C14.7324 5.44067 15.3321 6.04032 16.0687 6.04032Z" fill="white"/>
</svg>
