<svg width="17" height="17" viewBox="0 0 17 17" fill="none" xmlns="http://www.w3.org/2000/svg">
<path d="M8.25484 10.8628C8.12057 10.8628 7.98629 10.8134 7.88028 10.7074C7.67532 10.5024 7.67532 10.1632 7.88028 9.95822L9.31494 8.52355L7.88028 7.08888C7.67532 6.88393 7.67532 6.5447 7.88028 6.33975C8.08523 6.1348 8.42446 6.1348 8.62941 6.33975L10.4386 8.14898C10.6436 8.35393 10.6436 8.69317 10.4386 8.89812L8.62941 10.7074C8.53047 10.8134 8.38912 10.8628 8.25484 10.8628Z" fill="#FA541C"/>
<path d="M10.0144 9.05302H2.82692C2.53716 9.05302 2.29688 8.81273 2.29688 8.52297C2.29688 8.23321 2.53716 7.99292 2.82692 7.99292H10.0144C10.3041 7.99292 10.5444 8.23321 10.5444 8.52297C10.5444 8.81273 10.3041 9.05302 10.0144 9.05302Z" fill="#FA541C"/>
<path d="M8.48122 14.6647C8.19146 14.6647 7.95117 14.4244 7.95117 14.1346C7.95117 13.8449 8.19146 13.6046 8.48122 13.6046C11.499 13.6046 13.605 11.4985 13.605 8.48078C13.605 5.46303 11.499 3.35697 8.48122 3.35697C8.19146 3.35697 7.95117 3.11668 7.95117 2.82692C7.95117 2.53716 8.19146 2.29688 8.48122 2.29688C12.1209 2.29688 14.6651 4.84111 14.6651 8.48078C14.6651 12.1204 12.1209 14.6647 8.48122 14.6647Z" fill="#FA541C"/>
</svg>
