<svg width="17" height="17" viewBox="0 0 17 17" fill="none" xmlns="http://www.w3.org/2000/svg">
<path d="M14.8411 5.47709H2.11989C1.83013 5.47709 1.58984 5.2368 1.58984 4.94704C1.58984 4.65728 1.83013 4.41699 2.11989 4.41699H14.8411C15.1308 4.41699 15.3711 4.65728 15.3711 4.94704C15.3711 5.2368 15.1308 5.47709 14.8411 5.47709Z" fill="#FA541C"/>
<path d="M14.8411 9.01078H2.11989C1.83013 9.01078 1.58984 8.77049 1.58984 8.48073C1.58984 8.19097 1.83013 7.95068 2.11989 7.95068H14.8411C15.1308 7.95068 15.3711 8.19097 15.3711 8.48073C15.3711 8.77049 15.1308 9.01078 14.8411 9.01078Z" fill="#FA541C"/>
<path d="M14.8411 12.5445H2.11989C1.83013 12.5445 1.58984 12.3042 1.58984 12.0144C1.58984 11.7247 1.83013 11.4844 2.11989 11.4844H14.8411C15.1308 11.4844 15.3711 11.7247 15.3711 12.0144C15.3711 12.3042 15.1308 12.5445 14.8411 12.5445Z" fill="#FA541C"/>
</svg>
