<svg width="21" height="21" viewBox="0 0 21 21" fill="none" xmlns="http://www.w3.org/2000/svg">
<path d="M10.1774 19.3446C9.59221 19.3446 9.04096 19.0478 8.65085 18.5305L7.37873 16.8343C7.35329 16.8004 7.25152 16.758 7.20911 16.7495H6.78507C3.24859 16.7495 1.06055 15.7912 1.06055 11.025V6.78459C1.06055 3.03608 3.03657 1.06006 6.78507 1.06006H13.5697C17.3182 1.06006 19.2942 3.03608 19.2942 6.78459V11.025C19.2942 14.7735 17.3182 16.7495 13.5697 16.7495H13.1457C13.0778 16.7495 13.0184 16.7834 12.976 16.8343L11.7039 18.5305C11.3138 19.0478 10.7626 19.3446 10.1774 19.3446ZM6.78507 2.33218C3.74895 2.33218 2.33266 3.74847 2.33266 6.78459V11.025C2.33266 14.8583 3.64719 15.4774 6.78507 15.4774H7.20911C7.64163 15.4774 8.13352 15.7233 8.39642 16.071L9.66854 17.7672C9.96537 18.1573 10.3894 18.1573 10.6862 17.7672L11.9584 16.071C12.2382 15.6979 12.6792 15.4774 13.1457 15.4774H13.5697C16.6058 15.4774 18.0221 14.0611 18.0221 11.025V6.78459C18.0221 3.74847 16.6058 2.33218 13.5697 2.33218H6.78507Z" fill="#FA541C"/>
<path d="M10.1772 10.1769C9.70226 10.1769 9.3291 9.79523 9.3291 9.32879C9.3291 8.86235 9.71074 8.48071 10.1772 8.48071C10.6436 8.48071 11.0253 8.86235 11.0253 9.32879C11.0253 9.79523 10.6521 10.1769 10.1772 10.1769Z" fill="#FA541C"/>
<path d="M13.5688 10.1769C13.0939 10.1769 12.7207 9.79523 12.7207 9.32879C12.7207 8.86235 13.1023 8.48071 13.5688 8.48071C14.0352 8.48071 14.4169 8.86235 14.4169 9.32879C14.4169 9.79523 14.0437 10.1769 13.5688 10.1769Z" fill="#FA541C"/>
<path d="M6.7846 10.1769C6.30968 10.1769 5.93652 9.79523 5.93652 9.32879C5.93652 8.86235 6.31816 8.48071 6.7846 8.48071C7.25104 8.48071 7.63268 8.86235 7.63268 9.32879C7.63268 9.79523 7.25953 10.1769 6.7846 10.1769Z" fill="#FA541C"/>
</svg>
