<svg width="17" height="17" viewBox="0 0 17 17" fill="none" xmlns="http://www.w3.org/2000/svg">
<path d="M8.48066 16.0785C4.80565 16.0785 1.82324 13.089 1.82324 9.42107C1.82324 5.75313 4.80565 2.75659 8.48066 2.75659C9.23686 2.75659 9.97186 2.8626 10.6786 3.08169C10.9613 3.1665 11.1168 3.46332 11.032 3.74602C10.9471 4.02871 10.6503 4.18419 10.3676 4.09938C9.76691 3.91563 9.13085 3.81669 8.48066 3.81669C5.39224 3.81669 2.88334 6.32559 2.88334 9.41401C2.88334 12.5024 5.39224 15.0113 8.48066 15.0113C11.5691 15.0113 14.078 12.5024 14.078 9.41401C14.078 8.29737 13.7529 7.22314 13.138 6.30439C12.9755 6.0641 13.0391 5.73193 13.2864 5.56938C13.5267 5.40684 13.8589 5.47044 14.0214 5.7178C14.7564 6.81323 15.1451 8.09242 15.1451 9.42107C15.1381 13.089 12.1557 16.0785 8.48066 16.0785Z" fill="#FA541C"/>
<path d="M11.3996 4.28997C11.2512 4.28997 11.1028 4.22636 10.9968 4.10622L8.95434 1.75987C8.76352 1.54078 8.78472 1.20155 9.00381 1.01073C9.2229 0.819917 9.56213 0.841119 9.75295 1.06021L11.7954 3.40656C11.9862 3.62564 11.965 3.96487 11.7459 4.15569C11.6541 4.24757 11.5268 4.28997 11.3996 4.28997Z" fill="#FA541C"/>
<path d="M9.01807 6.02851C8.85553 6.02851 8.69298 5.95077 8.58697 5.80942C8.41735 5.5762 8.46682 5.24404 8.70004 5.06735L11.0817 3.32879C11.315 3.15211 11.6471 3.20865 11.8238 3.44187C12.0005 3.67509 11.9439 4.00725 11.7107 4.18394L9.32904 5.92957C9.23716 6.00024 9.13115 6.02851 9.01807 6.02851Z" fill="#FA541C"/>
</svg>
