<svg width="17" height="17" viewBox="0 0 17 17" fill="none" xmlns="http://www.w3.org/2000/svg">
<path d="M12.8558 12.5444H5.32913C4.62946 12.5444 3.95807 12.2476 3.48456 11.7316C3.01105 11.2157 2.77076 10.5231 2.8273 9.82345L3.41389 2.78441C3.43509 2.56532 3.35735 2.35331 3.20893 2.19076C3.06052 2.02821 2.85557 1.9434 2.63648 1.9434H1.41384C1.12408 1.9434 0.883789 1.70311 0.883789 1.41335C0.883789 1.12359 1.12408 0.883301 1.41384 0.883301H2.64356C3.15947 0.883301 3.64711 1.10239 3.9934 1.47695C4.18422 1.68897 4.32557 1.93633 4.40331 2.21196H13.2304C13.9442 2.21196 14.6015 2.49465 15.082 3.0035C15.5555 3.51941 15.7958 4.19081 15.7393 4.90461L15.3577 10.2051C15.2799 11.4984 14.1491 12.5444 12.8558 12.5444ZM4.43865 3.26498L3.8874 9.90826C3.85206 10.3182 3.98634 10.7069 4.26197 11.0108C4.53759 11.3147 4.91922 11.4772 5.32913 11.4772H12.8558C13.5908 11.4772 14.2552 10.8553 14.3117 10.1203L14.6933 4.8198C14.7216 4.40283 14.5873 4.00706 14.3117 3.7173C14.0361 3.42047 13.6544 3.25791 13.2375 3.25791H4.43865V3.26498Z" fill="#FA541C"/>
<path d="M11.4848 16.0781C10.7073 16.0781 10.0713 15.4421 10.0713 14.6647C10.0713 13.8873 10.7073 13.2512 11.4848 13.2512C12.2622 13.2512 12.8982 13.8873 12.8982 14.6647C12.8982 15.4421 12.2622 16.0781 11.4848 16.0781ZM11.4848 14.3113C11.2869 14.3113 11.1314 14.4668 11.1314 14.6647C11.1314 14.8626 11.2869 15.0181 11.4848 15.0181C11.6826 15.0181 11.8381 14.8626 11.8381 14.6647C11.8381 14.4668 11.6826 14.3113 11.4848 14.3113Z" fill="#FA541C"/>
<path d="M5.83046 16.0781C5.05305 16.0781 4.41699 15.4421 4.41699 14.6647C4.41699 13.8873 5.05305 13.2512 5.83046 13.2512C6.60786 13.2512 7.24392 13.8873 7.24392 14.6647C7.24392 15.4421 6.60786 16.0781 5.83046 16.0781ZM5.83046 14.3113C5.63257 14.3113 5.47709 14.4668 5.47709 14.6647C5.47709 14.8626 5.63257 15.0181 5.83046 15.0181C6.02834 15.0181 6.18382 14.8626 6.18382 14.6647C6.18382 14.4668 6.02834 14.3113 5.83046 14.3113Z" fill="#FA541C"/>
<path d="M14.8409 6.18388H6.36013C6.07037 6.18388 5.83008 5.94359 5.83008 5.65383C5.83008 5.36407 6.07037 5.12378 6.36013 5.12378H14.8409C15.1307 5.12378 15.371 5.36407 15.371 5.65383C15.371 5.94359 15.1307 6.18388 14.8409 6.18388Z" fill="#FA541C"/>
</svg>
