<svg width="17" height="17" viewBox="0 0 17 17" fill="none" xmlns="http://www.w3.org/2000/svg">
<path d="M8.53026 15.5337C7.53377 15.5337 6.53021 15.1521 5.77401 14.3959L2.57251 11.1944C1.79511 10.417 1.3852 9.34276 1.43467 8.24733L1.60429 4.71367C1.68203 3.02458 3.01775 1.68886 4.71391 1.60405L8.24757 1.43443C9.343 1.39203 10.4172 1.79487 11.1946 2.57227L14.3961 5.77377C15.9156 7.29324 15.9156 9.77387 14.3961 11.2933L11.2936 14.3959C10.5303 15.1521 9.53382 15.5337 8.53026 15.5337ZM3.32165 10.4382L6.52314 13.6397C7.06026 14.1768 7.77406 14.4736 8.53026 14.4736C9.28646 14.4736 10.0003 14.1768 10.5374 13.6397L13.6399 10.5371C14.177 10 14.4739 9.28622 14.4739 8.53002C14.4739 7.77382 14.177 7.06002 13.6399 6.5229L10.4384 3.32141C9.87305 2.75602 9.08858 2.45213 8.29704 2.49453L4.76338 2.66415C3.61141 2.71362 2.71386 3.61117 2.65732 4.75607L2.4877 8.28973C2.45237 9.08834 2.75626 9.87281 3.32165 10.4382Z" fill="#FA541C"/>
<path d="M6.71387 9.01075C5.44882 9.01075 4.41699 7.97892 4.41699 6.71387C4.41699 5.44882 5.44882 4.41699 6.71387 4.41699C7.97892 4.41699 9.01075 5.44882 9.01075 6.71387C9.01075 7.97892 7.97892 9.01075 6.71387 9.01075ZM6.71387 5.47709C6.03541 5.47709 5.47709 6.03541 5.47709 6.71387C5.47709 7.39233 6.03541 7.95065 6.71387 7.95065C7.39233 7.95065 7.95065 7.39233 7.95065 6.71387C7.95065 6.03541 7.39233 5.47709 6.71387 5.47709Z" fill="#FA541C"/>
</svg>
