<svg width="17" height="17" viewBox="0 0 17 17" fill="none" xmlns="http://www.w3.org/2000/svg">
<path d="M9.18764 10.4242H8.48091C8.19115 10.4242 7.95086 10.1839 7.95086 9.89413C7.95086 9.60437 8.19115 9.36408 8.48091 9.36408H9.18764C9.67529 9.36408 10.0711 8.96831 10.0711 8.48067V1.9434H4.24052C3.40658 1.9434 2.64329 2.39569 2.23339 3.12363C2.09204 3.37805 1.76697 3.46995 1.51255 3.32861C1.25813 3.18726 1.16622 2.86215 1.30757 2.60773C1.90122 1.54763 3.02494 0.883301 4.24052 0.883301H10.6011C10.8909 0.883301 11.1312 1.12359 11.1312 1.41335V8.48067C11.1312 9.5549 10.2619 10.4242 9.18764 10.4242Z" fill="#FA541C"/>
<path d="M13.4283 14.6647H12.7215C12.4318 14.6647 12.1915 14.4244 12.1915 14.1347C12.1915 13.647 11.7957 13.2513 11.3081 13.2513C10.8204 13.2513 10.4247 13.647 10.4247 14.1347C10.4247 14.4244 10.1844 14.6647 9.89462 14.6647H7.06769C6.77793 14.6647 6.53764 14.4244 6.53764 14.1347C6.53764 13.647 6.14187 13.2513 5.65423 13.2513C5.16658 13.2513 4.77081 13.647 4.77081 14.1347C4.77081 14.4244 4.53052 14.6647 4.24076 14.6647H3.53403C2.0711 14.6647 0.883789 13.4774 0.883789 12.0145C0.883789 11.7247 1.12408 11.4844 1.41384 11.4844C1.7036 11.4844 1.94389 11.7247 1.94389 12.0145C1.94389 12.8908 2.65769 13.6046 3.53403 13.6046H3.78137C4.01459 12.7919 4.76375 12.1912 5.65423 12.1912C6.54471 12.1912 7.29386 12.7919 7.52708 13.6046H9.4423C9.67552 12.7919 10.4247 12.1912 11.3152 12.1912C12.2056 12.1912 12.9547 12.7919 13.188 13.6046H13.4283C14.3046 13.6046 15.0184 12.8908 15.0184 12.0145V10.4243H13.4283C12.7498 10.4243 12.1915 9.86603 12.1915 9.18757V7.06737C12.1915 6.38891 12.7427 5.83059 13.4283 5.83059L12.6721 4.509C12.5166 4.23338 12.2198 4.06376 11.9018 4.06376H11.1314V8.48083C11.1314 9.55507 10.2621 10.4243 9.18789 10.4243H8.48116C8.1914 10.4243 7.95111 10.1841 7.95111 9.8943C7.95111 9.60454 8.1914 9.36425 8.48116 9.36425H9.18789C9.67553 9.36425 10.0713 8.96848 10.0713 8.48083V3.53371C10.0713 3.24395 10.3116 3.00366 10.6014 3.00366H11.9018C12.6014 3.00366 13.2445 3.37824 13.5908 3.98603L14.7993 6.09915C14.8912 6.2617 14.8912 6.46665 14.7993 6.6292C14.7075 6.79175 14.5308 6.89069 14.3399 6.89069H13.4283C13.3293 6.89069 13.2516 6.96843 13.2516 7.06737V9.18757C13.2516 9.28651 13.3293 9.36425 13.4283 9.36425H15.5485C15.8382 9.36425 16.0785 9.60454 16.0785 9.8943V12.0145C16.0785 13.4774 14.8912 14.6647 13.4283 14.6647Z" fill="#FA541C"/>
<path d="M5.65347 16.0782C4.57924 16.0782 3.70996 15.2089 3.70996 14.1347C3.70996 13.0604 4.57924 12.1912 5.65347 12.1912C6.72771 12.1912 7.59699 13.0604 7.59699 14.1347C7.59699 15.2089 6.72771 16.0782 5.65347 16.0782ZM5.65347 13.2513C5.16583 13.2513 4.77006 13.647 4.77006 14.1347C4.77006 14.6223 5.16583 15.0181 5.65347 15.0181C6.14112 15.0181 6.53689 14.6223 6.53689 14.1347C6.53689 13.647 6.14112 13.2513 5.65347 13.2513Z" fill="#FA541C"/>
<path d="M11.3078 16.0782C10.2335 16.0782 9.36426 15.2089 9.36426 14.1347C9.36426 13.0604 10.2335 12.1912 11.3078 12.1912C12.382 12.1912 13.2513 13.0604 13.2513 14.1347C13.2513 15.2089 12.382 16.0782 11.3078 16.0782ZM11.3078 13.2513C10.8201 13.2513 10.4244 13.647 10.4244 14.1347C10.4244 14.6223 10.8201 15.0181 11.3078 15.0181C11.7954 15.0181 12.1912 14.6223 12.1912 14.1347C12.1912 13.647 11.7954 13.2513 11.3078 13.2513Z" fill="#FA541C"/>
<path d="M15.5484 10.4243H13.4282C12.7497 10.4243 12.1914 9.866 12.1914 9.18754V7.06735C12.1914 6.38888 12.7497 5.83057 13.4282 5.83057H14.3399C14.5307 5.83057 14.7074 5.92951 14.7992 6.09913L16.0078 8.21932C16.0502 8.29706 16.0784 8.38894 16.0784 8.48081V9.89427C16.0784 10.184 15.8381 10.4243 15.5484 10.4243ZM13.4282 6.89066C13.3292 6.89066 13.2515 6.9684 13.2515 7.06735V9.18754C13.2515 9.28648 13.3292 9.36423 13.4282 9.36423H15.0183V8.62217L14.0289 6.89066H13.4282Z" fill="#FA541C"/>
<path d="M5.65423 6.18388H1.41384C1.12408 6.18388 0.883789 5.94359 0.883789 5.65383C0.883789 5.36407 1.12408 5.12378 1.41384 5.12378H5.65423C5.94399 5.12378 6.18428 5.36407 6.18428 5.65383C6.18428 5.94359 5.94399 6.18388 5.65423 6.18388Z" fill="#FA541C"/>
<path d="M4.24077 8.30399H1.41384C1.12408 8.30399 0.883789 8.06371 0.883789 7.77395C0.883789 7.48419 1.12408 7.2439 1.41384 7.2439H4.24077C4.53053 7.2439 4.77081 7.48419 4.77081 7.77395C4.77081 8.06371 4.53053 8.30399 4.24077 8.30399Z" fill="#FA541C"/>
<path d="M2.8273 10.4244H1.41384C1.12408 10.4244 0.883789 10.1841 0.883789 9.89431C0.883789 9.60455 1.12408 9.36426 1.41384 9.36426H2.8273C3.11706 9.36426 3.35735 9.60455 3.35735 9.89431C3.35735 10.1841 3.11706 10.4244 2.8273 10.4244Z" fill="#FA541C"/>
</svg>
