<svg width="150" height="32" viewBox="0 0 150 32" fill="none" xmlns="http://www.w3.org/2000/svg">
<g clip-path="url(#clip0_7633_3514)">
<path d="M8.8375 11.5071V16.1348H19.775V22.9902H8.8375V31.6179H0V4.66406H21.3125V11.5071H8.8375Z" fill="#F15827"/>
<path d="M32.2984 10.5469H23.8359V31.6176H32.2984V10.5469Z" fill="#F15827"/>
<path d="M33.1641 4.27077C33.1641 5.61231 32.7016 6.70769 31.7766 7.58154C30.8516 8.43077 29.6266 8.86154 28.0766 8.86154C26.5266 8.86154 25.2891 8.43077 24.3641 7.58154C23.4391 6.74461 22.9766 5.68615 22.9766 4.43077C22.9766 3.17538 23.4391 2.11692 24.3641 1.26769C25.2891 0.418461 26.5266 0 28.0766 0C29.6266 0 30.8516 0.393846 31.7766 1.19385C32.7016 1.99385 33.1641 3.01538 33.1641 4.27077Z" fill="#F15827"/>
<path d="M51.15 30.8794C50.5 31.2732 49.7125 31.5563 48.7875 31.7286C47.8875 31.9132 46.9375 31.9994 45.9375 31.9994C43.125 31.9994 40.925 31.3101 39.35 29.9194C37.775 28.504 36.9875 26.3501 36.9875 23.4455V18.0547H34.1875V11.704H36.9875V5.80859H45.45V11.704H49.65V18.0547H45.45V23.3717C45.45 24.0117 45.6125 24.5163 45.9375 24.8732C46.2875 25.2301 46.7125 25.4147 47.2125 25.4147C47.9375 25.4147 48.575 25.2178 49.125 24.8363L51.15 30.8794Z" fill="#F15827"/>
<path d="M53.5391 31.6179V4.66406H62.3766V24.5779H74.2141V31.6302H53.5391V31.6179Z" fill="#F15726"/>
<path d="M94.1 12.5909C92.175 10.9786 89.4625 10.1663 85.9375 10.1663C84.3375 10.1663 82.7 10.3755 81.025 10.7816C79.3625 11.1878 77.925 11.7786 76.725 12.554L79.425 18.2893C80.1 17.7724 80.9 17.3786 81.85 17.0955C82.8 16.7878 83.7375 16.6401 84.6625 16.6401C86.0375 16.6401 87.025 16.9109 87.625 17.4401C88.1 17.8586 88.4 18.4124 88.5 19.1016H85.1125C82.9875 19.1016 81.225 19.3478 79.8375 19.8278C78.4625 20.3201 77.4375 21.034 76.7625 21.994C76.0875 22.9416 75.75 24.0986 75.75 25.4524C75.75 26.6586 76.0375 27.7663 76.6125 28.7632C77.1875 29.7355 78.0375 30.5232 79.1625 31.114C80.2875 31.7047 81.675 32.0001 83.35 32.0001C85.125 32.0001 86.5375 31.6186 87.5875 30.8432C88.2625 30.3509 88.7875 29.6986 89.1625 28.8739V31.6186H97.025V20.2955C97.025 16.7755 96.05 14.2155 94.1 12.5909ZM87.475 26.3016C87 26.6093 86.475 26.757 85.9 26.757C85.275 26.757 84.775 26.6093 84.4 26.3016C84.05 25.9693 83.875 25.5509 83.875 25.0709C83.875 24.4801 84.075 24.037 84.475 23.754C84.9 23.4463 85.5625 23.2986 86.4625 23.2986H88.5625V24.7632C88.3375 25.4524 87.975 25.9693 87.475 26.3016Z" fill="#F15827"/>
<path d="M112.751 17.513C112.613 17.4884 112.476 17.4761 112.326 17.4761C111.751 17.4761 111.213 17.6238 110.713 17.9068C110.613 17.9561 110.513 18.0299 110.426 18.0914C110.638 17.5253 111.163 17.1191 111.776 17.1191C112.151 17.1191 112.501 17.2668 112.751 17.513Z" fill="#F15726"/>
<path d="M122.07 14.2152C121.345 12.8245 120.345 11.8029 119.07 11.1629C117.808 10.4983 116.383 10.166 114.808 10.166C113.133 10.166 111.608 10.5599 110.233 11.3599C109.645 11.7045 109.108 12.1352 108.633 12.6399V10.5476H100.57V31.6183H109.045C108.842 31.6183 109.601 31.6183 109.876 31.6183H113.536C113.986 31.6183 114.867 31.6183 114.733 31.6183H123.195V19.606C123.195 17.3906 122.82 15.5937 122.07 14.2152ZM115.995 28.7999C115.995 28.8737 115.995 28.9476 115.983 29.0214H107.358C107.358 28.9476 107.358 28.8737 107.358 28.7999V19.2245C107.358 18.5476 107.645 17.9076 108.145 17.4399L109.97 15.7414C110.933 14.8429 112.445 14.8429 113.408 15.7414L115.233 17.4399C115.733 17.9076 116.008 18.5476 116.008 19.2245V28.7999H115.995Z" fill="#F15827"/>
<path d="M141.538 3.03906V12.0114C141.288 11.7652 141.025 11.5437 140.75 11.3591C139.6 10.5591 138.125 10.1652 136.325 10.1652C134.525 10.1652 132.912 10.596 131.387 11.4698C129.887 12.3437 128.688 13.6114 127.788 15.2483C126.888 16.8606 126.438 18.8052 126.438 21.0575C126.438 23.3098 126.888 25.2791 127.788 26.916C128.688 28.5283 129.887 29.796 131.387 30.6945C132.912 31.5683 134.562 31.9991 136.325 31.9991C138.225 31.9991 139.738 31.6175 140.863 30.8421C141.263 30.5714 141.625 30.2514 141.95 29.8821V31.6175H150V3.03906H141.538ZM141.237 23.3714C140.937 23.9868 140.537 24.4545 140.037 24.7621C139.537 25.0698 138.975 25.2175 138.35 25.2175C137.725 25.2175 137.163 25.0698 136.663 24.7621C136.163 24.4545 135.762 23.9868 135.475 23.3714C135.175 22.7314 135.025 21.956 135.025 21.0575C135.025 20.1591 135.175 19.3837 135.475 18.7929C135.762 18.1775 136.163 17.7098 136.663 17.4021C137.163 17.0944 137.725 16.9468 138.35 16.9468C138.975 16.9468 139.537 17.0944 140.037 17.4021C140.537 17.7098 140.937 18.1775 141.237 18.7929C141.537 19.3837 141.687 20.1344 141.687 21.0575C141.687 21.9806 141.537 22.7314 141.237 23.3714Z" fill="#F15726"/>
<path d="M112.748 17.513C112.498 17.2668 112.148 17.1191 111.773 17.1191C111.161 17.1191 110.636 17.5253 110.423 18.0914C110.373 18.2514 110.336 18.4238 110.336 18.6084C110.336 19.4207 110.986 20.0976 111.773 20.0976C112.561 20.0976 113.223 19.4207 113.223 18.6084C113.223 18.1776 113.036 17.7838 112.748 17.513Z" fill="#EDEDEE" stroke="#F15726"/>
<path d="M113.223 18.6084C113.223 19.4207 112.573 20.0976 111.773 20.0976C110.973 20.0976 110.336 19.4207 110.336 18.6084C110.336 18.4238 110.373 18.2514 110.423 18.0914C110.636 17.5253 111.161 17.1191 111.773 17.1191C112.148 17.1191 112.498 17.2668 112.748 17.513C113.036 17.7838 113.223 18.1776 113.223 18.6084Z" fill="#F15726"/>
</g>
<defs>
<clipPath id="clip0_7633_3514">
<rect width="150" height="32" fill="white"/>
</clipPath>
</defs>
</svg>
