<svg width="76" height="17" viewBox="0 0 76 17" fill="none" xmlns="http://www.w3.org/2000/svg">
<g clip-path="url(#clip0_2_7435)">
<path d="M4.44697 5.79444V8.1247H9.95064V11.5767H4.44697V15.9211H0V2.34863H10.7243V5.79444H4.44697Z" fill="#FA541C"/>
<path d="M16.2524 5.31079H11.9941V15.9209H16.2524V5.31079Z" fill="#FA541C"/>
<path d="M16.6878 2.15053C16.6878 2.82606 16.4551 3.37763 15.9896 3.81766C15.5242 4.24528 14.9078 4.4622 14.1278 4.4622C13.3479 4.4622 12.7252 4.24528 12.2597 3.81766C11.7943 3.39623 11.5615 2.86324 11.5615 2.2311C11.5615 1.59895 11.7943 1.06597 12.2597 0.638342C12.7252 0.210715 13.3479 0 14.1278 0C14.9078 0 15.5242 0.19832 15.9896 0.601157C16.4551 1.00399 16.6878 1.51839 16.6878 2.15053Z" fill="#FA541C"/>
<path d="M25.7385 15.5491C25.4115 15.7474 25.0152 15.89 24.5497 15.9767C24.0969 16.0697 23.6188 16.1131 23.1156 16.1131C21.7004 16.1131 20.5934 15.766 19.8009 15.0657C19.0083 14.353 18.6121 13.2684 18.6121 11.8058V9.09131H17.2031V5.8934H18.6121V2.9248H22.8703V5.8934H24.9837V9.09131H22.8703V11.7686C22.8703 12.0909 22.9521 12.345 23.1156 12.5247C23.2918 12.7045 23.5056 12.7974 23.7572 12.7974C24.122 12.7974 24.4428 12.6983 24.7196 12.5061L25.7385 15.5491Z" fill="#FA541C"/>
<path d="M26.9404 15.9211V2.34863H31.3874V12.3762H37.3439V15.9273H26.9404V15.9211Z" fill="#FA541C"/>
<path d="M47.3508 6.34005C46.3821 5.52817 45.0172 5.11914 43.2435 5.11914C42.4384 5.11914 41.6144 5.2245 40.7715 5.42902C39.935 5.63353 39.2116 5.93101 38.6078 6.32145L39.9664 9.20949C40.3061 8.94919 40.7086 8.75087 41.1867 8.60833C41.6647 8.45339 42.1364 8.37902 42.6019 8.37902C43.2938 8.37902 43.7907 8.51537 44.0926 8.78186C44.3316 8.99257 44.4826 9.27146 44.5329 9.61852H42.8283C41.759 9.61852 40.8722 9.74247 40.174 9.98417C39.4821 10.2321 38.9663 10.5915 38.6267 11.0749C38.287 11.5521 38.1172 12.1347 38.1172 12.8164C38.1172 13.4238 38.2619 13.9816 38.5512 14.4836C38.8405 14.9732 39.2682 15.3698 39.8343 15.6673C40.4004 15.9648 41.0986 16.1135 41.9415 16.1135C42.8346 16.1135 43.5454 15.9214 44.0737 15.5309C44.4134 15.283 44.6776 14.9546 44.8663 14.5393V15.9214H48.8226V10.2197C48.8226 8.44719 48.332 7.15812 47.3508 6.34005ZM44.0171 13.2441C43.7781 13.399 43.5139 13.4734 43.2246 13.4734C42.9101 13.4734 42.6585 13.399 42.4698 13.2441C42.2937 13.0767 42.2056 12.866 42.2056 12.6243C42.2056 12.3268 42.3063 12.1037 42.5075 11.9612C42.7214 11.8062 43.0548 11.7319 43.5076 11.7319H44.5643V12.4694C44.4511 12.8164 44.2687 13.0767 44.0171 13.2441Z" fill="#FA541C"/>
<path d="M56.7354 8.81868C56.6662 8.80629 56.597 8.80009 56.5215 8.80009C56.2322 8.80009 55.9617 8.87446 55.7101 9.017C55.6598 9.04179 55.6095 9.07898 55.5654 9.10996C55.6724 8.82488 55.9365 8.62036 56.2447 8.62036C56.4334 8.62036 56.6096 8.69473 56.7354 8.81868Z" fill="#FA541C"/>
<path d="M61.4251 7.15812C61.0603 6.4578 60.5571 5.94341 59.9155 5.62114C59.2802 5.28647 58.5632 5.11914 57.7707 5.11914C56.9278 5.11914 56.1604 5.31746 55.4685 5.7203C55.1729 5.89383 54.9025 6.11074 54.6634 6.36484V5.31126H50.6064V15.9214H54.871C54.7686 15.9214 55.1508 15.9214 55.2892 15.9214H57.1307C57.3571 15.9214 57.8003 15.9214 57.7329 15.9214H61.9912V9.87262C61.9912 8.75707 61.8025 7.85224 61.4251 7.15812ZM58.3682 14.5021C58.3682 14.5393 58.3682 14.5765 58.3619 14.6137H54.0219C54.0219 14.5765 54.0219 14.5393 54.0219 14.5021V9.6805C54.0219 9.33963 54.1665 9.01736 54.4181 8.78186L55.3365 7.92661C55.8208 7.47419 56.5819 7.47419 57.0662 7.92661L57.9845 8.78186C58.2361 9.01736 58.3745 9.33963 58.3745 9.6805V14.5021H58.3682Z" fill="#FA541C"/>
<path d="M71.2203 1.53027V6.04825C71.0945 5.9243 70.9624 5.81274 70.824 5.71978C70.2453 5.31694 69.5031 5.11862 68.5974 5.11862C67.6916 5.11862 66.8802 5.33553 66.1129 5.77556C65.3581 6.21558 64.7543 6.85392 64.3014 7.67819C63.8485 8.49006 63.6221 9.46926 63.6221 10.6034C63.6221 11.7375 63.8485 12.7291 64.3014 13.5534C64.7543 14.3653 65.3581 15.0036 66.1129 15.456C66.8802 15.8961 67.7105 16.113 68.5974 16.113C69.5535 16.113 70.3145 15.9209 70.8806 15.5304C71.0819 15.3941 71.2643 15.2329 71.4278 15.047V15.9209H75.4786V1.53027H71.2203ZM71.0693 11.7685C70.9184 12.0784 70.7171 12.3139 70.4655 12.4689C70.2139 12.6238 69.9309 12.6982 69.6164 12.6982C69.3019 12.6982 69.0188 12.6238 68.7672 12.4689C68.5156 12.3139 68.3143 12.0784 68.1697 11.7685C68.0187 11.4463 67.9432 11.0558 67.9432 10.6034C67.9432 10.151 68.0187 9.76055 68.1697 9.46307C68.3143 9.15319 68.5156 8.91769 68.7672 8.76275C69.0188 8.60781 69.3019 8.53344 69.6164 8.53344C69.9309 8.53344 70.2139 8.60781 70.4655 8.76275C70.7171 8.91769 70.9184 9.15319 71.0693 9.46307C71.2203 9.76055 71.2958 10.1386 71.2958 10.6034C71.2958 11.0682 71.2203 11.4463 71.0693 11.7685Z" fill="#FA541C"/>
<path d="M56.7345 8.81868C56.6087 8.69473 56.4325 8.62036 56.2438 8.62036C55.9356 8.62036 55.6715 8.82488 55.5645 9.10996C55.5394 9.19053 55.5205 9.2773 55.5205 9.37026C55.5205 9.77929 55.8476 10.1202 56.2438 10.1202C56.6401 10.1202 56.9735 9.77929 56.9735 9.37026C56.9735 9.15335 56.8791 8.95503 56.7345 8.81868Z" fill="#EDEDEE" stroke="#FA541C" stroke-width="0.848078"/>
<path d="M56.9735 9.37026C56.9735 9.77929 56.6464 10.1202 56.2438 10.1202C55.8413 10.1202 55.5205 9.77929 55.5205 9.37026C55.5205 9.2773 55.5394 9.19053 55.5645 9.10996C55.6715 8.82488 55.9356 8.62036 56.2438 8.62036C56.4325 8.62036 56.6087 8.69473 56.7345 8.81868C56.8791 8.95503 56.9735 9.15335 56.9735 9.37026Z" fill="#FA541C"/>
</g>
<defs>
<clipPath id="clip0_2_7435">
<rect width="75.479" height="16.1135" fill="white"/>
</clipPath>
</defs>
</svg>
